{
.appVersion = "1342";
DisplayStrings = (
"ä/adotbelow à/ahookabove/ainvertedbreve/amacron/aogonek åë/edotaccent/edotbelow è/ehookabove/einvertedbreve/emacron ó/obreve ô/ocircumflexdotbelow ò/ohookabove/ohornacute"
);
customParameters = (
{
name = description;
value = "Copyright (c) 2020 Robert E. Leuschke ";
},
{
name = licenseURL;
value = "http://www.typesetit.com/license.html";
},
{
name = license;

glyphs = (
{
glyphname = A;
layers = (
{
layerId = "979483E7-D034-4361-86D9-396A77A90835";
paths = (
{
closed = 1;
nodes = (
"955 635 OFFCURVE",
"941 640 OFFCURVE",
"926 640 CURVE SMOOTH",
"906 640 OFFCURVE",
"887 630 OFFCURVE",
"886 613 CURVE SMOOTH",
"885 596 OFFCURVE",
"875 566 OFFCURVE",
"856 523 CURVE SMOOTH",
"837 479 OFFCURVE",
"808 418 OFFCURVE",
"771 341 CURVE SMOOTH",
"744 284 OFFCURVE",
"731 256 OFFCURVE",
"732 259 CURVE",
"644 256 LINE",
"598 254 LINE",
"611 269 LINE SMOOTH",
"724 397 OFFCURVE",
"796 481 OFFCURVE",
"864 577 CURVE",
"867 580 OFFCURVE",
"868 584 OFFCURVE",
"868 587 CURVE SMOOTH",
"868 591 OFFCURVE",
"866 593 OFFCURVE",
"862 593 CURVE SMOOTH",
"857 593 OFFCURVE",
"851 589 OFFCURVE",
"846 582 CURVE SMOOTH",
"795 511 OFFCURVE",
"749 459 OFFCURVE",
"650 352 CURVE SMOOTH",
"618 318 OFFCURVE",
"588 285 OFFCURVE",
"559 252 CURVE",
"491 247 OFFCURVE",
"448 240 OFFCURVE",
"430 231 CURVE SMOOTH",
"419 226 OFFCURVE",
"409 206 OFFCURVE",
"409 194 CURVE SMOOTH",
"409 185 OFFCURVE",
"413 183 OFFCURVE",
"420 186 CURVE SMOOTH",
"427 189 OFFCURVE",
"446 193 OFFCURVE",
"476 198 CURVE SMOOTH",
"524 205 LINE",
"452 112 OFFCURVE",
"337 5 OFFCURVE",
"215 -66 CURVE SMOOTH",
"154 -101 OFFCURVE",
"97 -122 OFFCURVE",
"45 -127 CURVE SMOOTH",
"-11 -132 OFFCURVE",
"-46 -95 OFFCURVE",
"-46 -38 CURVE SMOOTH",
"-46 -24 OFFCURVE",
"-44 -9 OFFCURVE",
"-40 6 CURVE SMOOTH",
"-11 119 OFFCURVE",
"76 267 OFFCURVE",
"190 360 CURVE SMOOTH",
"247 407 OFFCURVE",
"305 430 OFFCURVE",
"366 430 CURVE SMOOTH",
"398 430 OFFCURVE",
"414 414 OFFCURVE",
"414 382 CURVE SMOOTH",
"414 328 OFFCURVE",
"356 221 OFFCURVE",
"322 196 CURVE SMOOTH",
"313 189 OFFCURVE",
"308 181 OFFCURVE",
"308 174 CURVE SMOOTH",
"308 171 OFFCURVE",
"309 169 OFFCURVE",
"312 169 CURVE SMOOTH",
"315 169 OFFCURVE",
"318 170 OFFCURVE",
"321 173 CURVE",
"356 198 OFFCURVE",
"396 259 OFFCURVE",
"421 322 CURVE SMOOTH",
"433 353 OFFCURVE",
"439 381 OFFCURVE",
"439 405 CURVE SMOOTH",
"439 446 OFFCURVE",
"418 473 OFFCURVE",
"373 473 CURVE SMOOTH",
"254 473 OFFCURVE",
"116 354 OFFCURVE",
"20 207 CURVE SMOOTH",
"-29 133 OFFCURVE",
"-59 68 OFFCURVE",
"-71 12 CURVE SMOOTH",
"-74 -2 OFFCURVE",
"-76 -18 OFFCURVE",
"-76 -35 CURVE SMOOTH",
"-76 -106 OFFCURVE",
"-35 -150 OFFCURVE",
"36 -150 CURVE SMOOTH",
"192 -150 OFFCURVE",
"409 31 OFFCURVE",
"566 210 CURVE",
"581 212 OFFCURVE",
"603 216 OFFCURVE",
"631 221 CURVE SMOOTH",
"670 229 OFFCURVE",
"701 234 OFFCURVE",
"724 236 CURVE",
"708 200 LINE SMOOTH",
"669 116 OFFCURVE",
"643 52 OFFCURVE",
"643 3 CURVE SMOOTH",
"643 -38 OFFCURVE",
"664 -58 OFFCURVE",
"707 -55 CURVE SMOOTH",
"728 -54 OFFCURVE",
"771 -18 OFFCURVE",
"792 5 CURVE SMOOTH",
"797 10 OFFCURVE",
"800 15 OFFCURVE",
"800 18 CURVE SMOOTH",
"800 21 OFFCURVE",
"799 22 OFFCURVE",
"796 22 CURVE SMOOTH",
"791 22 OFFCURVE",
"787 19 OFFCURVE",
"782 12 CURVE SMOOTH",
"770 -4 OFFCURVE",
"732 -31 OFFCURVE",
"716 -31 CURVE SMOOTH",
"696 -31 OFFCURVE",
"686 -18 OFFCURVE",
"686 9 CURVE SMOOTH",
"686 50 OFFCURVE",
"699 97 OFFCURVE",
"724 152 CURVE SMOOTH",
"749 207 OFFCURVE",
"763 236 OFFCURVE",
"764 239 CURVE",
"845 245 LINE SMOOTH",
"856 246 OFFCURVE",
"863 253 OFFCURVE",
"863 258 CURVE SMOOTH",
"863 262 OFFCURVE",
"860 264 OFFCURVE",
"854 264 CURVE SMOOTH",
"851 264 LINE",
"774 260 LINE",
"793 301 OFFCURVE",
"824 361 OFFCURVE",
"868 440 CURVE SMOOTH",
"900 497 OFFCURVE",
"925 544 OFFCURVE",
"943 580 CURVE SMOOTH",
"956 606 OFFCURVE",
"961 622 OFFCURVE",
"958 628 CURVE SMOOTH"
);
}
);
width = 797;
}
);
note = A;
unicode = 0041;
},
{
glyphname = Aacute;
layers = (
{
layerId = "979483E7-D034-4361-86D9-396A77A90835";
paths = (
{
closed = 1;
nodes = (
"1010 785 OFFCURVE",
"989 817 OFFCURVE",
"977 809 CURVE",
"950 795 OFFCURVE",
"923 772 OFFCURVE",
"894 739 CURVE SMOOTH",
"882 727 OFFCURVE",
"873 716 OFFCURVE",
"866 706 CURVE SMOOTH",
"864 703 OFFCURVE",
"862 701 OFFCURVE",
"860 698 CURVE SMOOTH",
"858 695 OFFCURVE",
"857 694 OFFCURVE",
"858 693 CURVE",
"862 691 OFFCURVE",
"879 699 OFFCURVE",
"909 716 CURVE SMOOTH",
"939 733 OFFCURVE",
"969 754 OFFCURVE",
"1000 778 CURVE SMOOTH"
);
},
{
closed = 1;
nodes = (
"955 635 OFFCURVE",
"941 640 OFFCURVE",
"926 640 CURVE SMOOTH",
"906 640 OFFCURVE",
"887 630 OFFCURVE",
"886 613 CURVE SMOOTH",
"885 596 OFFCURVE",
"875 566 OFFCURVE",
"856 523 CURVE SMOOTH",
"837 479 OFFCURVE",
"808 418 OFFCURVE",
"771 341 CURVE SMOOTH",
"744 284 OFFCURVE",
"731 256 OFFCURVE",
"732 259 CURVE",
"644 256 LINE",
"598 254 LINE",
"611 269 LINE SMOOTH",
"724 397 OFFCURVE",
"796 481 OFFCURVE",
"864 577 CURVE",
"867 580 OFFCURVE",
"868 584 OFFCURVE",
"868 587 CURVE SMOOTH",
"868 591 OFFCURVE",
"866 593 OFFCURVE",
"862 593 CURVE SMOOTH",
"857 593 OFFCURVE",
"851 589 OFFCURVE",
"846 582 CURVE SMOOTH",
"795 511 OFFCURVE",
"749 459 OFFCURVE",
"650 352 CURVE SMOOTH",
"618 318 OFFCURVE",
"588 285 OFFCURVE",
"559 252 CURVE",
"491 247 OFFCURVE",
"448 240 OFFCURVE",
"430 231 CURVE SMOOTH",
"419 226 OFFCURVE",
"409 206 OFFCURVE",
"409 194 CURVE SMOOTH",
"409 185 OFFCURVE",
"413 183 OFFCURVE",
"420 186 CURVE SMOOTH",
"427 189 OFFCURVE",
"446 193 OFFCURVE",
"476 198 CURVE SMOOTH",
"524 205 LINE",
"452 112 OFFCURVE",
"337 5 OFFCURVE",
"215 -66 CURVE SMOOTH",
"154 -101 OFFCURVE",
"97 -122 OFFCURVE",
"45 -127 CURVE SMOOTH",
"-11 -132 OFFCURVE",
"-46 -95 OFFCURVE",
"-46 -38 CURVE SMOOTH",
"-46 -24 OFFCURVE",
"-44 -9 OFFCURVE",
"-40 6 CURVE SMOOTH",
"-11 119 OFFCURVE",
"76 267 OFFCURVE",
"190 360 CURVE SMOOTH",
"247 407 OFFCURVE",
"305 430 OFFCURVE",
"366 430 CURVE SMOOTH",
"398 430 OFFCURVE",
"414 414 OFFCURVE",
"414 382 CURVE SMOOTH",
"414 328 OFFCURVE",
"356 221 OFFCURVE",
"322 196 CURVE SMOOTH",
"313 189 OFFCURVE",
"308 181 OFFCURVE",
"308 174 CURVE SMOOTH",
"308 171 OFFCURVE",
"309 169 OFFCURVE",
"312 169 CURVE SMOOTH",
"315 169 OFFCURVE",
"318 170 OFFCURVE",
"321 173 CURVE",
"356 198 OFFCURVE",
"396 259 OFFCURVE",
"421 322 CURVE SMOOTH",
"433 353 OFFCURVE",
"439 381 OFFCURVE",
"439 405 CURVE SMOOTH",
"439 446 OFFCURVE",
"418 473 OFFCURVE",
"373 473 CURVE SMOOTH",
"254 473 OFFCURVE",
"116 354 OFFCURVE",
"20 207 CURVE SMOOTH",
"-29 133 OFFCURVE",
"-59 68 OFFCURVE",
"-71 12 CURVE SMOOTH",
"-74 -2 OFFCURVE",
"-76 -18 OFFCURVE",
"-76 -35 CURVE SMOOTH",
"-76 -106 OFFCURVE",
"-35 -150 OFFCURVE",
"36 -150 CURVE SMOOTH",
"192 -150 OFFCURVE",
"409 31 OFFCURVE",
"566 210 CURVE",
"581 212 OFFCURVE",
"603 216 OFFCURVE",
"631 221 CURVE SMOOTH",
"670 229 OFFCURVE",
"701 234 OFFCURVE",
"724 236 CURVE",
"708 200 LINE SMOOTH",
"669 116 OFFCURVE",
"643 52 OFFCURVE",
"643 3 CURVE SMOOTH",
"643 -38 OFFCURVE",
"664 -58 OFFCURVE",
"707 -55 CURVE SMOOTH",
"728 -54 OFFCURVE",
"771 -18 OFFCURVE",
"792 5 CURVE SMOOTH",
"797 10 OFFCURVE",
"800 15 OFFCURVE",
"800 18 CURVE SMOOTH",
"800 21 OFFCURVE",
"799 22 OFFCURVE",
"796 22 CURVE SMOOTH",
"791 22 OFFCURVE",
"787 19 OFFCURVE",
"782 12 CURVE SMOOTH",
"770 -4 OFFCURVE",
"732 -31 OFFCURVE",
"716 -31 CURVE SMOOTH",
"696 -31 OFFCURVE",
"686 -18 OFFCURVE",
"686 9 CURVE SMOOTH",
"686 50 OFFCURVE",
"699 97 OFFCURVE",
"724 152 CURVE SMOOTH",
"749 207 OFFCURVE",
"763 236 OFFCURVE",
"764 239 CURVE",
"845 245 LINE SMOOTH",
"856 246 OFFCURVE",
"863 253 OFFCURVE",
"863 258 CURVE SMOOTH",
"863 262 OFFCURVE",
"860 264 OFFCURVE",
"854 264 CURVE SMOOTH",
"851 264 LINE",
"774 260 LINE",
"793 301 OFFCURVE",
"824 361 OFFCURVE",
"868 440 CURVE SMOOTH",
"900 497 OFFCURVE",
"925 544 OFFCURVE",
"943 580 CURVE SMOOTH",
"956 606 OFFCURVE",
"961 622 OFFCURVE",
"958 628 CURVE SMOOTH"
);
}
);
width = 778;
}
);
note = Aacute;
unicode = 00C1;
},
{
glyphname = Abreve;
lastChange = "2021-04-20 16:28:14 +0000";
layers = (
{
layerId = "979483E7-D034-4361-86D9-396A77A90835";
paths = (
{
closed = 1;
nodes = (
"992 709 OFFCURVE",
"1031 746 OFFCURVE",
"1054 794 CURVE SMOOTH",
"1055 797 OFFCURVE",
"1056 799 OFFCURVE",
"1056 800 CURVE SMOOTH",
"1056 803 OFFCURVE",
"1055 804 OFFCURVE",
"1053 804 CURVE SMOOTH",
"1049 804 OFFCURVE",
"1045 801 OFFCURVE",
"1042 795 CURVE SMOOTH",
"1021 759 OFFCURVE",
"991 731 OFFCURVE",
"955 731 CURVE SMOOTH",
"921 731 OFFCURVE",
"889 788 OFFCURVE",
"876 788 CURVE SMOOTH",
"872 788 OFFCURVE",
"870 785 OFFCURVE",
"870 778 CURVE SMOOTH",
"870 775 OFFCURVE",
"871 769 OFFCURVE",
"874 761 CURVE SMOOTH",
"885 728 OFFCURVE",
"912 709 OFFCURVE",
"947 709 CURVE SMOOTH"
);
},
{
closed = 1;
nodes = (
"955 635 OFFCURVE",
"941 640 OFFCURVE",
"926 640 CURVE SMOOTH",
"906 640 OFFCURVE",
"887 630 OFFCURVE",
"886 613 CURVE SMOOTH",
"885 596 OFFCURVE",
"875 566 OFFCURVE",
"856 523 CURVE SMOOTH",
"837 479 OFFCURVE",
"808 418 OFFCURVE",
"771 341 CURVE SMOOTH",
"744 284 OFFCURVE",
"731 256 OFFCURVE",
"732 259 CURVE",
"644 256 LINE",
"598 254 LINE",
"611 269 LINE SMOOTH",
"724 397 OFFCURVE",
"796 481 OFFCURVE",
"864 577 CURVE",
"867 580 OFFCURVE",
"868 584 OFFCURVE",
"868 587 CURVE SMOOTH",
"868 591 OFFCURVE",
"866 593 OFFCURVE",
"862 593 CURVE SMOOTH",
"857 593 OFFCURVE",
"851 589 OFFCURVE",
"846 582 CURVE SMOOTH",
"795 511 OFFCURVE",
"749 459 OFFCURVE",
"650 352 CURVE SMOOTH",
"618 318 OFFCURVE",
"588 285 OFFCURVE",
"559 252 CURVE",
"491 247 OFFCURVE",
"448 240 OFFCURVE",
"430 231 CURVE SMOOTH",
"419 226 OFFCURVE",
"409 206 OFFCURVE",
"409 194 CURVE SMOOTH",
"409 185 OFFCURVE",
"413 183 OFFCURVE",
"420 186 CURVE SMOOTH",
"427 189 OFFCURVE",
"446 193 OFFCURVE",
"476 198 CURVE SMOOTH",
"524 205 LINE",
"452 112 OFFCURVE",
"337 5 OFFCURVE",
"215 -66 CURVE SMOOTH",
"154 -101 OFFCURVE",
"97 -122 OFFCURVE",
"45 -127 CURVE SMOOTH",
"-11 -132 OFFCURVE",
"-46 -95 OFFCURVE",
"-46 -38 CURVE SMOOTH",
"-46 -24 OFFCURVE",
"-44 -9 OFFCURVE",
"-40 6 CURVE SMOOTH",
"-11 119 OFFCURVE",
"76 267 OFFCURVE",
"190 360 CURVE SMOOTH",
"247 407 OFFCURVE",
"305 430 OFFCURVE",
"366 430 CURVE SMOOTH",
"398 430 OFFCURVE",
"414 414 OFFCURVE",
"414 382 CURVE SMOOTH",
"414 328 OFFCURVE",
"356 221 OFFCURVE",
"322 196 CURVE SMOOTH",
"313 189 OFFCURVE",
"308 181 OFFCURVE",
"308 174 CURVE SMOOTH",
"308 171 OFFCURVE",
"309 169 OFFCURVE",
"312 169 CURVE SMOOTH",
"315 169 OFFCURVE",
"318 170 OFFCURVE",
"321 173 CURVE",
"356 198 OFFCURVE",
"396 259 OFFCURVE",
"421 322 CURVE SMOOTH",
"433 353 OFFCURVE",
"439 381 OFFCURVE",
"439 405 CURVE SMOOTH",
"439 446 OFFCURVE",
"418 473 OFFCURVE",
"373 473 CURVE SMOOTH",
"254 473 OFFCURVE",
"116 354 OFFCURVE",
"20 207 CURVE SMOOTH",
"-29 133 OFFCURVE",
"-59 68 OFFCURVE",
"-71 12 CURVE SMOOTH",
"-74 -2 OFFCURVE",
"-76 -18 OFFCURVE",
"-76 -35 CURVE SMOOTH",
"-76 -106 OFFCURVE",
"-35 -150 OFFCURVE",
"36 -150 CURVE SMOOTH",
"192 -150 OFFCURVE",
"409 31 OFFCURVE",
"566 210 CURVE",
"581 212 OFFCURVE",
"603 216 OFFCURVE",
"631 221 CURVE SMOOTH",
"670 229 OFFCURVE",
"701 234 OFFCURVE",
"724 236 CURVE",
"708 200 LINE SMOOTH",
"669 116 OFFCURVE",
"643 52 OFFCURVE",
"643 3 CURVE SMOOTH",
"643 -38 OFFCURVE",
"664 -58 OFFCURVE",
"707 -55 CURVE SMOOTH",
"728 -54 OFFCURVE",
"771 -18 OFFCURVE",
"792 5 CURVE SMOOTH",
"797 10 OFFCURVE",
"800 15 OFFCURVE",
"800 18 CURVE SMOOTH",
"800 21 OFFCURVE",
"799 22 OFFCURVE",
"796 22 CURVE SMOOTH",
"791 22 OFFCURVE",
"787 19 OFFCURVE",
"782 12 CURVE SMOOTH",
"770 -4 OFFCURVE",
"732 -31 OFFCURVE",
"716 -31 CURVE SMOOTH",
"696 -31 OFFCURVE",
"686 -18 OFFCURVE",
"686 9 CURVE SMOOTH",
"686 50 OFFCURVE",
"699 97 OFFCURVE",
"724 152 CURVE SMOOTH",
"749 207 OFFCURVE",
"763 236 OFFCURVE",
"764 239 CURVE",
"845 245 LINE SMOOTH",
"856 246 OFFCURVE",
"863 253 OFFCURVE",
"863 258 CURVE SMOOTH",
"863 262 OFFCURVE",
"860 264 OFFCURVE",
"854 264 CURVE SMOOTH",
"851 264 LINE",
"774 260 LINE",
"793 301 OFFCURVE",
"824 361 OFFCURVE",
"868 440 CURVE SMOOTH",
"900 497 OFFCURVE",
"925 544 OFFCURVE",
"943 580 CURVE SMOOTH",
"956 606 OFFCURVE",
"961 622 OFFCURVE",
"958 628 CURVE SMOOTH"
);
}
);
width = 797;
}
);
note = Abreve;
unicode = 0102;
},
{
glyphname = Acircumflex;
layers = (
{
layerId = "979483E7-D034-4361-86D9-396A77A90835";
paths = (
{
closed = 1;
nodes = (
"1039 700 LINE",
"1039 708 LINE",
"1011 747 OFFCURVE",
"995 770 OFFCURVE",
"986 801 CURVE",
"982 803 LINE",
"965 800 OFFCURVE",
"815 717 OFFCURVE",
"808 706 CURVE",
"807 702 OFFCURVE",
"807 697 OFFCURVE",
"810 697 CURVE SMOOTH",
"818 697 OFFCURVE",
"913 748 OFFCURVE",
"950 769 CURVE",
"958 748 OFFCURVE",
"1009 695 OFFCURVE",
"1032 694 CURVE"
);
},
{
closed = 1;
nodes = (
"955 635 OFFCURVE",
"941 640 OFFCURVE",
"926 640 CURVE SMOOTH",
"906 640 OFFCURVE",
"887 630 OFFCURVE",
"886 613 CURVE SMOOTH",
"885 596 OFFCURVE",
"875 566 OFFCURVE",
"856 523 CURVE SMOOTH",
"837 479 OFFCURVE",
"808 418 OFFCURVE",
"771 341 CURVE SMOOTH",
"744 284 OFFCURVE",
"731 256 OFFCURVE",
"732 259 CURVE",
"644 256 LINE",
"598 254 LINE",
"611 269 LINE SMOOTH",
"724 397 OFFCURVE",
"796 481 OFFCURVE",
"864 577 CURVE",
"867 580 OFFCURVE",
"868 584 OFFCURVE",
"868 587 CURVE SMOOTH",
"868 591 OFFCURVE",
"866 593 OFFCURVE",
"862 593 CURVE SMOOTH",
"857 593 OFFCURVE",
"851 589 OFFCURVE",
"846 582 CURVE SMOOTH",
"795 511 OFFCURVE",
"749 459 OFFCURVE",
"650 352 CURVE SMOOTH",
"618 318 OFFCURVE",
"588 285 OFFCURVE",
"559 252 CURVE",
"491 247 OFFCURVE",
"448 240 OFFCURVE",
"430 231 CURVE SMOOTH",
"419 226 OFFCURVE",
"409 206 OFFCURVE",
"409 194 CURVE SMOOTH",
"409 185 OFFCURVE",
"413 183 OFFCURVE",
"420 186 CURVE SMOOTH",
"427 189 OFFCURVE",
"446 193 OFFCURVE",
"476 198 CURVE SMOOTH",
"524 205 LINE",
"452 112 OFFCURVE",
"337 5 OFFCURVE",
"215 -66 CURVE SMOOTH",
"154 -101 OFFCURVE",
"97 -122 OFFCURVE",
"45 -127 CURVE SMOOTH",
"-11 -132 OFFCURVE",
"-46 -95 OFFCURVE",
"-46 -38 CURVE SMOOTH",
"-46 -24 OFFCURVE",
"-44 -9 OFFCURVE",
"-40 6 CURVE SMOOTH",
"-11 119 OFFCURVE",
"76 267 OFFCURVE",
"190 360 CURVE SMOOTH",
"247 407 OFFCURVE",
"305 430 OFFCURVE",
"366 430 CURVE SMOOTH",
"398 430 OFFCURVE",
"414 414 OFFCURVE",
"414 382 CURVE SMOOTH",
"414 328 OFFCURVE",
"356 221 OFFCURVE",
"322 196 CURVE SMOOTH",
"313 189 OFFCURVE",
"308 181 OFFCURVE",
"308 174 CURVE SMOOTH",
"308 171 OFFCURVE",
"309 169 OFFCURVE",
"312 169 CURVE SMOOTH",
"315 169 OFFCURVE",
"318 170 OFFCURVE",
"321 173 CURVE",
"356 198 OFFCURVE",
"396 259 OFFCURVE",
"421 322 CURVE SMOOTH",
"433 353 OFFCURVE",
"439 381 OFFCURVE",
"439 405 CURVE SMOOTH",
"439 446 OFFCURVE",
"418 473 OFFCURVE",
"373 473 CURVE SMOOTH",
"254 473 OFFCURVE",
"116 354 OFFCURVE",
"20 207 CURVE SMOOTH",
"-29 133 OFFCURVE",
"-59 68 OFFCURVE",
"-71 12 CURVE SMOOTH",
"-74 -2 OFFCURVE",
"-76 -18 OFFCURVE",
"-76 -35 CURVE SMOOTH",
"-76 -106 OFFCURVE",
"-35 -150 OFFCURVE",
"36 -150 CURVE SMOOTH",
"192 -150 OFFCURVE",
"409 31 OFFCURVE",
"566 210 CURVE",
"581 212 OFFCURVE",
"603 216 OFFCURVE",
"631 221 CURVE SMOOTH",
"670 229 OFFCURVE",
"701 234 OFFCURVE",
"724 236 CURVE",
"708 200 LINE SMOOTH",
"669 116 OFFCURVE",
"643 52 OFFCURVE",
"643 3 CURVE SMOOTH",
"643 -38 OFFCURVE",
"664 -58 OFFCURVE",
"707 -55 CURVE SMOOTH",
"728 -54 OFFCURVE",
"771 -18 OFFCURVE",
"792 5 CURVE SMOOTH",
"797 10 OFFCURVE",
"800 15 OFFCURVE",
"800 18 CURVE SMOOTH",
"800 21 OFFCURVE",
"799 22 OFFCURVE",
"796 22 CURVE SMOOTH",
"791 22 OFFCURVE",
"787 19 OFFCURVE",
"782 12 CURVE SMOOTH",
"770 -4 OFFCURVE",
"732 -31 OFFCURVE",
"716 -31 CURVE SMOOTH",
"696 -31 OFFCURVE",
"686 -18 OFFCURVE",
"686 9 CURVE SMOOTH",
"686 50 OFFCURVE",
"699 97 OFFCURVE",
"724 152 CURVE SMOOTH",
"749 207 OFFCURVE",
"763 236 OFFCURVE",
"764 239 CURVE",
"845 245 LINE SMOOTH",
"856 246 OFFCURVE",
"863 253 OFFCURVE",
"863 258 CURVE SMOOTH",
"863 262 OFFCURVE",
"860 264 OFFCURVE",
"854 264 CURVE SMOOTH",
"851 264 LINE",
"774 260 LINE",
"793 301 OFFCURVE",
"824 361 OFFCURVE",
"868 440 CURVE SMOOTH",
"900 497 OFFCURVE",
"925 544 OFFCURVE",
"943 580 CURVE SMOOTH",
"956 606 OFFCURVE",
"961 622 OFFCURVE",
"958 628 CURVE SMOOTH"
);
}
);
width = 778;
}
);
note = Acircumflex;
unicode = 00C2;
},
{
glyphname = Adieresis;
layers = (
{
layerId = "979483E7-D034-4361-86D9-396A77A90835";
paths = (
{
closed = 1;
nodes = (
"900 756 OFFCURVE",
"899 757 OFFCURVE",
"897 756 CURVE SMOOTH",
"895 755 OFFCURVE",
"892 754 OFFCURVE",
"889 753 CURVE SMOOTH",
"882 750 OFFCURVE",
"866 742 OFFCURVE",
"842 729 CURVE SMOOTH",
"839 727 OFFCURVE",
"838 724 OFFCURVE",
"838 720 CURVE SMOOTH",
"838 718 OFFCURVE",
"839 713 OFFCURVE",
"841 705 CURVE SMOOTH",
"842 700 LINE SMOOTH",
"842 699 OFFCURVE",
"843 695 OFFCURVE",
"847 695 CURVE SMOOTH",
"858 695 OFFCURVE",
"865 696 OFFCURVE",
"868 698 CURVE",
"884 701 LINE",
"889 703 OFFCURVE",
"891 705 OFFCURVE",
"891 707 CURVE SMOOTH",
"891 714 OFFCURVE",
"893 725 OFFCURVE",
"896 738 CURVE SMOOTH",
"900 749 LINE SMOOTH",
"901 751 OFFCURVE",
"901 753 OFFCURVE",
"900 754 CURVE"
);
},
{
closed = 1;
nodes = (
"1009 756 OFFCURVE",
"1008 757 OFFCURVE",
"1006 756 CURVE SMOOTH",
"1004 755 OFFCURVE",
"1001 754 OFFCURVE",
"998 753 CURVE SMOOTH",
"991 750 OFFCURVE",
"975 742 OFFCURVE",
"951 729 CURVE SMOOTH",
"948 727 OFFCURVE",
"947 724 OFFCURVE",
"947 720 CURVE SMOOTH",
"947 718 OFFCURVE",
"948 713 OFFCURVE",
"950 705 CURVE",
"951 704 OFFCURVE",
"951 702 OFFCURVE",
"951 700 CURVE",
"952 697 OFFCURVE",
"954 695 OFFCURVE",
"957 695 CURVE SMOOTH",
"968 695 OFFCURVE",
"975 696 OFFCURVE",
"978 698 CURVE",
"993 701 LINE",
"998 703 OFFCURVE",
"1000 705 OFFCURVE",
"1000 707 CURVE SMOOTH",
"1000 717 OFFCURVE",
"1002 727 OFFCURVE",
"1006 738 CURVE SMOOTH",
"1009 749 LINE SMOOTH",
"1010 752 OFFCURVE",
"1010 754 OFFCURVE",
"1009 754 CURVE"
);
},
{
closed = 1;
nodes = (
"955 635 OFFCURVE",
"941 640 OFFCURVE",
"926 640 CURVE SMOOTH",
"906 640 OFFCURVE",
"887 630 OFFCURVE",
"886 613 CURVE SMOOTH",
"885 596 OFFCURVE",
"875 566 OFFCURVE",
"856 523 CURVE SMOOTH",
"837 479 OFFCURVE",
"808 418 OFFCURVE",
"771 341 CURVE SMOOTH",
"744 284 OFFCURVE",
"731 256 OFFCURVE",
"732 259 CURVE",
"644 256 LINE",
"598 254 LINE",
"611 269 LINE SMOOTH",
"724 397 OFFCURVE",
"796 481 OFFCURVE",
"864 577 CURVE",
"867 580 OFFCURVE",
"868 584 OFFCURVE",
"868 587 CURVE SMOOTH",
"868 591 OFFCURVE",
"866 593 OFFCURVE",
"862 593 CURVE SMOOTH",
"857 593 OFFCURVE",
"851 589 OFFCURVE",
"846 582 CURVE SMOOTH",
"795 511 OFFCURVE",
"749 459 OFFCURVE",
"650 352 CURVE SMOOTH",
"618 318 OFFCURVE",
"588 285 OFFCURVE",
"559 252 CURVE",
"491 247 OFFCURVE",
"448 240 OFFCURVE",
"430 231 CURVE SMOOTH",
"419 226 OFFCURVE",
"409 206 OFFCURVE",
"409 194 CURVE SMOOTH",
"409 185 OFFCURVE",
"413 183 OFFCURVE",
"420 186 CURVE SMOOTH",
"427 189 OFFCURVE",
"446 193 OFFCURVE",
"476 198 CURVE SMOOTH",
"524 205 LINE",
"452 112 OFFCURVE",
"337 5 OFFCURVE",
"215 -66 CURVE SMOOTH",
"154 -101 OFFCURVE",
"97 -122 OFFCURVE",
"45 -127 CURVE SMOOTH",
"-11 -132 OFFCURVE",
"-46 -95 OFFCURVE",
"-46 -38 CURVE SMOOTH",
"-46 -24 OFFCURVE",
"-44 -9 OFFCURVE",
"-40 6 CURVE SMOOTH",
"-11 119 OFFCURVE",
"76 267 OFFCURVE",
"190 360 CURVE SMOOTH",
"247 407 OFFCURVE",
"305 430 OFFCURVE",
"366 430 CURVE SMOOTH",
"398 430 OFFCURVE",
"414 414 OFFCURVE",
"414 382 CURVE SMOOTH",
"414 328 OFFCURVE",
"356 221 OFFCURVE",
"322 196 CURVE SMOOTH",
"313 189 OFFCURVE",
"308 181 OFFCURVE",
"308 174 CURVE SMOOTH",
"308 171 OFFCURVE",
"309 169 OFFCURVE",
"312 169 CURVE SMOOTH",
"315 169 OFFCURVE",
"318 170 OFFCURVE",
"321 173 CURVE",
"356 198 OFFCURVE",
"396 259 OFFCURVE",
"421 322 CURVE SMOOTH",
"433 353 OFFCURVE",
"439 381 OFFCURVE",
"439 405 CURVE SMOOTH",
"439 446 OFFCURVE",
"418 473 OFFCURVE",
"373 473 CURVE SMOOTH",
"254 473 OFFCURVE",
"116 354 OFFCURVE",
"20 207 CURVE SMOOTH",
"-29 133 OFFCURVE",
"-59 68 OFFCURVE",
"-71 12 CURVE SMOOTH",
"-74 -2 OFFCURVE",
"-76 -18 OFFCURVE",
"-76 -35 CURVE SMOOTH",
"-76 -106 OFFCURVE",
"-35 -150 OFFCURVE",
"36 -150 CURVE SMOOTH",
"192 -150 OFFCURVE",
"409 31 OFFCURVE",
"566 210 CURVE",
"581 212 OFFCURVE",
"603 216 OFFCURVE",
"631 221 CURVE SMOOTH",
"670 229 OFFCURVE",
"701 234 OFFCURVE",
"724 236 CURVE",
"708 200 LINE SMOOTH",
"669 116 OFFCURVE",
"643 52 OFFCURVE",
"643 3 CURVE SMOOTH",
"643 -38 OFFCURVE",
"664 -58 OFFCURVE",
"707 -55 CURVE SMOOTH",
"728 -54 OFFCURVE",
"771 -18 OFFCURVE",
"792 5 CURVE SMOOTH",
"797 10 OFFCURVE",
"800 15 OFFCURVE",
"800 18 CURVE SMOOTH",
"800 21 OFFCURVE",
"799 22 OFFCURVE",
"796 22 CURVE SMOOTH",
"791 22 OFFCURVE",
"787 19 OFFCURVE",
"782 12 CURVE SMOOTH",
"770 -4 OFFCURVE",
"732 -31 OFFCURVE",
"716 -31 CURVE SMOOTH",
"696 -31 OFFCURVE",
"686 -18 OFFCURVE",
"686 9 CURVE SMOOTH",
"686 50 OFFCURVE",
"699 97 OFFCURVE",
"724 152 CURVE SMOOTH",
"749 207 OFFCURVE",
"763 236 OFFCURVE",
"764 239 CURVE",
"845 245 LINE SMOOTH",
"856 246 OFFCURVE",
"863 253 OFFCURVE",
"863 258 CURVE SMOOTH",
"863 262 OFFCURVE",
"860 264 OFFCURVE",
"854 264 CURVE SMOOTH",
"851 264 LINE",
"774 260 LINE",
"793 301 OFFCURVE",
"824 361 OFFCURVE",
"868 440 CURVE SMOOTH",
"900 497 OFFCURVE",
"925 544 OFFCURVE",
"943 580 CURVE SMOOTH",
"956 606 OFFCURVE",
"961 622 OFFCURVE",
"958 628 CURVE SMOOTH"
);
}
);
width = 778;
}
);
note = Adieresis;
unicode = 00C4;
},
{
glyphname = Agrave;
layers = (
{
layerId = "979483E7-D034-4361-86D9-396A77A90835";
paths = (
{
closed = 1;
nodes = (
"964 706 OFFCURVE",
"904 762 OFFCURVE",
"852 797 CURVE",
"847 802 OFFCURVE",
"836 798 OFFCURVE",
"827 789 CURVE SMOOTH",
"820 782 OFFCURVE",
"816 775 OFFCURVE",
"816 770 CURVE SMOOTH",
"816 768 OFFCURVE",
"817 766 OFFCURVE",
"818 765 CURVE SMOOTH",
"865 730 OFFCURVE",
"929 697 OFFCURVE",
"957 685 CURVE"
);
},
{
closed = 1;
nodes = (
"955 635 OFFCURVE",
"941 640 OFFCURVE",
"926 640 CURVE SMOOTH",
"906 640 OFFCURVE",
"887 630 OFFCURVE",
"886 613 CURVE SMOOTH",
"885 596 OFFCURVE",
"875 566 OFFCURVE",
"856 523 CURVE SMOOTH",
"837 479 OFFCURVE",
"808 418 OFFCURVE",
"771 341 CURVE SMOOTH",
"744 284 OFFCURVE",
"731 256 OFFCURVE",
"732 259 CURVE",
"644 256 LINE",
"598 254 LINE",
"611 269 LINE SMOOTH",
"724 397 OFFCURVE",
"796 481 OFFCURVE",
"864 577 CURVE",
"867 580 OFFCURVE",
"868 584 OFFCURVE",
"868 587 CURVE SMOOTH",
"868 591 OFFCURVE",
"866 593 OFFCURVE",
"862 593 CURVE SMOOTH",
"857 593 OFFCURVE",
"851 589 OFFCURVE",
"846 582 CURVE SMOOTH",
"795 511 OFFCURVE",
"749 459 OFFCURVE",
"650 352 CURVE SMOOTH",
"618 318 OFFCURVE",
"588 285 OFFCURVE",
"559 252 CURVE",
"491 247 OFFCURVE",
"448 240 OFFCURVE",
"430 231 CURVE SMOOTH",
"419 226 OFFCURVE",
"409 206 OFFCURVE",
"409 194 CURVE SMOOTH",
"409 185 OFFCURVE",
"413 183 OFFCURVE",
"420 186 CURVE SMOOTH",
"427 189 OFFCURVE",
"446 193 OFFCURVE",
"476 198 CURVE SMOOTH",
"524 205 LINE",
"452 112 OFFCURVE",
"337 5 OFFCURVE",
"215 -66 CURVE SMOOTH",
"154 -101 OFFCURVE",
"97 -122 OFFCURVE",
"45 -127 CURVE SMOOTH",
"-11 -132 OFFCURVE",
"-46 -95 OFFCURVE",
"-46 -38 CURVE SMOOTH",
"-46 -24 OFFCURVE",
"-44 -9 OFFCURVE",
"-40 6 CURVE SMOOTH",
"-11 119 OFFCURVE",
"76 267 OFFCURVE",
"190 360 CURVE SMOOTH",
"247 407 OFFCURVE",
"305 430 OFFCURVE",
"366 430 CURVE SMOOTH",
"398 430 OFFCURVE",
"414 414 OFFCURVE",
"414 382 CURVE SMOOTH",
"414 328 OFFCURVE",
"356 221 OFFCURVE",
"322 196 CURVE SMOOTH",
"313 189 OFFCURVE",
"308 181 OFFCURVE",
"308 174 CURVE SMOOTH",
"308 171 OFFCURVE",
"309 169 OFFCURVE",
"312 169 CURVE SMOOTH",
"315 169 OFFCURVE",
"318 170 OFFCURVE",
"321 173 CURVE",
"356 198 OFFCURVE",
"396 259 OFFCURVE",
"421 322 CURVE SMOOTH",
"433 353 OFFCURVE",
"439 381 OFFCURVE",
"439 405 CURVE SMOOTH",
"439 446 OFFCURVE",
"418 473 OFFCURVE",
"373 473 CURVE SMOOTH",
"254 473 OFFCURVE",
"116 354 OFFCURVE",
"20 207 CURVE SMOOTH",
"-29 133 OFFCURVE",
"-59 68 OFFCURVE",
"-71 12 CURVE SMOOTH",
"-74 -2 OFFCURVE",
"-76 -18 OFFCURVE",
"-76 -35 CURVE SMOOTH",
"-76 -106 OFFCURVE",
"-35 -150 OFFCURVE",
"36 -150 CURVE SMOOTH",
"192 -150 OFFCURVE",
"409 31 OFFCURVE",
"566 210 CURVE",
"581 212 OFFCURVE",
"603 216 OFFCURVE",
"631 221 CURVE SMOOTH",
"670 229 OFFCURVE",
"701 234 OFFCURVE",
"724 236 CURVE",
"708 200 LINE SMOOTH",
"669 116 OFFCURVE",
"643 52 OFFCURVE",
"643 3 CURVE SMOOTH",
"643 -38 OFFCURVE",
"664 -58 OFFCURVE",
"707 -55 CURVE SMOOTH",
"728 -54 OFFCURVE",
"771 -18 OFFCURVE",
"792 5 CURVE SMOOTH",
"797 10 OFFCURVE",
"800 15 OFFCURVE",
"800 18 CURVE SMOOTH",
"800 21 OFFCURVE",
"799 22 OFFCURVE",
"796 22 CURVE SMOOTH",
"791 22 OFFCURVE",
"787 19 OFFCURVE",
"782 12 CURVE SMOOTH",
"770 -4 OFFCURVE",
"732 -31 OFFCURVE",
"716 -31 CURVE SMOOTH",
"696 -31 OFFCURVE",
"686 -18 OFFCURVE",
"686 9 CURVE SMOOTH",
"686 50 OFFCURVE",
"699 97 OFFCURVE",
"724 152 CURVE SMOOTH",
"749 207 OFFCURVE",
"763 236 OFFCURVE",
"764 239 CURVE",
"845 245 LINE SMOOTH",
"856 246 OFFCURVE",
"863 253 OFFCURVE",
"863 258 CURVE SMOOTH",
"863 262 OFFCURVE",
"860 264 OFFCURVE",
"854 264 CURVE SMOOTH",
"851 264 LINE",
"774 260 LINE",
"793 301 OFFCURVE",
"824 361 OFFCURVE",
"868 440 CURVE SMOOTH",
"900 497 OFFCURVE",
"925 544 OFFCURVE",
"943 580 CURVE SMOOTH",
"956 606 OFFCURVE",
"961 622 OFFCURVE",
"958 628 CURVE SMOOTH"
);
}
);
width = 778;
}
);
note = Agrave;
unicode = 00C0;
},
{
glyphname = Amacron;
lastChange = "2021-04-20 16:28:14 +0000";
layers = (
{
layerId = "979483E7-D034-4361-86D9-396A77A90835";
paths = (
{
closed = 1;
nodes = (
"875 713 LINE SMOOTH",
"890 714 OFFCURVE",
"910 715 OFFCURVE",
"937 718 CURVE SMOOTH",
"944 719 OFFCURVE",
"954 721 OFFCURVE",
"969 722 CURVE SMOOTH",
"993 725 OFFCURVE",
"1011 725 OFFCURVE",
"1023 725 CURVE SMOOTH",
"1031 725 OFFCURVE",
"1049 728 OFFCURVE",
"1049 733 CURVE SMOOTH",
"1049 741 OFFCURVE",
"1026 743 OFFCURVE",
"1023 743 CURVE SMOOTH",
"982 748 OFFCURVE",
"951 751 OFFCURVE",
"930 751 CURVE SMOOTH",
"911 751 OFFCURVE",
"896 749 OFFCURVE",
"885 745 CURVE SMOOTH",
"874 742 OFFCURVE",
"850 729 OFFCURVE",
"850 720 CURVE SMOOTH",
"850 715 OFFCURVE",
"857 713 OFFCURVE",
"870 713 CURVE SMOOTH"
);
},
{
closed = 1;
nodes = (
"955 635 OFFCURVE",
"941 640 OFFCURVE",
"926 640 CURVE SMOOTH",
"906 640 OFFCURVE",
"887 630 OFFCURVE",
"886 613 CURVE SMOOTH",
"885 596 OFFCURVE",
"875 566 OFFCURVE",
"856 523 CURVE SMOOTH",
"837 479 OFFCURVE",
"808 418 OFFCURVE",
"771 341 CURVE SMOOTH",
"744 284 OFFCURVE",
"731 256 OFFCURVE",
"732 259 CURVE",
"644 256 LINE",
"598 254 LINE",
"611 269 LINE SMOOTH",
"724 397 OFFCURVE",
"796 481 OFFCURVE",
"864 577 CURVE",
"867 580 OFFCURVE",
"868 584 OFFCURVE",
"868 587 CURVE SMOOTH",
"868 591 OFFCURVE",
"866 593 OFFCURVE",
"862 593 CURVE SMOOTH",
"857 593 OFFCURVE",
"851 589 OFFCURVE",
"846 582 CURVE SMOOTH",
"795 511 OFFCURVE",
"749 459 OFFCURVE",
"650 352 CURVE SMOOTH",
"618 318 OFFCURVE",
"588 285 OFFCURVE",
"559 252 CURVE",
"491 247 OFFCURVE",
"448 240 OFFCURVE",
"430 231 CURVE SMOOTH",
"419 226 OFFCURVE",
"409 206 OFFCURVE",
"409 194 CURVE SMOOTH",
"409 185 OFFCURVE",
"413 183 OFFCURVE",
"420 186 CURVE SMOOTH",
"427 189 OFFCURVE",
"446 193 OFFCURVE",
"476 198 CURVE SMOOTH",
"524 205 LINE",
"452 112 OFFCURVE",
"337 5 OFFCURVE",
"215 -66 CURVE SMOOTH",
"154 -101 OFFCURVE",
"97 -122 OFFCURVE",
"45 -127 CURVE SMOOTH",
"-11 -132 OFFCURVE",
"-46 -95 OFFCURVE",
"-46 -38 CURVE SMOOTH",
"-46 -24 OFFCURVE",
"-44 -9 OFFCURVE",
"-40 6 CURVE SMOOTH",
"-11 119 OFFCURVE",
"76 267 OFFCURVE",
"190 360 CURVE SMOOTH",
"247 407 OFFCURVE",
"305 430 OFFCURVE",
"366 430 CURVE SMOOTH",
"398 430 OFFCURVE",
"414 414 OFFCURVE",
"414 382 CURVE SMOOTH",
"414 328 OFFCURVE",
"356 221 OFFCURVE",
"322 196 CURVE SMOOTH",
"313 189 OFFCURVE",
"308 181 OFFCURVE",
"308 174 CURVE SMOOTH",
"308 171 OFFCURVE",
"309 169 OFFCURVE",
"312 169 CURVE SMOOTH",
"315 169 OFFCURVE",
"318 170 OFFCURVE",
"321 173 CURVE",
"356 198 OFFCURVE",
"396 259 OFFCURVE",
"421 322 CURVE SMOOTH",
"433 353 OFFCURVE",
"439 381 OFFCURVE",
"439 405 CURVE SMOOTH",
"439 446 OFFCURVE",
"418 473 OFFCURVE",
"373 473 CURVE SMOOTH",
"254 473 OFFCURVE",
"116 354 OFFCURVE",
"20 207 CURVE SMOOTH",
"-29 133 OFFCURVE",
"-59 68 OFFCURVE",
"-71 12 CURVE SMOOTH",
"-74 -2 OFFCURVE",
"-76 -18 OFFCURVE",
"-76 -35 CURVE SMOOTH",
"-76 -106 OFFCURVE",
"-35 -150 OFFCURVE",
"36 -150 CURVE SMOOTH",
"192 -150 OFFCURVE",
"409 31 OFFCURVE",
"566 210 CURVE",
"581 212 OFFCURVE",
"603 216 OFFCURVE",
"631 221 CURVE SMOOTH",
"670 229 OFFCURVE",
"701 234 OFFCURVE",
"724 236 CURVE",
"708 200 LINE SMOOTH",
"669 116 OFFCURVE",
"643 52 OFFCURVE",
"643 3 CURVE SMOOTH",
"643 -38 OFFCURVE",
"664 -58 OFFCURVE",
"707 -55 CURVE SMOOTH",
"728 -54 OFFCURVE",
"771 -18 OFFCURVE",
"792 5 CURVE SMOOTH",
"797 10 OFFCURVE",
"800 15 OFFCURVE",
"800 18 CURVE SMOOTH",
"800 21 OFFCURVE",
"799 22 OFFCURVE",
"796 22 CURVE SMOOTH",
"791 22 OFFCURVE",
"787 19 OFFCURVE",
"782 12 CURVE SMOOTH",
"770 -4 OFFCURVE",
"732 -31 OFFCURVE",
"716 -31 CURVE SMOOTH",
"696 -31 OFFCURVE",
"686 -18 OFFCURVE",
"686 9 CURVE SMOOTH",
"686 50 OFFCURVE",
"699 97 OFFCURVE",
"724 152 CURVE SMOOTH",
"749 207 OFFCURVE",
"763 236 OFFCURVE",
"764 239 CURVE",
"845 245 LINE SMOOTH",
"856 246 OFFCURVE",
"863 253 OFFCURVE",
"863 258 CURVE SMOOTH",
"863 262 OFFCURVE",
"860 264 OFFCURVE",
"854 264 CURVE SMOOTH",
"851 264 LINE",
"774 260 LINE",
"793 301 OFFCURVE",
"824 361 OFFCURVE",
"868 440 CURVE SMOOTH",
"900 497 OFFCURVE",
"925 544 OFFCURVE",
"943 580 CURVE SMOOTH",
"956 606 OFFCURVE",
"961 622 OFFCURVE",
"958 628 CURVE SMOOTH"
);
}
);
width = 797;
}
);
note = Amacron;
unicode = 0100;
},
{
glyphname = Aogonek;
lastChange = "2021-04-20 16:28:14 +0000";
layers = (
{
layerId = "979483E7-D034-4361-86D9-396A77A90835";
paths = (
{
closed = 1;
nodes = (
"798 -153 OFFCURVE",
"794 -149 OFFCURVE",
"787 -149 CURVE SMOOTH",
"786 -149 OFFCURVE",
"776 -153 OFFCURVE",
"758 -161 CURVE SMOOTH",
"740 -168 OFFCURVE",
"725 -172 OFFCURVE",
"712 -172 CURVE SMOOTH",
"685 -172 OFFCURVE",
"667 -158 OFFCURVE",
"667 -131 CURVE SMOOTH",
"667 -110 OFFCURVE",
"678 -79 OFFCURVE",
"693 -55 CURVE",
"707 -55 LINE SMOOTH",
"728 -54 OFFCURVE",
"771 -18 OFFCURVE",
"792 5 CURVE SMOOTH",
"797 10 OFFCURVE",
"800 15 OFFCURVE",
"800 18 CURVE SMOOTH",
"800 21 OFFCURVE",
"799 22 OFFCURVE",
"796 22 CURVE SMOOTH",
"791 22 OFFCURVE",
"787 19 OFFCURVE",
"782 12 CURVE SMOOTH",
"770 -4 OFFCURVE",
"732 -31 OFFCURVE",
"716 -31 CURVE SMOOTH",
"696 -31 OFFCURVE",
"686 -18 OFFCURVE",
"686 9 CURVE SMOOTH",
"686 50 OFFCURVE",
"699 97 OFFCURVE",
"724 152 CURVE SMOOTH",
"749 207 OFFCURVE",
"763 236 OFFCURVE",
"764 239 CURVE",
"845 245 LINE SMOOTH",
"856 246 OFFCURVE",
"863 253 OFFCURVE",
"863 258 CURVE SMOOTH",
"863 262 OFFCURVE",
"860 264 OFFCURVE",
"854 264 CURVE SMOOTH",
"851 264 LINE",
"774 260 LINE",
"793 301 OFFCURVE",
"824 361 OFFCURVE",
"868 440 CURVE SMOOTH",
"900 497 OFFCURVE",
"925 544 OFFCURVE",
"943 580 CURVE SMOOTH",
"956 606 OFFCURVE",
"961 622 OFFCURVE",
"958 628 CURVE SMOOTH",
"955 635 OFFCURVE",
"941 640 OFFCURVE",
"926 640 CURVE SMOOTH",
"906 640 OFFCURVE",
"887 630 OFFCURVE",
"886 613 CURVE SMOOTH",
"885 596 OFFCURVE",
"875 566 OFFCURVE",
"856 523 CURVE SMOOTH",
"837 479 OFFCURVE",
"808 418 OFFCURVE",
"771 341 CURVE SMOOTH",
"744 284 OFFCURVE",
"731 256 OFFCURVE",
"732 259 CURVE",
"644 256 LINE",
"598 254 LINE",
"611 269 LINE SMOOTH",
"724 397 OFFCURVE",
"796 481 OFFCURVE",
"864 577 CURVE",
"867 580 OFFCURVE",
"868 584 OFFCURVE",
"868 587 CURVE SMOOTH",
"868 591 OFFCURVE",
"866 593 OFFCURVE",
"862 593 CURVE SMOOTH",
"857 593 OFFCURVE",
"851 589 OFFCURVE",
"846 582 CURVE SMOOTH",
"795 511 OFFCURVE",
"749 459 OFFCURVE",
"650 352 CURVE SMOOTH",
"618 318 OFFCURVE",
"588 285 OFFCURVE",
"559 252 CURVE",
"491 247 OFFCURVE",
"448 240 OFFCURVE",
"430 231 CURVE SMOOTH",
"419 226 OFFCURVE",
"409 206 OFFCURVE",
"409 194 CURVE SMOOTH",
"409 185 OFFCURVE",
"413 183 OFFCURVE",
"420 186 CURVE SMOOTH",
"427 189 OFFCURVE",
"446 193 OFFCURVE",
"476 198 CURVE SMOOTH",
"524 205 LINE",
"452 112 OFFCURVE",
"337 5 OFFCURVE",
"215 -66 CURVE SMOOTH",
"154 -101 OFFCURVE",
"97 -122 OFFCURVE",
"45 -127 CURVE SMOOTH",
"-11 -132 OFFCURVE",
"-46 -95 OFFCURVE",
"-46 -38 CURVE SMOOTH",
"-46 -24 OFFCURVE",
"-44 -9 OFFCURVE",
"-40 6 CURVE SMOOTH",
"-11 119 OFFCURVE",
"76 267 OFFCURVE",
"190 360 CURVE SMOOTH",
"247 407 OFFCURVE",
"305 430 OFFCURVE",
"366 430 CURVE SMOOTH",
"398 430 OFFCURVE",
"414 414 OFFCURVE",
"414 382 CURVE SMOOTH",
"414 328 OFFCURVE",
"356 221 OFFCURVE",
"322 196 CURVE SMOOTH",
"313 189 OFFCURVE",
"308 181 OFFCURVE",
"308 174 CURVE SMOOTH",
"308 171 OFFCURVE",
"309 169 OFFCURVE",
"312 169 CURVE SMOOTH",
"315 169 OFFCURVE",
"318 170 OFFCURVE",
"321 173 CURVE",
"356 198 OFFCURVE",
"396 259 OFFCURVE",
"421 322 CURVE SMOOTH",
"433 353 OFFCURVE",
"439 381 OFFCURVE",
"439 405 CURVE SMOOTH",
"439 446 OFFCURVE",
"418 473 OFFCURVE",
"373 473 CURVE SMOOTH",
"254 473 OFFCURVE",
"116 354 OFFCURVE",
"20 207 CURVE SMOOTH",
"-29 133 OFFCURVE",
"-59 68 OFFCURVE",
"-71 12 CURVE SMOOTH",
"-74 -2 OFFCURVE",
"-76 -18 OFFCURVE",
"-76 -35 CURVE SMOOTH",
"-76 -106 OFFCURVE",
"-35 -150 OFFCURVE",
"36 -150 CURVE SMOOTH",
"192 -150 OFFCURVE",
"409 31 OFFCURVE",
"566 210 CURVE",
"581 212 OFFCURVE",
"603 216 OFFCURVE",
"631 221 CURVE SMOOTH",
"670 229 OFFCURVE",
"701 234 OFFCURVE",
"724 236 CURVE",
"707 197 LINE SMOOTH",
"668 110 OFFCURVE",
"643 51 OFFCURVE",
"643 3 CURVE SMOOTH",
"643 -27 OFFCURVE",
"654 -45 OFFCURVE",
"676 -52 CURVE",
"655 -76 OFFCURVE",
"635 -134 OFFCURVE",
"635 -158 CURVE SMOOTH",
"635 -187 OFFCURVE",
"659 -200 OFFCURVE",
"690 -200 CURVE SMOOTH",
"708 -200 OFFCURVE",
"798 -178 OFFCURVE",
"798 -158 CURVE SMOOTH"
);
}
);
width = 797;
}
);
note = Aogonek;
unicode = 0104;
},
{
glyphname = Aring;
layers = (
{
layerId = "979483E7-D034-4361-86D9-396A77A90835";
paths = (
{
closed = 1;
nodes = (
"1017 727 OFFCURVE",
"999 752 OFFCURVE",
"974 752 CURVE SMOOTH",
"954 752 OFFCURVE",
"932 738 OFFCURVE",
"923 719 CURVE",
"902 712 OFFCURVE",
"884 671 OFFCURVE",
"884 644 CURVE SMOOTH",
"884 636 OFFCURVE",
"886 629 OFFCURVE",
"889 624 CURVE",
"887 621 OFFCURVE",
"886 618 OFFCURVE",
"886 613 CURVE SMOOTH",
"885 596 OFFCURVE",
"875 566 OFFCURVE",
"856 523 CURVE SMOOTH",
"837 479 OFFCURVE",
"808 418 OFFCURVE",
"771 341 CURVE SMOOTH",
"744 284 OFFCURVE",
"731 256 OFFCURVE",
"732 259 CURVE",
"644 256 LINE",
"598 254 LINE",
"611 269 LINE SMOOTH",
"724 397 OFFCURVE",
"796 481 OFFCURVE",
"864 577 CURVE",
"867 580 OFFCURVE",
"868 584 OFFCURVE",
"868 587 CURVE SMOOTH",
"868 591 OFFCURVE",
"866 593 OFFCURVE",
"862 593 CURVE SMOOTH",
"857 593 OFFCURVE",
"851 589 OFFCURVE",
"846 582 CURVE SMOOTH",
"795 511 OFFCURVE",
"749 459 OFFCURVE",
"650 352 CURVE SMOOTH",
"618 318 OFFCURVE",
"588 285 OFFCURVE",
"559 252 CURVE",
"491 247 OFFCURVE",
"448 240 OFFCURVE",
"430 231 CURVE SMOOTH",
"419 226 OFFCURVE",
"409 206 OFFCURVE",
"409 194 CURVE SMOOTH",
"409 185 OFFCURVE",
"413 183 OFFCURVE",
"420 186 CURVE SMOOTH",
"427 189 OFFCURVE",
"446 193 OFFCURVE",
"476 198 CURVE SMOOTH",
"524 205 LINE",
"452 112 OFFCURVE",
"337 5 OFFCURVE",
"215 -66 CURVE SMOOTH",
"154 -101 OFFCURVE",
"97 -122 OFFCURVE",
"45 -127 CURVE SMOOTH",
"-11 -132 OFFCURVE",
"-46 -95 OFFCURVE",
"-46 -38 CURVE SMOOTH",
"-46 -24 OFFCURVE",
"-44 -9 OFFCURVE",
"-40 6 CURVE SMOOTH",
"-11 119 OFFCURVE",
"76 267 OFFCURVE",
"190 360 CURVE SMOOTH",
"247 407 OFFCURVE",
"305 430 OFFCURVE",
"366 430 CURVE SMOOTH",
"398 430 OFFCURVE",
"414 414 OFFCURVE",
"414 382 CURVE SMOOTH",
"414 328 OFFCURVE",
"356 221 OFFCURVE",
"322 196 CURVE SMOOTH",
"313 189 OFFCURVE",
"308 181 OFFCURVE",
"308 174 CURVE SMOOTH",
"308 171 OFFCURVE",
"309 169 OFFCURVE",
"312 169 CURVE SMOOTH",
"315 169 OFFCURVE",
"318 170 OFFCURVE",
"321 173 CURVE",
"356 198 OFFCURVE",
"396 259 OFFCURVE",
"421 322 CURVE SMOOTH",
"433 353 OFFCURVE",
"439 381 OFFCURVE",
"439 405 CURVE SMOOTH",
"439 446 OFFCURVE",
"418 473 OFFCURVE",
"373 473 CURVE SMOOTH",
"254 473 OFFCURVE",
"116 354 OFFCURVE",
"20 207 CURVE SMOOTH",
"-29 133 OFFCURVE",
"-59 68 OFFCURVE",
"-71 12 CURVE SMOOTH",
"-74 -2 OFFCURVE",
"-76 -18 OFFCURVE",
"-76 -35 CURVE SMOOTH",
"-76 -106 OFFCURVE",
"-35 -150 OFFCURVE",
"36 -150 CURVE SMOOTH",
"192 -150 OFFCURVE",
"409 31 OFFCURVE",
"566 210 CURVE",
"581 212 OFFCURVE",
"603 216 OFFCURVE",
"631 221 CURVE SMOOTH",
"670 229 OFFCURVE",
"701 234 OFFCURVE",
"724 236 CURVE",
"708 200 LINE SMOOTH",
"669 116 OFFCURVE",
"643 52 OFFCURVE",
"643 3 CURVE SMOOTH",
"643 -38 OFFCURVE",
"664 -58 OFFCURVE",
"707 -55 CURVE SMOOTH",
"728 -54 OFFCURVE",
"771 -18 OFFCURVE",
"792 5 CURVE SMOOTH",
"797 10 OFFCURVE",
"800 15 OFFCURVE",
"800 18 CURVE SMOOTH",
"800 21 OFFCURVE",
"799 22 OFFCURVE",
"796 22 CURVE SMOOTH",
"791 22 OFFCURVE",
"787 19 OFFCURVE",
"782 12 CURVE SMOOTH",
"770 -4 OFFCURVE",
"732 -31 OFFCURVE",
"716 -31 CURVE SMOOTH",
"696 -31 OFFCURVE",
"686 -18 OFFCURVE",
"686 9 CURVE SMOOTH",
"686 50 OFFCURVE",
"699 97 OFFCURVE",
"724 152 CURVE SMOOTH",
"749 207 OFFCURVE",
"763 236 OFFCURVE",
"764 239 CURVE",
"845 245 LINE SMOOTH",
"856 246 OFFCURVE",
"863 253 OFFCURVE",
"863 258 CURVE SMOOTH",
"863 262 OFFCURVE",
"860 264 OFFCURVE",
"854 264 CURVE SMOOTH",
"851 264 LINE",
"774 260 LINE",
"793 301 OFFCURVE",
"824 361 OFFCURVE",
"868 440 CURVE SMOOTH",
"900 497 OFFCURVE",
"925 544 OFFCURVE",
"943 580 CURVE SMOOTH",
"950 594 OFFCURVE",
"955 605 OFFCURVE",
"956 612 CURVE",
"992 627 OFFCURVE",
"1017 664 OFFCURVE",
"1017 700 CURVE SMOOTH"
);
},
{
closed = 1;
nodes = (
"993 673 OFFCURVE",
"978 642 OFFCURVE",
"957 630 CURVE",
"952 637 OFFCURVE",
"937 640 OFFCURVE",
"921 639 CURVE",
"921 644 LINE SMOOTH",
"921 663 OFFCURVE",
"927 674 OFFCURVE",
"938 689 CURVE SMOOTH",
"945 700 OFFCURVE",
"950 708 OFFCURVE",
"953 715 CURVE",
"942 720 LINE",
"943 721 OFFCURVE",
"958 733 OFFCURVE",
"971 733 CURVE SMOOTH",
"987 733 OFFCURVE",
"993 715 OFFCURVE",
"993 698 CURVE SMOOTH"
);
}
);
width = 797;
}
);
note = Aring;
unicode = 00C5;
},
{
glyphname = Atilde;
layers = (
{
layerId = "979483E7-D034-4361-86D9-396A77A90835";
paths = (
{
closed = 1;
nodes = (
"1031 742 OFFCURVE",
"1017 735 OFFCURVE",
"1001 735 CURVE SMOOTH",
"991 735 OFFCURVE",
"975 738 OFFCURVE",
"954 745 CURVE SMOOTH",
"935 752 OFFCURVE",
"919 756 OFFCURVE",
"906 756 CURVE SMOOTH",
"893 756 OFFCURVE",
"881 753 OFFCURVE",
"870 746 CURVE SMOOTH",
"857 739 OFFCURVE",
"827 714 OFFCURVE",
"827 705 CURVE",
"828 703 LINE",
"845 703 OFFCURVE",
"861 729 OFFCURVE",
"883 729 CURVE SMOOTH",
"893 729 OFFCURVE",
"903 727 OFFCURVE",
"914 723 CURVE SMOOTH",
"924 719 OFFCURVE",
"930 717 OFFCURVE",
"932 716 CURVE SMOOTH",
"953 707 OFFCURVE",
"966 702 OFFCURVE",
"982 702 CURVE SMOOTH",
"991 702 OFFCURVE",
"1000 705 OFFCURVE",
"1009 710 CURVE SMOOTH",
"1024 719 OFFCURVE",
"1049 743 OFFCURVE",
"1049 752 CURVE SMOOTH",
"1049 755 OFFCURVE",
"1047 756 OFFCURVE",
"1043 756 CURVE"
);
},
{
closed = 1;
nodes = (
"955 635 OFFCURVE",
"941 640 OFFCURVE",
"926 640 CURVE SMOOTH",
"906 640 OFFCURVE",
"887 630 OFFCURVE",
"886 613 CURVE SMOOTH",
"885 596 OFFCURVE",
"875 566 OFFCURVE",
"856 523 CURVE SMOOTH",
"837 479 OFFCURVE",
"808 418 OFFCURVE",
"771 341 CURVE SMOOTH",
"744 284 OFFCURVE",
"731 256 OFFCURVE",
"732 259 CURVE",
"644 256 LINE",
"598 254 LINE",
"611 269 LINE SMOOTH",
"724 397 OFFCURVE",
"796 481 OFFCURVE",
"864 577 CURVE",
"867 580 OFFCURVE",
"868 584 OFFCURVE",
"868 587 CURVE SMOOTH",
"868 591 OFFCURVE",
"866 593 OFFCURVE",
"862 593 CURVE SMOOTH",
"857 593 OFFCURVE",
"851 589 OFFCURVE",
"846 582 CURVE SMOOTH",
"795 511 OFFCURVE",
"749 459 OFFCURVE",
"650 352 CURVE SMOOTH",
"618 318 OFFCURVE",
"588 285 OFFCURVE",
"559 252 CURVE",
"491 247 OFFCURVE",
"448 240 OFFCURVE",
"430 231 CURVE SMOOTH",
"419 226 OFFCURVE",
"409 206 OFFCURVE",
"409 194 CURVE SMOOTH",
"409 185 OFFCURVE",
"413 183 OFFCURVE",
"420 186 CURVE SMOOTH",
"427 189 OFFCURVE",
"446 193 OFFCURVE",
"476 198 CURVE SMOOTH",
"524 205 LINE",
"452 112 OFFCURVE",
"337 5 OFFCURVE",
"215 -66 CURVE SMOOTH",
"154 -101 OFFCURVE",
"97 -122 OFFCURVE",
"45 -127 CURVE SMOOTH",
"-11 -132 OFFCURVE",
"-46 -95 OFFCURVE",
"-46 -38 CURVE SMOOTH",
"-46 -24 OFFCURVE",
"-44 -9 OFFCURVE",
"-40 6 CURVE SMOOTH",
"-11 119 OFFCURVE",
"76 267 OFFCURVE",
"190 360 CURVE SMOOTH",
"247 407 OFFCURVE",
"305 430 OFFCURVE",
"366 430 CURVE SMOOTH",
"398 430 OFFCURVE",
"414 414 OFFCURVE",
"414 382 CURVE SMOOTH",
"414 328 OFFCURVE",
"356 221 OFFCURVE",
"322 196 CURVE SMOOTH",
"313 189 OFFCURVE",
"308 181 OFFCURVE",
"308 174 CURVE SMOOTH",
"308 171 OFFCURVE",
"309 169 OFFCURVE",
"312 169 CURVE SMOOTH",
"315 169 OFFCURVE",
"318 170 OFFCURVE",
"321 173 CURVE",
"356 198 OFFCURVE",
"396 259 OFFCURVE",
"421 322 CURVE SMOOTH",
"433 353 OFFCURVE",
"439 381 OFFCURVE",
"439 405 CURVE SMOOTH",
"439 446 OFFCURVE",
"418 473 OFFCURVE",
"373 473 CURVE SMOOTH",
"254 473 OFFCURVE",
"116 354 OFFCURVE",
"20 207 CURVE SMOOTH",
"-29 133 OFFCURVE",
"-59 68 OFFCURVE",
"-71 12 CURVE SMOOTH",
"-74 -2 OFFCURVE",
"-76 -18 OFFCURVE",
"-76 -35 CURVE SMOOTH",
"-76 -106 OFFCURVE",
"-35 -150 OFFCURVE",
"36 -150 CURVE SMOOTH",
"192 -150 OFFCURVE",
"409 31 OFFCURVE",
"566 210 CURVE",
"581 212 OFFCURVE",
"603 216 OFFCURVE",
"631 221 CURVE SMOOTH",
"670 229 OFFCURVE",
"701 234 OFFCURVE",
"724 236 CURVE",
"708 200 LINE SMOOTH",
"669 116 OFFCURVE",
"643 52 OFFCURVE",
"643 3 CURVE SMOOTH",
"643 -38 OFFCURVE",
"664 -58 OFFCURVE",
"707 -55 CURVE SMOOTH",
"728 -54 OFFCURVE",
"771 -18 OFFCURVE",
"792 5 CURVE SMOOTH",
"797 10 OFFCURVE",
"800 15 OFFCURVE",
"800 18 CURVE SMOOTH",
"800 21 OFFCURVE",
"799 22 OFFCURVE",
"796 22 CURVE SMOOTH",
"791 22 OFFCURVE",
"787 19 OFFCURVE",
"782 12 CURVE SMOOTH",
"770 -4 OFFCURVE",
"732 -31 OFFCURVE",
"716 -31 CURVE SMOOTH",
"696 -31 OFFCURVE",
"686 -18 OFFCURVE",
"686 9 CURVE SMOOTH",
"686 50 OFFCURVE",
"699 97 OFFCURVE",
"724 152 CURVE SMOOTH",
"749 207 OFFCURVE",
"763 236 OFFCURVE",
"764 239 CURVE",
"845 245 LINE SMOOTH",
"856 246 OFFCURVE",
"863 253 OFFCURVE",
"863 258 CURVE SMOOTH",
"863 262 OFFCURVE",
"860 264 OFFCURVE",
"854 264 CURVE SMOOTH",
"851 264 LINE",
"774 260 LINE",
"793 301 OFFCURVE",
"824 361 OFFCURVE",
"868 440 CURVE SMOOTH",
"900 497 OFFCURVE",
"925 544 OFFCURVE",
"943 580 CURVE SMOOTH",
"956 606 OFFCURVE",
"961 622 OFFCURVE",
"958 628 CURVE SMOOTH"
);
}
);
width = 778;
}
);
note = Atilde;
unicode = 00C3;
},
{
glyphname = AE;
layers = (
{
layerId = "979483E7-D034-4361-86D9-396A77A90835";
paths = (
{
closed = 1;
nodes = (
"1332 549 OFFCURVE",
"1333 554 OFFCURVE",
"1333 561 CURVE SMOOTH",
"1333 594 OFFCURVE",
"1292 616 OFFCURVE",
"1251 616 CURVE SMOOTH",
"1124 616 OFFCURVE",
"984 550 OFFCURVE",
"868 441 CURVE",
"903 502 OFFCURVE",
"928 549 OFFCURVE",
"943 580 CURVE SMOOTH",
"956 606 OFFCURVE",
"961 622 OFFCURVE",
"958 628 CURVE SMOOTH",
"955 635 OFFCURVE",
"941 640 OFFCURVE",
"926 640 CURVE SMOOTH",
"906 640 OFFCURVE",
"887 630 OFFCURVE",
"886 613 CURVE SMOOTH",
"885 595 OFFCURVE",
"873 562 OFFCURVE",
"851 513 CURVE SMOOTH",
"829 464 OFFCURVE",
"800 403 OFFCURVE",
"764 329 CURVE SMOOTH",
"751 302 LINE",
"725 259 LINE",
"641 256 LINE",
"598 254 LINE",
"611 269 LINE SMOOTH",
"724 397 OFFCURVE",
"796 481 OFFCURVE",
"864 577 CURVE",
"867 580 OFFCURVE",
"868 584 OFFCURVE",
"868 587 CURVE SMOOTH",
"868 591 OFFCURVE",
"866 593 OFFCURVE",
"862 593 CURVE SMOOTH",
"857 593 OFFCURVE",
"851 589 OFFCURVE",
"846 582 CURVE SMOOTH",
"795 511 OFFCURVE",
"749 459 OFFCURVE",
"650 352 CURVE SMOOTH",
"618 318 OFFCURVE",
"588 285 OFFCURVE",
"559 252 CURVE",
"491 247 OFFCURVE",
"448 240 OFFCURVE",
"430 231 CURVE SMOOTH",
"419 226 OFFCURVE",
"409 206 OFFCURVE",
"409 194 CURVE SMOOTH",
"409 185 OFFCURVE",
"413 183 OFFCURVE",
"420 186 CURVE SMOOTH",
"427 189 OFFCURVE",
"446 193 OFFCURVE",
"476 198 CURVE SMOOTH",
"524 205 LINE",
"452 112 OFFCURVE",
"337 5 OFFCURVE",
"215 -66 CURVE SMOOTH",
"154 -101 OFFCURVE",
"97 -122 OFFCURVE",
"45 -127 CURVE SMOOTH",
"-11 -132 OFFCURVE",
"-46 -95 OFFCURVE",
"-46 -38 CURVE SMOOTH",
"-46 -24 OFFCURVE",
"-44 -9 OFFCURVE",
"-40 6 CURVE SMOOTH",
"-11 119 OFFCURVE",
"76 267 OFFCURVE",
"190 360 CURVE SMOOTH",
"247 407 OFFCURVE",
"305 430 OFFCURVE",
"366 430 CURVE SMOOTH",
"398 430 OFFCURVE",
"414 414 OFFCURVE",
"414 382 CURVE SMOOTH",
"414 328 OFFCURVE",
"356 221 OFFCURVE",
"322 196 CURVE SMOOTH",
"313 189 OFFCURVE",
"308 181 OFFCURVE",
"308 174 CURVE SMOOTH",
"308 171 OFFCURVE",
"309 169 OFFCURVE",
"312 169 CURVE SMOOTH",
"315 169 OFFCURVE",
"318 170 OFFCURVE",
"321 173 CURVE",
"356 198 OFFCURVE",
"396 259 OFFCURVE",
"421 322 CURVE SMOOTH",
"433 353 OFFCURVE",
"439 381 OFFCURVE",
"439 405 CURVE SMOOTH",
"439 446 OFFCURVE",
"418 473 OFFCURVE",
"373 473 CURVE SMOOTH",
"254 473 OFFCURVE",
"116 354 OFFCURVE",
"20 207 CURVE SMOOTH",
"-29 133 OFFCURVE",
"-59 68 OFFCURVE",
"-71 12 CURVE SMOOTH",
"-74 -2 OFFCURVE",
"-76 -18 OFFCURVE",
"-76 -35 CURVE SMOOTH",
"-76 -106 OFFCURVE",
"-35 -150 OFFCURVE",
"36 -150 CURVE SMOOTH",
"192 -150 OFFCURVE",
"409 31 OFFCURVE",
"566 210 CURVE",
"579 212 OFFCURVE",
"601 216 OFFCURVE",
"632 221 CURVE SMOOTH",
"665 228 OFFCURVE",
"691 232 OFFCURVE",
"712 234 CURVE",
"694 199 OFFCURVE",
"679 162 OFFCURVE",
"666 123 CURVE SMOOTH",
"659 100 OFFCURVE",
"655 76 OFFCURVE",
"655 51 CURVE SMOOTH",
"655 -18 OFFCURVE",
"691 -68 OFFCURVE",
"752 -68 CURVE SMOOTH",
"832 -68 OFFCURVE",
"947 -28 OFFCURVE",
"1046 29 CURVE SMOOTH",
"1095 57 OFFCURVE",
"1134 85 OFFCURVE",
"1161 112 CURVE SMOOTH",
"1166 117 OFFCURVE",
"1169 122 OFFCURVE",
"1169 125 CURVE",
"1168 128 LINE",
"1163 131 OFFCURVE",
"1157 129 OFFCURVE",
"1149 121 CURVE SMOOTH",
"1098 70 OFFCURVE",
"1000 16 OFFCURVE",
"902 -16 CURVE SMOOTH",
"853 -31 OFFCURVE",
"809 -39 OFFCURVE",
"772 -39 CURVE SMOOTH",
"724 -39 OFFCURVE",
"699 -6 OFFCURVE",
"699 46 CURVE SMOOTH",
"699 67 OFFCURVE",
"703 89 OFFCURVE",
"711 113 CURVE SMOOTH",
"726 161 OFFCURVE",
"737 186 OFFCURVE",
"764 230 CURVE",
"809 259 OFFCURVE",
"896 289 OFFCURVE",
"953 296 CURVE SMOOTH",
"1010 303 OFFCURVE",
"1055 307 OFFCURVE",
"1086 307 CURVE SMOOTH",
"1138 307 OFFCURVE",
"1174 299 OFFCURVE",
"1195 283 CURVE SMOOTH",
"1199 280 OFFCURVE",
"1204 278 OFFCURVE",
"1209 278 CURVE SMOOTH",
"1212 278 OFFCURVE",
"1214 278 OFFCURVE",
"1215 279 CURVE SMOOTH",
"1220 282 OFFCURVE",
"1220 286 OFFCURVE",
"1215 290 CURVE SMOOTH",
"1183 317 OFFCURVE",
"1118 329 OFFCURVE",
"1037 329 CURVE SMOOTH",
"1006 329 OFFCURVE",
"979 328 OFFCURVE",
"954 325 CURVE SMOOTH",
"875 316 LINE SMOOTH",
"870 315 OFFCURVE",
"860 313 OFFCURVE",
"847 311 CURVE SMOOTH",
"833 308 OFFCURVE",
"816 302 OFFCURVE",
"796 293 CURVE",
"924 473 OFFCURVE",
"1094 587 OFFCURVE",
"1242 587 CURVE SMOOTH",
"1283 587 OFFCURVE",
"1321 578 OFFCURVE",
"1312 550 CURVE SMOOTH",
"1303 523 OFFCURVE",
"1290 509 OFFCURVE",
"1265 488 CURVE SMOOTH",
"1258 483 OFFCURVE",
"1253 478 OFFCURVE",
"1250 475 CURVE",
"1245 466 OFFCURVE",
"1243 458 OFFCURVE",
"1243 453 CURVE SMOOTH",
"1243 445 OFFCURVE",
"1247 441 OFFCURVE",
"1255 441 CURVE SMOOTH",
"1264 441 OFFCURVE",
"1273 445 OFFCURVE",
"1280 452 CURVE SMOOTH",
"1304 476 OFFCURVE",
"1315 497 OFFCURVE",
"1331 546 CURVE SMOOTH"
);
}
);
width = 1136;
}
);
note = AE;
unicode = 00C6;
},
{
glyphname = B;
layers = (
{
layerId = "979483E7-D034-4361-86D9-396A77A90835";
paths = (
{
closed = 1;
nodes = (
"731 490 OFFCURVE",
"733 503 OFFCURVE",
"733 514 CURVE SMOOTH",
"733 574 OFFCURVE",
"680 601 OFFCURVE",
"593 601 CURVE SMOOTH",
"465 601 OFFCURVE",
"273 540 OFFCURVE",
"154 461 CURVE SMOOTH",
"94 422 OFFCURVE",
"64 385 OFFCURVE",
"65 351 CURVE SMOOTH",
"65 343 OFFCURVE",
"70 338 OFFCURVE",
"77 338 CURVE SMOOTH",
"86 338 OFFCURVE",
"96 345 OFFCURVE",
"97 357 CURVE SMOOTH",
"102 414 OFFCURVE",
"227 490 OFFCURVE",
"375 537 CURVE SMOOTH",
"448 560 OFFCURVE",
"513 572 OFFCURVE",
"569 572 CURVE SMOOTH",
"642 572 OFFCURVE",
"689 548 OFFCURVE",
"689 496 CURVE SMOOTH",
"689 488 OFFCURVE",
"687 477 OFFCURVE",
"684 464 CURVE SMOOTH",
"665 397 OFFCURVE",
"574 307 OFFCURVE",
"502 271 CURVE",
"482 278 OFFCURVE",
"460 282 OFFCURVE",
"435 282 CURVE SMOOTH",
"400 282 OFFCURVE",
"363 275 OFFCURVE",
"326 262 CURVE SMOOTH",
"295 252 OFFCURVE",
"223 204 OFFCURVE",
"223 177 CURVE SMOOTH",
"223 166 OFFCURVE",
"233 159 OFFCURVE",
"253 155 CURVE SMOOTH",
"277 150 OFFCURVE",
"400 198 OFFCURVE",
"497 249 CURVE",
"522 237 OFFCURVE",
"535 220 OFFCURVE",
"535 199 CURVE SMOOTH",
"535 143 OFFCURVE",
"444 58 OFFCURVE",
"348 2 CURVE SMOOTH",
"299 -27 OFFCURVE",
"263 -41 OFFCURVE",
"240 -41 CURVE SMOOTH",
"211 -41 OFFCURVE",
"222 -21 OFFCURVE",
"275 18 CURVE SMOOTH",
"318 49 OFFCURVE",
"375 78 OFFCURVE",
"431 93 CURVE SMOOTH",
"439 95 OFFCURVE",
"443 98 OFFCURVE",
"443 101 CURVE SMOOTH",
"443 104 OFFCURVE",
"439 106 OFFCURVE",
"431 106 CURVE SMOOTH",
"424 106 OFFCURVE",
"416 104 OFFCURVE",
"407 101 CURVE SMOOTH",
"318 72 OFFCURVE",
"244 30 OFFCURVE",
"213 -3 CURVE SMOOTH",
"196 -22 OFFCURVE",
"188 -37 OFFCURVE",
"188 -50 CURVE SMOOTH",
"188 -63 OFFCURVE",
"196 -69 OFFCURVE",
"212 -69 CURVE SMOOTH",
"269 -69 OFFCURVE",
"412 -7 OFFCURVE",
"506 70 CURVE SMOOTH",
"553 109 OFFCURVE",
"576 146 OFFCURVE",
"576 183 CURVE SMOOTH",
"576 213 OFFCURVE",
"557 240 OFFCURVE",
"520 264 CURVE",
"612 312 OFFCURVE",
"704 393 OFFCURVE",
"727 476 CURVE SMOOTH"
);
},
{
closed = 1;
nodes = (
"422 480 OFFCURVE",
"424 483 OFFCURVE",
"424 485 CURVE SMOOTH",
"424 494 OFFCURVE",
"405 506 OFFCURVE",
"388 506 CURVE SMOOTH",
"381 506 OFFCURVE",
"375 504 OFFCURVE",
"372 501 CURVE SMOOTH",
"371 500 OFFCURVE",
"365 496 OFFCURVE",
"355 488 CURVE SMOOTH",
"344 480 OFFCURVE",
"335 469 OFFCURVE",
"327 455 CURVE SMOOTH",
"322 446 OFFCURVE",
"320 441 OFFCURVE",
"320 438 CURVE SMOOTH",
"320 435 OFFCURVE",
"322 433 OFFCURVE",
"325 433 CURVE SMOOTH",
"331 434 LINE",
"236 325 OFFCURVE",
"124 152 OFFCURVE",
"111 60 CURVE SMOOTH",
"108 39 OFFCURVE",
"107 25 OFFCURVE",
"107 19 CURVE SMOOTH",
"107 -14 OFFCURVE",
"119 -30 OFFCURVE",
"154 -37 CURVE SMOOTH",
"162 -38 OFFCURVE",
"168 -34 OFFCURVE",
"168 -27 CURVE SMOOTH",
"168 -20 OFFCURVE",
"163 -13 OFFCURVE",
"155 -12 CURVE SMOOTH",
"144 -9 OFFCURVE",
"138 0 OFFCURVE",
"138 15 CURVE SMOOTH",
"138 22 OFFCURVE",
"139 31 OFFCURVE",
"142 41 CURVE SMOOTH",
"144 51 OFFCURVE",
"145 58 OFFCURVE",
"146 61 CURVE SMOOTH",
"151 81 LINE",
"159 136 OFFCURVE",
"232 253 OFFCURVE",
"315 360 CURVE SMOOTH",
"356 413 OFFCURVE",
"391 452 OFFCURVE",
"419 477 CURVE SMOOTH"
);
},
{
closed = 1;
nodes = (
"430 232 OFFCURVE",
"388 213 OFFCURVE",
"351 198 CURVE SMOOTH",
"313 183 OFFCURVE",
"291 178 OFFCURVE",
"284 183 CURVE SMOOTH",
"280 186 OFFCURVE",
"278 189 OFFCURVE",
"278 193 CURVE SMOOTH",
"278 201 OFFCURVE",
"285 209 OFFCURVE",
"299 216 CURVE SMOOTH",
"313 223 OFFCURVE",
"331 232 OFFCURVE",
"353 242 CURVE",
"354 242 LINE",
"381 254 OFFCURVE",
"409 260 OFFCURVE",
"436 260 CURVE SMOOTH",
"451 260 OFFCURVE",
"465 259 OFFCURVE",
"476 256 CURVE"
);
}
);
width = 572;
}
);
note = B;
unicode = 0042;
},
{
glyphname = C;
layers = (
{
layerId = "979483E7-D034-4361-86D9-396A77A90835";
paths = (
{
closed = 1;
nodes = (
"641 513 OFFCURVE",
"644 526 OFFCURVE",
"644 540 CURVE SMOOTH",
"644 588 OFFCURVE",
"604 622 OFFCURVE",
"560 629 CURVE SMOOTH",
"548 630 OFFCURVE",
"539 631 OFFCURVE",
"532 631 CURVE SMOOTH",
"424 631 OFFCURVE",
"285 553 OFFCURVE",
"171 410 CURVE SMOOTH",
"114 338 OFFCURVE",
"70 254 OFFCURVE",
"39 158 CURVE SMOOTH",
"28 121 OFFCURVE",
"22 89 OFFCURVE",
"22 62 CURVE SMOOTH",
"22 -23 OFFCURVE",
"74 -71 OFFCURVE",
"175 -67 CURVE SMOOTH",
"252 -64 OFFCURVE",
"367 6 OFFCURVE",
"468 96 CURVE SMOOTH",
"518 141 OFFCURVE",
"559 184 OFFCURVE",
"591 227 CURVE SMOOTH",
"596 234 OFFCURVE",
"599 241 OFFCURVE",
"599 248 CURVE SMOOTH",
"599 251 OFFCURVE",
"598 252 OFFCURVE",
"596 252 CURVE SMOOTH",
"593 252 OFFCURVE",
"588 249 OFFCURVE",
"583 244 CURVE",
"522 164 OFFCURVE",
"416 69 OFFCURVE",
"315 10 CURVE SMOOTH",
"264 -20 OFFCURVE",
"221 -36 OFFCURVE",
"184 -37 CURVE SMOOTH",
"108 -40 OFFCURVE",
"64 1 OFFCURVE",
"64 76 CURVE SMOOTH",
"64 103 OFFCURVE",
"69 130 OFFCURVE",
"78 158 CURVE SMOOTH",
"123 302 OFFCURVE",
"254 450 OFFCURVE",
"386 536 CURVE SMOOTH",
"451 579 OFFCURVE",
"504 600 OFFCURVE",
"545 600 CURVE SMOOTH",
"578 600 OFFCURVE",
"603 581 OFFCURVE",
"603 548 CURVE SMOOTH",
"603 535 OFFCURVE",
"600 523 OFFCURVE",
"595 510 CURVE SMOOTH",
"558 415 OFFCURVE",
"475 329 OFFCURVE",
"360 306 CURVE SMOOTH",
"347 303 OFFCURVE",
"337 312 OFFCURVE",
"337 328 CURVE SMOOTH",
"337 349 OFFCURVE",
"349 375 OFFCURVE",
"374 408 CURVE SMOOTH",
"380 416 OFFCURVE",
"384 422 OFFCURVE",
"385 427 CURVE SMOOTH",
"385 432 OFFCURVE",
"383 435 OFFCURVE",
"379 436 CURVE",
"374 436 OFFCURVE",
"362 428 OFFCURVE",
"354 417 CURVE SMOOTH",
"319 374 OFFCURVE",
"302 339 OFFCURVE",
"302 314 CURVE SMOOTH",
"302 293 OFFCURVE",
"314 282 OFFCURVE",
"337 282 CURVE SMOOTH",
"344 282 OFFCURVE",
"354 284 OFFCURVE",
"366 287 CURVE SMOOTH",
"451 311 OFFCURVE",
"534 369 OFFCURVE",
"586 428 CURVE SMOOTH",
"612 457 OFFCURVE",
"629 481 OFFCURVE",
"636 500 CURVE SMOOTH"
);
}
);
width = 535;
}
);
note = C;
unicode = 0043;
},
{
glyphname = Cacute;
lastChange = "2021-04-20 16:28:14 +0000";
layers = (
{
layerId = "979483E7-D034-4361-86D9-396A77A90835";
paths = (
{
closed = 1;
nodes = (
"691 778 OFFCURVE",
"670 810 OFFCURVE",
"658 802 CURVE",
"631 788 OFFCURVE",
"604 765 OFFCURVE",
"575 732 CURVE SMOOTH",
"563 720 OFFCURVE",
"554 709 OFFCURVE",
"547 699 CURVE SMOOTH",
"545 696 OFFCURVE",
"543 694 OFFCURVE",
"541 691 CURVE SMOOTH",
"539 688 OFFCURVE",
"538 687 OFFCURVE",
"539 686 CURVE",
"543 684 OFFCURVE",
"560 692 OFFCURVE",
"590 709 CURVE SMOOTH",
"620 726 OFFCURVE",
"651 747 OFFCURVE",
"682 771 CURVE SMOOTH"
);
},
{
closed = 1;
nodes = (
"641 513 OFFCURVE",
"644 526 OFFCURVE",
"644 540 CURVE SMOOTH",
"644 588 OFFCURVE",
"604 622 OFFCURVE",
"560 629 CURVE SMOOTH",
"548 630 OFFCURVE",
"539 631 OFFCURVE",
"532 631 CURVE SMOOTH",
"424 631 OFFCURVE",
"285 553 OFFCURVE",
"171 410 CURVE SMOOTH",
"114 338 OFFCURVE",
"70 254 OFFCURVE",
"39 158 CURVE SMOOTH",
"28 121 OFFCURVE",
"22 89 OFFCURVE",
"22 62 CURVE SMOOTH",
"22 -23 OFFCURVE",
"74 -71 OFFCURVE",
"175 -67 CURVE SMOOTH",
"252 -64 OFFCURVE",
"371 16 OFFCURVE",
"480 122 CURVE SMOOTH",
"534 175 OFFCURVE",
"579 226 OFFCURVE",
"616 277 CURVE SMOOTH",
"623 286 OFFCURVE",
"626 292 OFFCURVE",
"626 297 CURVE SMOOTH",
"626 298 OFFCURVE",
"625 299 OFFCURVE",
"624 299 CURVE SMOOTH",
"621 299 OFFCURVE",
"615 295 OFFCURVE",
"607 287 CURVE",
"538 192 OFFCURVE",
"425 83 OFFCURVE",
"319 16 CURVE SMOOTH",
"266 -18 OFFCURVE",
"221 -36 OFFCURVE",
"184 -37 CURVE SMOOTH",
"108 -40 OFFCURVE",
"64 1 OFFCURVE",
"64 76 CURVE SMOOTH",
"64 103 OFFCURVE",
"69 130 OFFCURVE",
"78 158 CURVE SMOOTH",
"123 302 OFFCURVE",
"254 450 OFFCURVE",
"386 536 CURVE SMOOTH",
"451 579 OFFCURVE",
"504 600 OFFCURVE",
"545 600 CURVE SMOOTH",
"578 600 OFFCURVE",
"603 581 OFFCURVE",
"603 548 CURVE SMOOTH",
"603 535 OFFCURVE",
"600 523 OFFCURVE",
"595 510 CURVE SMOOTH",
"558 415 OFFCURVE",
"475 329 OFFCURVE",
"360 306 CURVE SMOOTH",
"347 303 OFFCURVE",
"337 312 OFFCURVE",
"337 328 CURVE SMOOTH",
"337 349 OFFCURVE",
"349 375 OFFCURVE",
"374 408 CURVE SMOOTH",
"380 416 OFFCURVE",
"384 422 OFFCURVE",
"385 427 CURVE SMOOTH",
"385 432 OFFCURVE",
"383 435 OFFCURVE",
"379 436 CURVE",
"374 436 OFFCURVE",
"362 428 OFFCURVE",
"354 417 CURVE SMOOTH",
"319 374 OFFCURVE",
"302 339 OFFCURVE",
"302 314 CURVE SMOOTH",
"302 293 OFFCURVE",
"314 282 OFFCURVE",
"337 282 CURVE SMOOTH",
"344 282 OFFCURVE",
"354 284 OFFCURVE",
"366 287 CURVE SMOOTH",
"451 311 OFFCURVE",
"534 369 OFFCURVE",
"586 428 CURVE SMOOTH",
"612 457 OFFCURVE",
"629 481 OFFCURVE",
"636 500 CURVE SMOOTH"
);
}
);
width = 535;
}
);
note = Cacute;
unicode = 0106;
},
{
glyphname = Ccaron;
lastChange = "2021-04-20 16:28:14 +0000";
layers = (
{
layerId = "979483E7-D034-4361-86D9-396A77A90835";
paths = (
{
closed = 1;
nodes = (
"694 791 LINE",
"699 800 LINE",
"696 806 LINE",
"673 805 OFFCURVE",
"591 750 OFFCURVE",
"572 727 CURVE",
"556 742 OFFCURVE",
"477 800 OFFCURVE",
"470 800 CURVE SMOOTH",
"466 800 OFFCURVE",
"464 795 OFFCURVE",
"464 791 CURVE SMOOTH",
"464 780 OFFCURVE",
"561 695 OFFCURVE",
"576 692 CURVE",
"581 695 LINE",
"601 719 OFFCURVE",
"632 746 OFFCURVE",
"675 776 CURVE SMOOTH"
);
},
{
closed = 1;
nodes = (
"641 513 OFFCURVE",
"644 526 OFFCURVE",
"644 540 CURVE SMOOTH",
"644 588 OFFCURVE",
"604 622 OFFCURVE",
"560 629 CURVE SMOOTH",
"548 630 OFFCURVE",
"539 631 OFFCURVE",
"532 631 CURVE SMOOTH",
"424 631 OFFCURVE",
"285 553 OFFCURVE",
"171 410 CURVE SMOOTH",
"114 338 OFFCURVE",
"70 254 OFFCURVE",
"39 158 CURVE SMOOTH",
"28 121 OFFCURVE",
"22 89 OFFCURVE",
"22 62 CURVE SMOOTH",
"22 -23 OFFCURVE",
"74 -71 OFFCURVE",
"175 -67 CURVE SMOOTH",
"252 -64 OFFCURVE",
"371 16 OFFCURVE",
"480 122 CURVE SMOOTH",
"534 175 OFFCURVE",
"579 226 OFFCURVE",
"616 277 CURVE SMOOTH",
"623 286 OFFCURVE",
"626 292 OFFCURVE",
"626 297 CURVE SMOOTH",
"626 298 OFFCURVE",
"625 299 OFFCURVE",
"624 299 CURVE SMOOTH",
"621 299 OFFCURVE",
"615 295 OFFCURVE",
"607 287 CURVE",
"538 192 OFFCURVE",
"425 83 OFFCURVE",
"319 16 CURVE SMOOTH",
"266 -18 OFFCURVE",
"221 -36 OFFCURVE",
"184 -37 CURVE SMOOTH",
"108 -40 OFFCURVE",
"64 1 OFFCURVE",
"64 76 CURVE SMOOTH",
"64 103 OFFCURVE",
"69 130 OFFCURVE",
"78 158 CURVE SMOOTH",
"123 302 OFFCURVE",
"254 450 OFFCURVE",
"386 536 CURVE SMOOTH",
"451 579 OFFCURVE",
"504 600 OFFCURVE",
"545 600 CURVE SMOOTH",
"578 600 OFFCURVE",
"603 581 OFFCURVE",
"603 548 CURVE SMOOTH",
"603 535 OFFCURVE",
"600 523 OFFCURVE",
"595 510 CURVE SMOOTH",
"558 415 OFFCURVE",
"475 329 OFFCURVE",
"360 306 CURVE SMOOTH",
"347 303 OFFCURVE",
"337 312 OFFCURVE",
"337 328 CURVE SMOOTH",
"337 349 OFFCURVE",
"349 375 OFFCURVE",
"374 408 CURVE SMOOTH",
"380 416 OFFCURVE",
"384 422 OFFCURVE",
"385 427 CURVE SMOOTH",
"385 432 OFFCURVE",
"383 435 OFFCURVE",
"379 436 CURVE",
"374 436 OFFCURVE",
"362 428 OFFCURVE",
"354 417 CURVE SMOOTH",
"319 374 OFFCURVE",
"302 339 OFFCURVE",
"302 314 CURVE SMOOTH",
"302 293 OFFCURVE",
"314 282 OFFCURVE",
"337 282 CURVE SMOOTH",
"344 282 OFFCURVE",
"354 284 OFFCURVE",
"366 287 CURVE SMOOTH",
"451 311 OFFCURVE",
"534 369 OFFCURVE",
"586 428 CURVE SMOOTH",
"612 457 OFFCURVE",
"629 481 OFFCURVE",
"636 500 CURVE SMOOTH"
);
}
);
width = 535;
}
);
note = Ccaron;
unicode = 010C;
},
{
glyphname = Ccedilla;
layers = (
{
layerId = "979483E7-D034-4361-86D9-396A77A90835";
paths = (
{
closed = 1;
nodes = (
"208 -200 OFFCURVE",
"196 -181 OFFCURVE",
"173 -153 CURVE SMOOTH",
"157 -133 OFFCURVE",
"150 -124 OFFCURVE",
"150 -112 CURVE SMOOTH",
"150 -94 OFFCURVE",
"155 -79 OFFCURVE",
"165 -67 CURVE",
"175 -67 LINE SMOOTH",
"252 -64 OFFCURVE",
"371 16 OFFCURVE",
"480 122 CURVE SMOOTH",
"534 175 OFFCURVE",
"579 226 OFFCURVE",
"616 277 CURVE SMOOTH",
"623 286 OFFCURVE",
"626 292 OFFCURVE",
"626 297 CURVE SMOOTH",
"626 298 OFFCURVE",
"625 299 OFFCURVE",
"624 299 CURVE SMOOTH",
"621 299 OFFCURVE",
"615 295 OFFCURVE",
"607 287 CURVE",
"538 192 OFFCURVE",
"425 83 OFFCURVE",
"319 16 CURVE SMOOTH",
"266 -18 OFFCURVE",
"221 -36 OFFCURVE",
"184 -37 CURVE SMOOTH",
"108 -40 OFFCURVE",
"64 1 OFFCURVE",
"64 76 CURVE SMOOTH",
"64 103 OFFCURVE",
"69 130 OFFCURVE",
"78 158 CURVE SMOOTH",
"123 302 OFFCURVE",
"254 450 OFFCURVE",
"386 536 CURVE SMOOTH",
"451 579 OFFCURVE",
"504 600 OFFCURVE",
"545 600 CURVE SMOOTH",
"578 600 OFFCURVE",
"603 581 OFFCURVE",
"603 548 CURVE SMOOTH",
"603 535 OFFCURVE",
"600 523 OFFCURVE",
"595 510 CURVE SMOOTH",
"558 415 OFFCURVE",
"475 329 OFFCURVE",
"360 306 CURVE SMOOTH",
"347 303 OFFCURVE",
"337 312 OFFCURVE",
"337 328 CURVE SMOOTH",
"337 349 OFFCURVE",
"349 375 OFFCURVE",
"374 408 CURVE SMOOTH",
"380 416 OFFCURVE",
"384 422 OFFCURVE",
"385 427 CURVE SMOOTH",
"385 432 OFFCURVE",
"383 435 OFFCURVE",
"379 436 CURVE",
"374 436 OFFCURVE",
"362 428 OFFCURVE",
"354 417 CURVE SMOOTH",
"319 374 OFFCURVE",
"302 339 OFFCURVE",
"302 314 CURVE SMOOTH",
"302 293 OFFCURVE",
"314 282 OFFCURVE",
"337 282 CURVE SMOOTH",
"344 282 OFFCURVE",
"354 284 OFFCURVE",
"366 287 CURVE SMOOTH",
"451 311 OFFCURVE",
"534 369 OFFCURVE",
"586 428 CURVE SMOOTH",
"612 457 OFFCURVE",
"629 481 OFFCURVE",
"636 500 CURVE SMOOTH",
"641 513 OFFCURVE",
"644 526 OFFCURVE",
"644 540 CURVE SMOOTH",
"644 588 OFFCURVE",
"604 622 OFFCURVE",
"560 629 CURVE SMOOTH",
"548 630 OFFCURVE",
"539 631 OFFCURVE",
"532 631 CURVE SMOOTH",
"424 631 OFFCURVE",
"285 553 OFFCURVE",
"171 410 CURVE SMOOTH",
"114 338 OFFCURVE",
"70 254 OFFCURVE",
"39 158 CURVE SMOOTH",
"28 121 OFFCURVE",
"22 88 OFFCURVE",
"22 61 CURVE SMOOTH",
"22 -12 OFFCURVE",
"60 -56 OFFCURVE",
"135 -65 CURVE",
"121 -82 OFFCURVE",
"114 -104 OFFCURVE",
"114 -129 CURVE SMOOTH",
"114 -146 OFFCURVE",
"123 -161 OFFCURVE",
"142 -189 CURVE SMOOTH",
"159 -213 OFFCURVE",
"166 -224 OFFCURVE",
"166 -236 CURVE SMOOTH",
"166 -288 OFFCURVE",
"144 -295 OFFCURVE",
"100 -299 CURVE SMOOTH",
"82 -300 OFFCURVE",
"68 -302 OFFCURVE",
"59 -305 CURVE SMOOTH",
"53 -307 OFFCURVE",
"50 -310 OFFCURVE",
"50 -313 CURVE SMOOTH",
"50 -318 OFFCURVE",
"54 -324 OFFCURVE",
"59 -324 CURVE SMOOTH",
"125 -324 OFFCURVE",
"208 -290 OFFCURVE",
"208 -225 CURVE SMOOTH"
);
}
);
width = 632;
}
);
note = Ccedilla;
unicode = 00C7;
},
{
glyphname = Ccircumflex;
lastChange = "2021-04-20 16:28:14 +0000";
layers = (
{
layerId = "979483E7-D034-4361-86D9-396A77A90835";
paths = (
{
closed = 1;
nodes = (
"686 662 LINE",
"686 670 LINE",
"658 709 OFFCURVE",
"642 732 OFFCURVE",
"633 763 CURVE",
"629 765 LINE",
"612 762 OFFCURVE",
"462 679 OFFCURVE",
"455 668 CURVE",
"454 664 OFFCURVE",
"454 659 OFFCURVE",
"457 659 CURVE SMOOTH",
"465 659 OFFCURVE",
"560 710 OFFCURVE",
"597 731 CURVE",
"605 710 OFFCURVE",
"656 657 OFFCURVE",
"679 656 CURVE"
);
},
{
closed = 1;
nodes = (
"641 513 OFFCURVE",
"644 526 OFFCURVE",
"644 540 CURVE SMOOTH",
"644 588 OFFCURVE",
"604 622 OFFCURVE",
"560 629 CURVE SMOOTH",
"548 630 OFFCURVE",
"539 631 OFFCURVE",
"532 631 CURVE SMOOTH",
"424 631 OFFCURVE",
"285 553 OFFCURVE",
"171 410 CURVE SMOOTH",
"114 338 OFFCURVE",
"70 254 OFFCURVE",
"39 158 CURVE SMOOTH",
"28 121 OFFCURVE",
"22 89 OFFCURVE",
"22 62 CURVE SMOOTH",
"22 -23 OFFCURVE",
"74 -71 OFFCURVE",
"175 -67 CURVE SMOOTH",
"252 -64 OFFCURVE",
"371 16 OFFCURVE",
"480 122 CURVE SMOOTH",
"534 175 OFFCURVE",
"579 226 OFFCURVE",
"616 277 CURVE SMOOTH",
"623 286 OFFCURVE",
"626 292 OFFCURVE",
"626 297 CURVE SMOOTH",
"626 298 OFFCURVE",
"625 299 OFFCURVE",
"624 299 CURVE SMOOTH",
"621 299 OFFCURVE",
"615 295 OFFCURVE",
"607 287 CURVE",
"538 192 OFFCURVE",
"425 83 OFFCURVE",
"319 16 CURVE SMOOTH",
"266 -18 OFFCURVE",
"221 -36 OFFCURVE",
"184 -37 CURVE SMOOTH",
"108 -40 OFFCURVE",
"64 1 OFFCURVE",
"64 76 CURVE SMOOTH",
"64 103 OFFCURVE",
"69 130 OFFCURVE",
"78 158 CURVE SMOOTH",
"123 302 OFFCURVE",
"254 450 OFFCURVE",
"386 536 CURVE SMOOTH",
"451 579 OFFCURVE",
"504 600 OFFCURVE",
"545 600 CURVE SMOOTH",
"578 600 OFFCURVE",
"603 581 OFFCURVE",
"603 548 CURVE SMOOTH",
"603 535 OFFCURVE",
"600 523 OFFCURVE",
"595 510 CURVE SMOOTH",
"558 415 OFFCURVE",
"475 329 OFFCURVE",
"360 306 CURVE SMOOTH",
"347 303 OFFCURVE",
"337 312 OFFCURVE",
"337 328 CURVE SMOOTH",
"337 349 OFFCURVE",
"349 375 OFFCURVE",
"374 408 CURVE SMOOTH",
"380 416 OFFCURVE",
"384 422 OFFCURVE",
"385 427 CURVE SMOOTH",
"385 432 OFFCURVE",
"383 435 OFFCURVE",
"379 436 CURVE",
"374 436 OFFCURVE",
"362 428 OFFCURVE",
"354 417 CURVE SMOOTH",
"319 374 OFFCURVE",
"302 339 OFFCURVE",
"302 314 CURVE SMOOTH",
"302 293 OFFCURVE",
"314 282 OFFCURVE",
"337 282 CURVE SMOOTH",
"344 282 OFFCURVE",
"354 284 OFFCURVE",
"366 287 CURVE SMOOTH",
"451 311 OFFCURVE",
"534 369 OFFCURVE",
"586 428 CURVE SMOOTH",
"612 457 OFFCURVE",
"629 481 OFFCURVE",
"636 500 CURVE SMOOTH"
);
}
);
width = 535;
}
);
note = Ccircumflex;
unicode = 0108;
},
{
glyphname = Cdotaccent;
lastChange = "2021-04-20 16:28:14 +0000";
layers = (
{
layerId = "979483E7-D034-4361-86D9-396A77A90835";
paths = (
{
closed = 1;
nodes = (
"654 763 LINE",
"654 762 LINE",
"653 763 OFFCURVE",
"652 763 OFFCURVE",
"651 763 CURVE SMOOTH",
"630 763 OFFCURVE",
"575 727 OFFCURVE",
"575 706 CURVE SMOOTH",
"575 695 OFFCURVE",
"587 677 OFFCURVE",
"596 677 CURVE SMOOTH",
"612 677 OFFCURVE",
"620 692 OFFCURVE",
"629 720 CURVE SMOOTH",
"634 734 OFFCURVE",
"638 742 OFFCURVE",
"640 744 CURVE",
"641 746 OFFCURVE",
"644 749 OFFCURVE",
"649 754 CURVE SMOOTH",
"653 758 OFFCURVE",
"655 760 OFFCURVE",
"655 761 CURVE"
);
},
{
closed = 1;
nodes = (
"641 513 OFFCURVE",
"644 526 OFFCURVE",
"644 540 CURVE SMOOTH",
"644 588 OFFCURVE",
"604 622 OFFCURVE",
"560 629 CURVE SMOOTH",
"548 630 OFFCURVE",
"539 631 OFFCURVE",
"532 631 CURVE SMOOTH",
"424 631 OFFCURVE",
"285 553 OFFCURVE",
"171 410 CURVE SMOOTH",
"114 338 OFFCURVE",
"70 254 OFFCURVE",
"39 158 CURVE SMOOTH",
"28 121 OFFCURVE",
"22 89 OFFCURVE",
"22 62 CURVE SMOOTH",
"22 -23 OFFCURVE",
"74 -71 OFFCURVE",
"175 -67 CURVE SMOOTH",
"252 -64 OFFCURVE",
"371 16 OFFCURVE",
"480 122 CURVE SMOOTH",
"534 175 OFFCURVE",
"579 226 OFFCURVE",
"616 277 CURVE SMOOTH",
"623 286 OFFCURVE",
"626 292 OFFCURVE",
"626 297 CURVE SMOOTH",
"626 298 OFFCURVE",
"625 299 OFFCURVE",
"624 299 CURVE SMOOTH",
"621 299 OFFCURVE",
"615 295 OFFCURVE",
"607 287 CURVE",
"538 192 OFFCURVE",
"425 83 OFFCURVE",
"319 16 CURVE SMOOTH",
"266 -18 OFFCURVE",
"221 -36 OFFCURVE",
"184 -37 CURVE SMOOTH",
"108 -40 OFFCURVE",
"64 1 OFFCURVE",
"64 76 CURVE SMOOTH",
"64 103 OFFCURVE",
"69 130 OFFCURVE",
"78 158 CURVE SMOOTH",
"123 302 OFFCURVE",
"254 450 OFFCURVE",
"386 536 CURVE SMOOTH",
"451 579 OFFCURVE",
"504 600 OFFCURVE",
"545 600 CURVE SMOOTH",
"578 600 OFFCURVE",
"603 581 OFFCURVE",
"603 548 CURVE SMOOTH",
"603 535 OFFCURVE",
"600 523 OFFCURVE",
"595 510 CURVE SMOOTH",
"558 415 OFFCURVE",
"475 329 OFFCURVE",
"360 306 CURVE SMOOTH",
"347 303 OFFCURVE",
"337 312 OFFCURVE",
"337 328 CURVE SMOOTH",
"337 349 OFFCURVE",
"349 375 OFFCURVE",
"374 408 CURVE SMOOTH",
"380 416 OFFCURVE",
"384 422 OFFCURVE",
"385 427 CURVE SMOOTH",
"385 432 OFFCURVE",
"383 435 OFFCURVE",
"379 436 CURVE",
"374 436 OFFCURVE",
"362 428 OFFCURVE",
"354 417 CURVE SMOOTH",
"319 374 OFFCURVE",
"302 339 OFFCURVE",
"302 314 CURVE SMOOTH",
"302 293 OFFCURVE",
"314 282 OFFCURVE",
"337 282 CURVE SMOOTH",
"344 282 OFFCURVE",
"354 284 OFFCURVE",
"366 287 CURVE SMOOTH",
"451 311 OFFCURVE",
"534 369 OFFCURVE",
"586 428 CURVE SMOOTH",
"612 457 OFFCURVE",
"629 481 OFFCURVE",
"636 500 CURVE SMOOTH"
);
}
);
width = 535;
}
);
note = Cdotaccent;
unicode = 010A;
},
{
glyphname = D;
layers = (
{
layerId = "979483E7-D034-4361-86D9-396A77A90835";
paths = (
{
closed = 1;
nodes = (
"713 404 OFFCURVE",
"716 423 OFFCURVE",
"716 438 CURVE SMOOTH",
"716 527 OFFCURVE",
"645 571 OFFCURVE",
"503 571 CURVE SMOOTH",
"493 571 OFFCURVE",
"477 570 OFFCURVE",
"454 569 CURVE SMOOTH",
"367 564 OFFCURVE",
"255 529 OFFCURVE",
"175 473 CURVE SMOOTH",
"134 445 OFFCURVE",
"109 414 OFFCURVE",
"98 380 CURVE SMOOTH",
"95 369 OFFCURVE",
"93 361 OFFCURVE",
"93 356 CURVE SMOOTH",
"93 347 OFFCURVE",
"96 339 OFFCURVE",
"102 332 CURVE SMOOTH",
"111 321 OFFCURVE",
"134 313 OFFCURVE",
"138 312 CURVE SMOOTH",
"147 308 OFFCURVE",
"157 312 OFFCURVE",
"164 320 CURVE SMOOTH",
"167 323 OFFCURVE",
"168 327 OFFCURVE",
"168 330 CURVE SMOOTH",
"168 333 OFFCURVE",
"166 336 OFFCURVE",
"162 338 CURVE SMOOTH",
"143 346 OFFCURVE",
"134 352 OFFCURVE",
"134 367 CURVE SMOOTH",
"134 371 OFFCURVE",
"135 376 OFFCURVE",
"137 382 CURVE SMOOTH",
"156 441 OFFCURVE",
"231 488 OFFCURVE",
"319 515 CURVE SMOOTH",
"363 528 OFFCURVE",
"405 537 OFFCURVE",
"444 540 CURVE SMOOTH",
"464 541 OFFCURVE",
"478 542 OFFCURVE",
"487 542 CURVE SMOOTH",
"599 542 OFFCURVE",
"666 505 OFFCURVE",
"666 426 CURVE SMOOTH",
"666 413 OFFCURVE",
"664 399 OFFCURVE",
"660 383 CURVE SMOOTH",
"621 230 OFFCURVE",
"470 81 OFFCURVE",
"302 -3 CURVE SMOOTH",
"217 -45 OFFCURVE",
"143 -66 OFFCURVE",
"80 -66 CURVE SMOOTH",
"55 -66 OFFCURVE",
"34 -63 OFFCURVE",
"17 -56 CURVE SMOOTH",
"8 -52 OFFCURVE",
"-1 -57 OFFCURVE",
"-6 -62 CURVE SMOOTH",
"-10 -67 OFFCURVE",
"-10 -73 OFFCURVE",
"-2 -76 CURVE SMOOTH",
"17 -83 OFFCURVE",
"41 -87 OFFCURVE",
"70 -87 CURVE SMOOTH",
"210 -87 OFFCURVE",
"417 7 OFFCURVE",
"566 151 CURVE SMOOTH",
"640 223 OFFCURVE",
"687 300 OFFCURVE",
"708 381 CURVE SMOOTH"
);
},
{
closed = 1;
nodes = (
"452 489 OFFCURVE",
"453 492 OFFCURVE",
"453 495 CURVE SMOOTH",
"453 504 OFFCURVE",
"434 516 OFFCURVE",
"417 516 CURVE SMOOTH",
"410 516 OFFCURVE",
"404 514 OFFCURVE",
"401 511 CURVE SMOOTH",
"397 508 OFFCURVE",
"390 499 OFFCURVE",
"379 486 CURVE SMOOTH",
"355 458 LINE SMOOTH",
"353 456 OFFCURVE",
"353 454 OFFCURVE",
"356 452 CURVE SMOOTH",
"358 450 LINE",
"362 449 OFFCURVE",
"362 445 OFFCURVE",
"361 444 CURVE SMOOTH",
"266 336 OFFCURVE",
"153 162 OFFCURVE",
"140 70 CURVE SMOOTH",
"137 49 OFFCURVE",
"136 35 OFFCURVE",
"136 29 CURVE SMOOTH",
"136 -4 OFFCURVE",
"148 -20 OFFCURVE",
"183 -27 CURVE SMOOTH",
"194 -30 OFFCURVE",
"203 -16 OFFCURVE",
"203 -3 CURVE SMOOTH",
"203 4 OFFCURVE",
"200 10 OFFCURVE",
"193 11 CURVE SMOOTH",
"180 14 OFFCURVE",
"173 22 OFFCURVE",
"173 37 CURVE SMOOTH",
"173 46 OFFCURVE",
"174 55 OFFCURVE",
"176 65 CURVE SMOOTH",
"180 91 LINE SMOOTH",
"188 146 OFFCURVE",
"261 265 OFFCURVE",
"345 371 CURVE SMOOTH",
"386 424 OFFCURVE",
"421 462 OFFCURVE",
"449 487 CURVE SMOOTH"
);
}
);
width = 563;
}
);
note = D;
unicode = 0044;
},
{
glyphname = Eth;
layers = (
{
layerId = "979483E7-D034-4361-86D9-396A77A90835";
paths = (
{
closed = 1;
nodes = (
"713 404 OFFCURVE",
"716 423 OFFCURVE",
"716 438 CURVE SMOOTH",
"716 527 OFFCURVE",
"645 571 OFFCURVE",
"503 571 CURVE SMOOTH",
"493 571 OFFCURVE",
"477 570 OFFCURVE",
"454 569 CURVE SMOOTH",
"367 564 OFFCURVE",
"255 529 OFFCURVE",
"175 473 CURVE SMOOTH",
"134 445 OFFCURVE",
"109 414 OFFCURVE",
"98 380 CURVE SMOOTH",
"95 369 OFFCURVE",
"93 361 OFFCURVE",
"93 356 CURVE SMOOTH",
"93 347 OFFCURVE",
"96 339 OFFCURVE",
"102 332 CURVE SMOOTH",
"111 321 OFFCURVE",
"134 313 OFFCURVE",
"138 312 CURVE SMOOTH",
"147 308 OFFCURVE",
"157 312 OFFCURVE",
"164 320 CURVE SMOOTH",
"167 323 OFFCURVE",
"168 327 OFFCURVE",
"168 330 CURVE SMOOTH",
"168 333 OFFCURVE",
"166 336 OFFCURVE",
"162 338 CURVE SMOOTH",
"143 346 OFFCURVE",
"134 352 OFFCURVE",
"134 367 CURVE SMOOTH",
"134 371 OFFCURVE",
"135 376 OFFCURVE",
"137 382 CURVE SMOOTH",
"156 441 OFFCURVE",
"231 488 OFFCURVE",
"319 515 CURVE SMOOTH",
"363 528 OFFCURVE",
"405 537 OFFCURVE",
"444 540 CURVE SMOOTH",
"464 541 OFFCURVE",
"478 542 OFFCURVE",
"487 542 CURVE SMOOTH",
"599 542 OFFCURVE",
"666 505 OFFCURVE",
"666 426 CURVE SMOOTH",
"666 413 OFFCURVE",
"664 399 OFFCURVE",
"660 383 CURVE SMOOTH",
"621 230 OFFCURVE",
"470 81 OFFCURVE",
"302 -3 CURVE SMOOTH",
"217 -45 OFFCURVE",
"143 -66 OFFCURVE",
"80 -66 CURVE SMOOTH",
"55 -66 OFFCURVE",
"34 -63 OFFCURVE",
"17 -56 CURVE SMOOTH",
"8 -52 OFFCURVE",
"-1 -57 OFFCURVE",
"-6 -62 CURVE SMOOTH",
"-10 -67 OFFCURVE",
"-10 -73 OFFCURVE",
"-2 -76 CURVE SMOOTH",
"17 -83 OFFCURVE",
"41 -87 OFFCURVE",
"70 -87 CURVE SMOOTH",
"210 -87 OFFCURVE",
"417 7 OFFCURVE",
"566 151 CURVE SMOOTH",
"640 223 OFFCURVE",
"687 300 OFFCURVE",
"708 381 CURVE SMOOTH"
);
},
{
closed = 1;
nodes = (
"333 167 OFFCURVE",
"333 167 OFFCURVE",
"332 168 CURVE",
"325 172 OFFCURVE",
"309 174 OFFCURVE",
"285 175 CURVE SMOOTH",
"214 178 LINE",
"271 282 OFFCURVE",
"385 430 OFFCURVE",
"449 487 CURVE",
"452 489 OFFCURVE",
"453 492 OFFCURVE",
"453 495 CURVE SMOOTH",
"453 504 OFFCURVE",
"434 516 OFFCURVE",
"417 516 CURVE SMOOTH",
"410 516 OFFCURVE",
"404 514 OFFCURVE",
"401 511 CURVE SMOOTH",
"397 508 OFFCURVE",
"390 499 OFFCURVE",
"379 486 CURVE SMOOTH",
"355 458 LINE SMOOTH",
"353 456 OFFCURVE",
"353 454 OFFCURVE",
"356 452 CURVE SMOOTH",
"358 450 LINE",
"362 449 OFFCURVE",
"362 445 OFFCURVE",
"361 444 CURVE SMOOTH",
"301 376 OFFCURVE",
"223 267 OFFCURVE",
"178 178 CURVE",
"138 177 OFFCURVE",
"115 174 OFFCURVE",
"108 171 CURVE SMOOTH",
"103 168 OFFCURVE",
"100 164 OFFCURVE",
"100 160 CURVE",
"101 157 LINE",
"104 152 OFFCURVE",
"113 150 OFFCURVE",
"128 150 CURVE SMOOTH",
"134 150 LINE",
"166 151 LINE",
"151 117 OFFCURVE",
"143 90 OFFCURVE",
"140 70 CURVE SMOOTH",
"137 49 OFFCURVE",
"136 35 OFFCURVE",
"136 29 CURVE SMOOTH",
"136 -4 OFFCURVE",
"148 -20 OFFCURVE",
"183 -27 CURVE SMOOTH",
"194 -30 OFFCURVE",
"203 -16 OFFCURVE",
"203 -3 CURVE SMOOTH",
"203 4 OFFCURVE",
"200 10 OFFCURVE",
"193 11 CURVE SMOOTH",
"180 14 OFFCURVE",
"173 22 OFFCURVE",
"173 37 CURVE SMOOTH",
"173 46 OFFCURVE",
"174 55 OFFCURVE",
"176 65 CURVE SMOOTH",
"180 91 LINE SMOOTH",
"182 106 OFFCURVE",
"189 126 OFFCURVE",
"202 153 CURVE",
"209 153 OFFCURVE",
"221 154 OFFCURVE",
"237 155 CURVE SMOOTH",
"284 158 OFFCURVE",
"311 160 OFFCURVE",
"317 161 CURVE SMOOTH",
"326 163 OFFCURVE",
"332 165 OFFCURVE",
"333 167 CURVE"
);
}
);
width = 563;
}
);
note = Eth;
unicode = 00D0;
},
{
glyphname = Dcaron;
lastChange = "2021-04-20 16:28:14 +0000";
layers = (
{
layerId = "979483E7-D034-4361-86D9-396A77A90835";
paths = (
{
closed = 1;
nodes = (
"689 736 LINE",
"694 745 LINE",
"691 751 LINE",
"668 750 OFFCURVE",
"586 695 OFFCURVE",
"567 672 CURVE",
"551 687 OFFCURVE",
"472 745 OFFCURVE",
"465 745 CURVE SMOOTH",
"461 745 OFFCURVE",
"459 740 OFFCURVE",
"459 736 CURVE SMOOTH",
"459 725 OFFCURVE",
"556 640 OFFCURVE",
"571 637 CURVE",
"576 640 LINE",
"596 664 OFFCURVE",
"627 691 OFFCURVE",
"670 721 CURVE SMOOTH"
);
},
{
closed = 1;
nodes = (
"713 404 OFFCURVE",
"716 423 OFFCURVE",
"716 438 CURVE SMOOTH",
"716 527 OFFCURVE",
"645 571 OFFCURVE",
"503 571 CURVE SMOOTH",
"493 571 OFFCURVE",
"477 570 OFFCURVE",
"454 569 CURVE SMOOTH",
"367 564 OFFCURVE",
"255 529 OFFCURVE",
"175 473 CURVE SMOOTH",
"134 445 OFFCURVE",
"109 414 OFFCURVE",
"98 380 CURVE SMOOTH",
"95 369 OFFCURVE",
"93 361 OFFCURVE",
"93 356 CURVE SMOOTH",
"93 347 OFFCURVE",
"96 339 OFFCURVE",
"102 332 CURVE SMOOTH",
"111 321 OFFCURVE",
"134 313 OFFCURVE",
"138 312 CURVE SMOOTH",
"147 308 OFFCURVE",
"157 312 OFFCURVE",
"164 320 CURVE SMOOTH",
"167 323 OFFCURVE",
"168 327 OFFCURVE",
"168 330 CURVE SMOOTH",
"168 333 OFFCURVE",
"166 336 OFFCURVE",
"162 338 CURVE SMOOTH",
"143 346 OFFCURVE",
"134 352 OFFCURVE",
"134 367 CURVE SMOOTH",
"134 371 OFFCURVE",
"135 376 OFFCURVE",
"137 382 CURVE SMOOTH",
"156 441 OFFCURVE",
"231 488 OFFCURVE",
"319 515 CURVE SMOOTH",
"363 528 OFFCURVE",
"405 537 OFFCURVE",
"444 540 CURVE SMOOTH",
"464 541 OFFCURVE",
"478 542 OFFCURVE",
"487 542 CURVE SMOOTH",
"599 542 OFFCURVE",
"666 505 OFFCURVE",
"666 426 CURVE SMOOTH",
"666 413 OFFCURVE",
"664 399 OFFCURVE",
"660 383 CURVE SMOOTH",
"621 230 OFFCURVE",
"470 81 OFFCURVE",
"302 -3 CURVE SMOOTH",
"217 -45 OFFCURVE",
"143 -66 OFFCURVE",
"80 -66 CURVE SMOOTH",
"55 -66 OFFCURVE",
"34 -63 OFFCURVE",
"17 -56 CURVE SMOOTH",
"8 -52 OFFCURVE",
"-1 -57 OFFCURVE",
"-6 -62 CURVE SMOOTH",
"-10 -67 OFFCURVE",
"-10 -73 OFFCURVE",
"-2 -76 CURVE SMOOTH",
"17 -83 OFFCURVE",
"41 -87 OFFCURVE",
"70 -87 CURVE SMOOTH",
"210 -87 OFFCURVE",
"417 7 OFFCURVE",
"566 151 CURVE SMOOTH",
"640 223 OFFCURVE",
"687 300 OFFCURVE",
"708 381 CURVE SMOOTH"
);
},
{
closed = 1;
nodes = (
"452 489 OFFCURVE",
"453 492 OFFCURVE",
"453 495 CURVE SMOOTH",
"453 504 OFFCURVE",
"434 516 OFFCURVE",
"417 516 CURVE SMOOTH",
"410 516 OFFCURVE",
"404 514 OFFCURVE",
"401 511 CURVE SMOOTH",
"397 508 OFFCURVE",
"390 499 OFFCURVE",
"379 486 CURVE SMOOTH",
"355 458 LINE SMOOTH",
"353 456 OFFCURVE",
"353 454 OFFCURVE",
"356 452 CURVE SMOOTH",
"358 450 LINE",
"362 449 OFFCURVE",
"362 445 OFFCURVE",
"361 444 CURVE SMOOTH",
"266 336 OFFCURVE",
"153 162 OFFCURVE",
"140 70 CURVE SMOOTH",
"137 49 OFFCURVE",
"136 35 OFFCURVE",
"136 29 CURVE SMOOTH",
"136 -4 OFFCURVE",
"148 -20 OFFCURVE",
"183 -27 CURVE SMOOTH",
"194 -30 OFFCURVE",
"203 -16 OFFCURVE",
"203 -3 CURVE SMOOTH",
"203 4 OFFCURVE",
"200 10 OFFCURVE",
"193 11 CURVE SMOOTH",
"180 14 OFFCURVE",
"173 22 OFFCURVE",
"173 37 CURVE SMOOTH",
"173 46 OFFCURVE",
"174 55 OFFCURVE",
"176 65 CURVE SMOOTH",
"180 91 LINE SMOOTH",
"188 146 OFFCURVE",
"261 265 OFFCURVE",
"345 371 CURVE SMOOTH",
"386 424 OFFCURVE",
"421 462 OFFCURVE",
"449 487 CURVE SMOOTH"
);
}
);
width = 563;
}
);
note = Dcaron;
unicode = 010E;
},
{
glyphname = Dcroat;
lastChange = "2021-04-20 16:28:14 +0000";
layers = (
{
layerId = "979483E7-D034-4361-86D9-396A77A90835";
paths = (
{
closed = 1;
nodes = (
"713 404 OFFCURVE",
"716 423 OFFCURVE",
"716 438 CURVE SMOOTH",
"716 527 OFFCURVE",
"645 571 OFFCURVE",
"503 571 CURVE SMOOTH",
"493 571 OFFCURVE",
"477 570 OFFCURVE",
"454 569 CURVE SMOOTH",
"367 564 OFFCURVE",
"255 529 OFFCURVE",
"175 473 CURVE SMOOTH",
"134 445 OFFCURVE",
"109 414 OFFCURVE",
"98 380 CURVE SMOOTH",
"95 369 OFFCURVE",
"93 361 OFFCURVE",
"93 356 CURVE SMOOTH",
"93 347 OFFCURVE",
"96 339 OFFCURVE",
"102 332 CURVE SMOOTH",
"111 321 OFFCURVE",
"134 313 OFFCURVE",
"138 312 CURVE SMOOTH",
"147 308 OFFCURVE",
"157 312 OFFCURVE",
"164 320 CURVE SMOOTH",
"167 323 OFFCURVE",
"168 327 OFFCURVE",
"168 330 CURVE SMOOTH",
"168 333 OFFCURVE",
"166 336 OFFCURVE",
"162 338 CURVE SMOOTH",
"143 346 OFFCURVE",
"134 352 OFFCURVE",
"134 367 CURVE SMOOTH",
"134 371 OFFCURVE",
"135 376 OFFCURVE",
"137 382 CURVE SMOOTH",
"156 441 OFFCURVE",
"231 488 OFFCURVE",
"319 515 CURVE SMOOTH",
"363 528 OFFCURVE",
"405 537 OFFCURVE",
"444 540 CURVE SMOOTH",
"464 541 OFFCURVE",
"478 542 OFFCURVE",
"487 542 CURVE SMOOTH",
"599 542 OFFCURVE",
"666 505 OFFCURVE",
"666 426 CURVE SMOOTH",
"666 413 OFFCURVE",
"664 399 OFFCURVE",
"660 383 CURVE SMOOTH",
"621 230 OFFCURVE",
"470 81 OFFCURVE",
"302 -3 CURVE SMOOTH",
"217 -45 OFFCURVE",
"143 -66 OFFCURVE",
"80 -66 CURVE SMOOTH",
"55 -66 OFFCURVE",
"34 -63 OFFCURVE",
"17 -56 CURVE SMOOTH",
"8 -52 OFFCURVE",
"-1 -57 OFFCURVE",
"-6 -62 CURVE SMOOTH",
"-10 -67 OFFCURVE",
"-10 -73 OFFCURVE",
"-2 -76 CURVE SMOOTH",
"17 -83 OFFCURVE",
"41 -87 OFFCURVE",
"70 -87 CURVE SMOOTH",
"210 -87 OFFCURVE",
"417 7 OFFCURVE",
"566 151 CURVE SMOOTH",
"640 223 OFFCURVE",
"687 300 OFFCURVE",
"708 381 CURVE SMOOTH"
);
},
{
closed = 1;
nodes = (
"104 129 LINE SMOOTH",
"117 129 OFFCURVE",
"135 130 OFFCURVE",
"158 133 CURVE",
"148 107 OFFCURVE",
"142 86 OFFCURVE",
"140 70 CURVE SMOOTH",
"137 49 OFFCURVE",
"136 35 OFFCURVE",
"136 29 CURVE SMOOTH",
"136 -4 OFFCURVE",
"148 -20 OFFCURVE",
"183 -27 CURVE SMOOTH",
"194 -30 OFFCURVE",
"203 -16 OFFCURVE",
"203 -3 CURVE SMOOTH",
"203 4 OFFCURVE",
"200 10 OFFCURVE",
"193 11 CURVE SMOOTH",
"180 14 OFFCURVE",
"173 22 OFFCURVE",
"173 37 CURVE SMOOTH",
"173 46 OFFCURVE",
"174 55 OFFCURVE",
"176 65 CURVE SMOOTH",
"180 91 LINE SMOOTH",
"183 105 OFFCURVE",
"188 121 OFFCURVE",
"195 138 CURVE",
"198 138 LINE SMOOTH",
"222 141 OFFCURVE",
"240 141 OFFCURVE",
"252 141 CURVE SMOOTH",
"260 141 OFFCURVE",
"278 144 OFFCURVE",
"278 149 CURVE SMOOTH",
"278 157 OFFCURVE",
"255 159 OFFCURVE",
"252 159 CURVE SMOOTH",
"232 162 OFFCURVE",
"217 163 OFFCURVE",
"207 164 CURVE",
"260 268 OFFCURVE",
"381 427 OFFCURVE",
"449 487 CURVE SMOOTH",
"452 489 OFFCURVE",
"453 492 OFFCURVE",
"453 495 CURVE SMOOTH",
"453 504 OFFCURVE",
"434 516 OFFCURVE",
"417 516 CURVE SMOOTH",
"410 516 OFFCURVE",
"404 514 OFFCURVE",
"401 511 CURVE SMOOTH",
"397 508 OFFCURVE",
"390 499 OFFCURVE",
"379 486 CURVE SMOOTH",
"355 458 LINE SMOOTH",
"353 456 OFFCURVE",
"353 454 OFFCURVE",
"356 452 CURVE SMOOTH",
"358 450 LINE",
"362 449 OFFCURVE",
"362 445 OFFCURVE",
"361 444 CURVE SMOOTH",
"297 372 OFFCURVE",
"217 258 OFFCURVE",
"173 167 CURVE",
"159 167 LINE SMOOTH",
"140 167 OFFCURVE",
"125 165 OFFCURVE",
"114 161 CURVE SMOOTH",
"103 158 OFFCURVE",
"79 145 OFFCURVE",
"79 136 CURVE SMOOTH",
"79 131 OFFCURVE",
"86 129 OFFCURVE",
"99 129 CURVE SMOOTH"
);
}
);
width = 563;
}
);
note = Dcroat;
unicode = 0110;
},
{
glyphname = E;
layers = (
{
layerId = "979483E7-D034-4361-86D9-396A77A90835";
paths = (
{
closed = 1;
nodes = (
"703 549 OFFCURVE",
"704 554 OFFCURVE",
"704 561 CURVE SMOOTH",
"704 594 OFFCURVE",
"663 616 OFFCURVE",
"622 616 CURVE SMOOTH",
"505 616 OFFCURVE",
"382 567 OFFCURVE",
"274 469 CURVE SMOOTH",
"219 420 OFFCURVE",
"171 359 OFFCURVE",
"130 288 CURVE",
"127 287 OFFCURVE",
"120 284 OFFCURVE",
"109 281 CURVE",
"98 280 OFFCURVE",
"92 278 OFFCURVE",
"89 277 CURVE SMOOTH",
"44 264 OFFCURVE",
"15 255 OFFCURVE",
"9 209 CURVE SMOOTH",
"8 193 OFFCURVE",
"19 184 OFFCURVE",
"31 184 CURVE SMOOTH",
"36 184 OFFCURVE",
"56 195 OFFCURVE",
"72 211 CURVE",
"61 190 OFFCURVE",
"54 172 OFFCURVE",
"51 155 CURVE SMOOTH",
"47 136 OFFCURVE",
"44 122 OFFCURVE",
"41 113 CURVE SMOOTH",
"32 88 OFFCURVE",
"28 63 OFFCURVE",
"28 39 CURVE SMOOTH",
"28 -25 OFFCURVE",
"62 -68 OFFCURVE",
"123 -68 CURVE SMOOTH",
"203 -68 OFFCURVE",
"318 -28 OFFCURVE",
"417 29 CURVE SMOOTH",
"466 57 OFFCURVE",
"505 85 OFFCURVE",
"532 112 CURVE SMOOTH",
"537 117 OFFCURVE",
"540 122 OFFCURVE",
"540 125 CURVE",
"539 128 LINE",
"534 131 OFFCURVE",
"528 129 OFFCURVE",
"520 121 CURVE SMOOTH",
"469 70 OFFCURVE",
"371 16 OFFCURVE",
"273 -16 CURVE SMOOTH",
"224 -31 OFFCURVE",
"180 -39 OFFCURVE",
"143 -39 CURVE SMOOTH",
"95 -39 OFFCURVE",
"70 -6 OFFCURVE",
"70 46 CURVE SMOOTH",
"70 67 OFFCURVE",
"74 89 OFFCURVE",
"82 113 CURVE SMOOTH",
"97 161 OFFCURVE",
"108 186 OFFCURVE",
"135 230 CURVE",
"186 262 OFFCURVE",
"273 305 OFFCURVE",
"328 320 CURVE SMOOTH",
"413 344 OFFCURVE",
"476 356 OFFCURVE",
"516 356 CURVE SMOOTH",
"540 356 OFFCURVE",
"558 352 OFFCURVE",
"571 344 CURVE SMOOTH",
"575 342 OFFCURVE",
"579 341 OFFCURVE",
"582 341 CURVE SMOOTH",
"585 341 OFFCURVE",
"588 342 OFFCURVE",
"591 343 CURVE SMOOTH",
"597 346 OFFCURVE",
"597 350 OFFCURVE",
"591 354 CURVE SMOOTH",
"572 367 OFFCURVE",
"542 373 OFFCURVE",
"499 373 CURVE SMOOTH",
"452 373 OFFCURVE",
"395 365 OFFCURVE",
"330 349 CURVE SMOOTH",
"300 342 LINE SMOOTH",
"275 335 OFFCURVE",
"258 331 OFFCURVE",
"250 328 CURVE SMOOTH",
"223 319 OFFCURVE",
"196 307 OFFCURVE",
"167 293 CURVE",
"295 473 OFFCURVE",
"465 587 OFFCURVE",
"613 587 CURVE SMOOTH",
"654 587 OFFCURVE",
"692 578 OFFCURVE",
"683 550 CURVE SMOOTH",
"674 523 OFFCURVE",
"661 509 OFFCURVE",
"636 488 CURVE SMOOTH",
"629 483 OFFCURVE",
"624 478 OFFCURVE",
"621 475 CURVE",
"616 466 OFFCURVE",
"614 458 OFFCURVE",
"614 453 CURVE SMOOTH",
"614 445 OFFCURVE",
"618 441 OFFCURVE",
"626 441 CURVE SMOOTH",
"635 441 OFFCURVE",
"644 445 OFFCURVE",
"651 452 CURVE SMOOTH",
"675 476 OFFCURVE",
"686 497 OFFCURVE",
"702 546 CURVE SMOOTH"
);
}
);
width = 507;
}
);
note = E;
unicode = 0045;
},
{
glyphname = Eacute;
layers = (
{
layerId = "979483E7-D034-4361-86D9-396A77A90835";
paths = (
{
closed = 1;
nodes = (
"738 768 OFFCURVE",
"718 799 OFFCURVE",
"704 793 CURVE",
"681 780 OFFCURVE",
"653 756 OFFCURVE",
"621 723 CURVE SMOOTH",
"610 712 OFFCURVE",
"601 700 OFFCURVE",
"594 689 CURVE SMOOTH",
"589 682 OFFCURVE",
"586 679 OFFCURVE",
"586 678 CURVE SMOOTH",
"586 677 OFFCURVE",
"587 677 OFFCURVE",
"588 677 CURVE SMOOTH",
"595 677 OFFCURVE",
"612 686 OFFCURVE",
"641 703 CURVE SMOOTH",
"670 720 OFFCURVE",
"699 739 OFFCURVE",
"728 761 CURVE SMOOTH"
);
},
{
closed = 1;
nodes = (
"703 549 OFFCURVE",
"704 554 OFFCURVE",
"704 561 CURVE SMOOTH",
"704 594 OFFCURVE",
"663 616 OFFCURVE",
"622 616 CURVE SMOOTH",
"505 616 OFFCURVE",
"382 567 OFFCURVE",
"274 469 CURVE SMOOTH",
"219 420 OFFCURVE",
"171 359 OFFCURVE",
"130 288 CURVE",
"127 287 OFFCURVE",
"120 284 OFFCURVE",
"109 281 CURVE",
"98 280 OFFCURVE",
"92 278 OFFCURVE",
"89 277 CURVE SMOOTH",
"44 264 OFFCURVE",
"15 255 OFFCURVE",
"9 209 CURVE SMOOTH",
"8 193 OFFCURVE",
"19 184 OFFCURVE",
"31 184 CURVE SMOOTH",
"36 184 OFFCURVE",
"56 195 OFFCURVE",
"72 211 CURVE",
"61 190 OFFCURVE",
"54 172 OFFCURVE",
"51 155 CURVE SMOOTH",
"47 136 OFFCURVE",
"44 122 OFFCURVE",
"41 113 CURVE SMOOTH",
"32 88 OFFCURVE",
"28 63 OFFCURVE",
"28 39 CURVE SMOOTH",
"28 -25 OFFCURVE",
"62 -68 OFFCURVE",
"123 -68 CURVE SMOOTH",
"203 -68 OFFCURVE",
"318 -28 OFFCURVE",
"417 29 CURVE SMOOTH",
"466 57 OFFCURVE",
"505 85 OFFCURVE",
"532 112 CURVE SMOOTH",
"537 117 OFFCURVE",
"540 122 OFFCURVE",
"540 125 CURVE",
"539 128 LINE",
"534 131 OFFCURVE",
"528 129 OFFCURVE",
"520 121 CURVE SMOOTH",
"469 70 OFFCURVE",
"371 16 OFFCURVE",
"273 -16 CURVE SMOOTH",
"224 -31 OFFCURVE",
"180 -39 OFFCURVE",
"143 -39 CURVE SMOOTH",
"95 -39 OFFCURVE",
"70 -6 OFFCURVE",
"70 46 CURVE SMOOTH",
"70 67 OFFCURVE",
"74 89 OFFCURVE",
"82 113 CURVE SMOOTH",
"97 161 OFFCURVE",
"108 186 OFFCURVE",
"135 230 CURVE",
"186 262 OFFCURVE",
"273 305 OFFCURVE",
"328 320 CURVE SMOOTH",
"413 344 OFFCURVE",
"476 356 OFFCURVE",
"516 356 CURVE SMOOTH",
"540 356 OFFCURVE",
"558 352 OFFCURVE",
"571 344 CURVE SMOOTH",
"575 342 OFFCURVE",
"579 341 OFFCURVE",
"582 341 CURVE SMOOTH",
"585 341 OFFCURVE",
"588 342 OFFCURVE",
"591 343 CURVE SMOOTH",
"597 346 OFFCURVE",
"597 350 OFFCURVE",
"591 354 CURVE SMOOTH",
"572 367 OFFCURVE",
"542 373 OFFCURVE",
"499 373 CURVE SMOOTH",
"452 373 OFFCURVE",
"395 365 OFFCURVE",
"330 349 CURVE SMOOTH",
"300 342 LINE SMOOTH",
"275 335 OFFCURVE",
"258 331 OFFCURVE",
"250 328 CURVE SMOOTH",
"223 319 OFFCURVE",
"196 307 OFFCURVE",
"167 293 CURVE",
"295 473 OFFCURVE",
"465 587 OFFCURVE",
"613 587 CURVE SMOOTH",
"654 587 OFFCURVE",
"692 578 OFFCURVE",
"683 550 CURVE SMOOTH",
"674 523 OFFCURVE",
"661 509 OFFCURVE",
"636 488 CURVE SMOOTH",
"629 483 OFFCURVE",
"624 478 OFFCURVE",
"621 475 CURVE",
"616 466 OFFCURVE",
"614 458 OFFCURVE",
"614 453 CURVE SMOOTH",
"614 445 OFFCURVE",
"618 441 OFFCURVE",
"626 441 CURVE SMOOTH",
"635 441 OFFCURVE",
"644 445 OFFCURVE",
"651 452 CURVE SMOOTH",
"675 476 OFFCURVE",
"686 497 OFFCURVE",
"702 546 CURVE SMOOTH"
);
}
);
width = 588;
}
);
note = Eacute;
unicode = 00C9;
},
{
glyphname = Ebreve;
lastChange = "2021-04-20 16:28:14 +0000";
layers = (
{
layerId = "979483E7-D034-4361-86D9-396A77A90835";
paths = (
{
closed = 1;
nodes = (
"666 686 OFFCURVE",
"705 723 OFFCURVE",
"728 771 CURVE SMOOTH",
"729 774 OFFCURVE",
"730 776 OFFCURVE",
"730 777 CURVE SMOOTH",
"730 780 OFFCURVE",
"729 781 OFFCURVE",
"727 781 CURVE SMOOTH",
"723 781 OFFCURVE",
"719 778 OFFCURVE",
"716 772 CURVE SMOOTH",
"695 736 OFFCURVE",
"665 708 OFFCURVE",
"629 708 CURVE SMOOTH",
"595 708 OFFCURVE",
"563 765 OFFCURVE",
"550 765 CURVE SMOOTH",
"546 765 OFFCURVE",
"544 762 OFFCURVE",
"544 755 CURVE SMOOTH",
"544 752 OFFCURVE",
"545 746 OFFCURVE",
"548 738 CURVE SMOOTH",
"559 705 OFFCURVE",
"586 686 OFFCURVE",
"621 686 CURVE SMOOTH"
);
},
{
closed = 1;
nodes = (
"703 549 OFFCURVE",
"704 554 OFFCURVE",
"704 561 CURVE SMOOTH",
"704 594 OFFCURVE",
"663 616 OFFCURVE",
"622 616 CURVE SMOOTH",
"505 616 OFFCURVE",
"382 567 OFFCURVE",
"274 469 CURVE SMOOTH",
"219 420 OFFCURVE",
"171 359 OFFCURVE",
"130 288 CURVE",
"127 287 OFFCURVE",
"120 284 OFFCURVE",
"109 281 CURVE",
"98 280 OFFCURVE",
"92 278 OFFCURVE",
"89 277 CURVE SMOOTH",
"44 264 OFFCURVE",
"15 255 OFFCURVE",
"9 209 CURVE SMOOTH",
"8 193 OFFCURVE",
"19 184 OFFCURVE",
"31 184 CURVE SMOOTH",
"36 184 OFFCURVE",
"56 195 OFFCURVE",
"72 211 CURVE",
"61 190 OFFCURVE",
"54 172 OFFCURVE",
"51 155 CURVE SMOOTH",
"47 136 OFFCURVE",
"44 122 OFFCURVE",
"41 113 CURVE SMOOTH",
"32 88 OFFCURVE",
"28 63 OFFCURVE",
"28 39 CURVE SMOOTH",
"28 -25 OFFCURVE",
"62 -68 OFFCURVE",
"123 -68 CURVE SMOOTH",
"203 -68 OFFCURVE",
"318 -28 OFFCURVE",
"417 29 CURVE SMOOTH",
"466 57 OFFCURVE",
"505 85 OFFCURVE",
"532 112 CURVE SMOOTH",
"537 117 OFFCURVE",
"540 122 OFFCURVE",
"540 125 CURVE",
"539 128 LINE",
"534 131 OFFCURVE",
"528 129 OFFCURVE",
"520 121 CURVE SMOOTH",
"469 70 OFFCURVE",
"371 16 OFFCURVE",
"273 -16 CURVE SMOOTH",
"224 -31 OFFCURVE",
"180 -39 OFFCURVE",
"143 -39 CURVE SMOOTH",
"95 -39 OFFCURVE",
"70 -6 OFFCURVE",
"70 46 CURVE SMOOTH",
"70 67 OFFCURVE",
"74 89 OFFCURVE",
"82 113 CURVE SMOOTH",
"97 161 OFFCURVE",
"108 186 OFFCURVE",
"135 230 CURVE",
"186 262 OFFCURVE",
"273 305 OFFCURVE",
"328 320 CURVE SMOOTH",
"413 344 OFFCURVE",
"476 356 OFFCURVE",
"516 356 CURVE SMOOTH",
"540 356 OFFCURVE",
"558 352 OFFCURVE",
"571 344 CURVE SMOOTH",
"575 342 OFFCURVE",
"579 341 OFFCURVE",
"582 341 CURVE SMOOTH",
"585 341 OFFCURVE",
"588 342 OFFCURVE",
"591 343 CURVE SMOOTH",
"597 346 OFFCURVE",
"597 350 OFFCURVE",
"591 354 CURVE SMOOTH",
"572 367 OFFCURVE",
"542 373 OFFCURVE",
"499 373 CURVE SMOOTH",
"452 373 OFFCURVE",
"395 365 OFFCURVE",
"330 349 CURVE SMOOTH",
"300 342 LINE SMOOTH",
"275 335 OFFCURVE",
"258 331 OFFCURVE",
"250 328 CURVE SMOOTH",
"223 319 OFFCURVE",
"196 307 OFFCURVE",
"167 293 CURVE",
"295 473 OFFCURVE",
"465 587 OFFCURVE",
"613 587 CURVE SMOOTH",
"654 587 OFFCURVE",
"692 578 OFFCURVE",
"683 550 CURVE SMOOTH",
"674 523 OFFCURVE",
"661 509 OFFCURVE",
"636 488 CURVE SMOOTH",
"629 483 OFFCURVE",
"624 478 OFFCURVE",
"621 475 CURVE",
"616 466 OFFCURVE",
"614 458 OFFCURVE",
"614 453 CURVE SMOOTH",
"614 445 OFFCURVE",
"618 441 OFFCURVE",
"626 441 CURVE SMOOTH",
"635 441 OFFCURVE",
"644 445 OFFCURVE",
"651 452 CURVE SMOOTH",
"675 476 OFFCURVE",
"686 497 OFFCURVE",
"702 546 CURVE SMOOTH"
);
}
);
width = 507;
}
);
note = Ebreve;
unicode = 0114;
},
{
glyphname = Ecaron;
lastChange = "2021-04-20 16:28:14 +0000";
layers = (
{
layerId = "979483E7-D034-4361-86D9-396A77A90835";
paths = (
{
closed = 1;
nodes = (
"765 761 LINE",
"770 770 LINE",
"767 776 LINE",
"744 775 OFFCURVE",
"662 720 OFFCURVE",
"643 697 CURVE",
"627 712 OFFCURVE",
"548 770 OFFCURVE",
"541 770 CURVE SMOOTH",
"537 770 OFFCURVE",
"535 765 OFFCURVE",
"535 761 CURVE SMOOTH",
"535 750 OFFCURVE",
"632 665 OFFCURVE",
"647 662 CURVE",
"652 665 LINE",
"672 689 OFFCURVE",
"703 716 OFFCURVE",
"746 746 CURVE SMOOTH"
);
},
{
closed = 1;
nodes = (
"703 549 OFFCURVE",
"704 554 OFFCURVE",
"704 561 CURVE SMOOTH",
"704 594 OFFCURVE",
"663 616 OFFCURVE",
"622 616 CURVE SMOOTH",
"505 616 OFFCURVE",
"382 567 OFFCURVE",
"274 469 CURVE SMOOTH",
"219 420 OFFCURVE",
"171 359 OFFCURVE",
"130 288 CURVE",
"127 287 OFFCURVE",
"120 284 OFFCURVE",
"109 281 CURVE",
"98 280 OFFCURVE",
"92 278 OFFCURVE",
"89 277 CURVE SMOOTH",
"44 264 OFFCURVE",
"15 255 OFFCURVE",
"9 209 CURVE SMOOTH",
"8 193 OFFCURVE",
"19 184 OFFCURVE",
"31 184 CURVE SMOOTH",
"36 184 OFFCURVE",
"56 195 OFFCURVE",
"72 211 CURVE",
"61 190 OFFCURVE",
"54 172 OFFCURVE",
"51 155 CURVE SMOOTH",
"47 136 OFFCURVE",
"44 122 OFFCURVE",
"41 113 CURVE SMOOTH",
"32 88 OFFCURVE",
"28 63 OFFCURVE",
"28 39 CURVE SMOOTH",
"28 -25 OFFCURVE",
"62 -68 OFFCURVE",
"123 -68 CURVE SMOOTH",
"203 -68 OFFCURVE",
"318 -28 OFFCURVE",
"417 29 CURVE SMOOTH",
"466 57 OFFCURVE",
"505 85 OFFCURVE",
"532 112 CURVE SMOOTH",
"537 117 OFFCURVE",
"540 122 OFFCURVE",
"540 125 CURVE",
"539 128 LINE",
"534 131 OFFCURVE",
"528 129 OFFCURVE",
"520 121 CURVE SMOOTH",
"469 70 OFFCURVE",
"371 16 OFFCURVE",
"273 -16 CURVE SMOOTH",
"224 -31 OFFCURVE",
"180 -39 OFFCURVE",
"143 -39 CURVE SMOOTH",
"95 -39 OFFCURVE",
"70 -6 OFFCURVE",
"70 46 CURVE SMOOTH",
"70 67 OFFCURVE",
"74 89 OFFCURVE",
"82 113 CURVE SMOOTH",
"97 161 OFFCURVE",
"108 186 OFFCURVE",
"135 230 CURVE",
"186 262 OFFCURVE",
"273 305 OFFCURVE",
"328 320 CURVE SMOOTH",
"413 344 OFFCURVE",
"476 356 OFFCURVE",
"516 356 CURVE SMOOTH",
"540 356 OFFCURVE",
"558 352 OFFCURVE",
"571 344 CURVE SMOOTH",
"575 342 OFFCURVE",
"579 341 OFFCURVE",
"582 341 CURVE SMOOTH",
"585 341 OFFCURVE",
"588 342 OFFCURVE",
"591 343 CURVE SMOOTH",
"597 346 OFFCURVE",
"597 350 OFFCURVE",
"591 354 CURVE SMOOTH",
"572 367 OFFCURVE",
"542 373 OFFCURVE",
"499 373 CURVE SMOOTH",
"452 373 OFFCURVE",
"395 365 OFFCURVE",
"330 349 CURVE SMOOTH",
"300 342 LINE SMOOTH",
"275 335 OFFCURVE",
"258 331 OFFCURVE",
"250 328 CURVE SMOOTH",
"223 319 OFFCURVE",
"196 307 OFFCURVE",
"167 293 CURVE",
"295 473 OFFCURVE",
"465 587 OFFCURVE",
"613 587 CURVE SMOOTH",
"654 587 OFFCURVE",
"692 578 OFFCURVE",
"683 550 CURVE SMOOTH",
"674 523 OFFCURVE",
"661 509 OFFCURVE",
"636 488 CURVE SMOOTH",
"629 483 OFFCURVE",
"624 478 OFFCURVE",
"621 475 CURVE",
"616 466 OFFCURVE",
"614 458 OFFCURVE",
"614 453 CURVE SMOOTH",
"614 445 OFFCURVE",
"618 441 OFFCURVE",
"626 441 CURVE SMOOTH",
"635 441 OFFCURVE",
"644 445 OFFCURVE",
"651 452 CURVE SMOOTH",
"675 476 OFFCURVE",
"686 497 OFFCURVE",
"702 546 CURVE SMOOTH"
);
}
);
width = 507;
}
);
note = Ecaron;
unicode = 011A;
},
{
glyphname = Ecircumflex;
layers = (
{
layerId = "979483E7-D034-4361-86D9-396A77A90835";
paths = (
{
closed = 1;
nodes = (
"698 676 LINE",
"698 684 LINE",
"670 723 OFFCURVE",
"654 746 OFFCURVE",
"645 777 CURVE",
"641 779 LINE",
"624 776 OFFCURVE",
"474 693 OFFCURVE",
"467 682 CURVE",
"466 678 OFFCURVE",
"466 673 OFFCURVE",
"469 673 CURVE SMOOTH",
"477 673 OFFCURVE",
"572 724 OFFCURVE",
"609 745 CURVE",
"617 724 OFFCURVE",
"668 671 OFFCURVE",
"691 670 CURVE"
);
},
{
closed = 1;
nodes = (
"703 549 OFFCURVE",
"704 554 OFFCURVE",
"704 561 CURVE SMOOTH",
"704 594 OFFCURVE",
"663 616 OFFCURVE",
"622 616 CURVE SMOOTH",
"505 616 OFFCURVE",
"382 567 OFFCURVE",
"274 469 CURVE SMOOTH",
"219 420 OFFCURVE",
"171 359 OFFCURVE",
"130 288 CURVE",
"127 287 OFFCURVE",
"120 284 OFFCURVE",
"109 281 CURVE",
"98 280 OFFCURVE",
"92 278 OFFCURVE",
"89 277 CURVE SMOOTH",
"44 264 OFFCURVE",
"15 255 OFFCURVE",
"9 209 CURVE SMOOTH",
"8 193 OFFCURVE",
"19 184 OFFCURVE",
"31 184 CURVE SMOOTH",
"36 184 OFFCURVE",
"56 195 OFFCURVE",
"72 211 CURVE",
"61 190 OFFCURVE",
"54 172 OFFCURVE",
"51 155 CURVE SMOOTH",
"47 136 OFFCURVE",
"44 122 OFFCURVE",
"41 113 CURVE SMOOTH",
"32 88 OFFCURVE",
"28 63 OFFCURVE",
"28 39 CURVE SMOOTH",
"28 -25 OFFCURVE",
"62 -68 OFFCURVE",
"123 -68 CURVE SMOOTH",
"203 -68 OFFCURVE",
"318 -28 OFFCURVE",
"417 29 CURVE SMOOTH",
"466 57 OFFCURVE",
"505 85 OFFCURVE",
"532 112 CURVE SMOOTH",
"537 117 OFFCURVE",
"540 122 OFFCURVE",
"540 125 CURVE",
"539 128 LINE",
"534 131 OFFCURVE",
"528 129 OFFCURVE",
"520 121 CURVE SMOOTH",
"469 70 OFFCURVE",
"371 16 OFFCURVE",
"273 -16 CURVE SMOOTH",
"224 -31 OFFCURVE",
"180 -39 OFFCURVE",
"143 -39 CURVE SMOOTH",
"95 -39 OFFCURVE",
"70 -6 OFFCURVE",
"70 46 CURVE SMOOTH",
"70 67 OFFCURVE",
"74 89 OFFCURVE",
"82 113 CURVE SMOOTH",
"97 161 OFFCURVE",
"108 186 OFFCURVE",
"135 230 CURVE",
"186 262 OFFCURVE",
"273 305 OFFCURVE",
"328 320 CURVE SMOOTH",
"413 344 OFFCURVE",
"476 356 OFFCURVE",
"516 356 CURVE SMOOTH",
"540 356 OFFCURVE",
"558 352 OFFCURVE",
"571 344 CURVE SMOOTH",
"575 342 OFFCURVE",
"579 341 OFFCURVE",
"582 341 CURVE SMOOTH",
"585 341 OFFCURVE",
"588 342 OFFCURVE",
"591 343 CURVE SMOOTH",
"597 346 OFFCURVE",
"597 350 OFFCURVE",
"591 354 CURVE SMOOTH",
"572 367 OFFCURVE",
"542 373 OFFCURVE",
"499 373 CURVE SMOOTH",
"452 373 OFFCURVE",
"395 365 OFFCURVE",
"330 349 CURVE SMOOTH",
"300 342 LINE SMOOTH",
"275 335 OFFCURVE",
"258 331 OFFCURVE",
"250 328 CURVE SMOOTH",
"223 319 OFFCURVE",
"196 307 OFFCURVE",
"167 293 CURVE",
"295 473 OFFCURVE",
"465 587 OFFCURVE",
"613 587 CURVE SMOOTH",
"654 587 OFFCURVE",
"692 578 OFFCURVE",
"683 550 CURVE SMOOTH",
"674 523 OFFCURVE",
"661 509 OFFCURVE",
"636 488 CURVE SMOOTH",
"629 483 OFFCURVE",
"624 478 OFFCURVE",
"621 475 CURVE",
"616 466 OFFCURVE",
"614 458 OFFCURVE",
"614 453 CURVE SMOOTH",
"614 445 OFFCURVE",
"618 441 OFFCURVE",
"626 441 CURVE SMOOTH",
"635 441 OFFCURVE",
"644 445 OFFCURVE",
"651 452 CURVE SMOOTH",
"675 476 OFFCURVE",
"686 497 OFFCURVE",
"702 546 CURVE SMOOTH"
);
}
);
width = 588;
}
);
note = Ecircumflex;
unicode = 00CA;
},
{
glyphname = Edieresis;
layers = (
{
layerId = "979483E7-D034-4361-86D9-396A77A90835";
paths = (
{
closed = 1;
nodes = (
"619 750 OFFCURVE",
"618 751 OFFCURVE",
"616 750 CURVE SMOOTH",
"614 749 OFFCURVE",
"611 748 OFFCURVE",
"608 747 CURVE SMOOTH",
"601 744 OFFCURVE",
"585 736 OFFCURVE",
"561 723 CURVE SMOOTH",
"558 721 OFFCURVE",
"557 718 OFFCURVE",
"557 714 CURVE SMOOTH",
"557 712 OFFCURVE",
"558 707 OFFCURVE",
"560 699 CURVE SMOOTH",
"561 694 LINE SMOOTH",
"561 693 OFFCURVE",
"562 689 OFFCURVE",
"566 689 CURVE SMOOTH",
"577 689 OFFCURVE",
"584 690 OFFCURVE",
"587 692 CURVE",
"603 695 LINE",
"608 697 OFFCURVE",
"610 699 OFFCURVE",
"610 701 CURVE SMOOTH",
"610 708 OFFCURVE",
"612 719 OFFCURVE",
"615 732 CURVE SMOOTH",
"619 743 LINE SMOOTH",
"620 745 OFFCURVE",
"620 747 OFFCURVE",
"619 748 CURVE"
);
},
{
closed = 1;
nodes = (
"728 750 OFFCURVE",
"727 751 OFFCURVE",
"725 750 CURVE SMOOTH",
"723 749 OFFCURVE",
"720 748 OFFCURVE",
"717 747 CURVE SMOOTH",
"710 744 OFFCURVE",
"694 736 OFFCURVE",
"670 723 CURVE SMOOTH",
"667 721 OFFCURVE",
"666 718 OFFCURVE",
"666 714 CURVE SMOOTH",
"666 712 OFFCURVE",
"667 707 OFFCURVE",
"669 699 CURVE",
"670 698 OFFCURVE",
"670 696 OFFCURVE",
"670 694 CURVE",
"671 691 OFFCURVE",
"673 689 OFFCURVE",
"676 689 CURVE SMOOTH",
"687 689 OFFCURVE",
"694 690 OFFCURVE",
"697 692 CURVE",
"712 695 LINE",
"717 697 OFFCURVE",
"719 699 OFFCURVE",
"719 701 CURVE SMOOTH",
"719 711 OFFCURVE",
"721 721 OFFCURVE",
"725 732 CURVE SMOOTH",
"728 743 LINE SMOOTH",
"729 746 OFFCURVE",
"729 748 OFFCURVE",
"728 748 CURVE"
);
},
{
closed = 1;
nodes = (
"703 549 OFFCURVE",
"704 554 OFFCURVE",
"704 561 CURVE SMOOTH",
"704 594 OFFCURVE",
"663 616 OFFCURVE",
"622 616 CURVE SMOOTH",
"505 616 OFFCURVE",
"382 567 OFFCURVE",
"274 469 CURVE SMOOTH",
"219 420 OFFCURVE",
"171 359 OFFCURVE",
"130 288 CURVE",
"127 287 OFFCURVE",
"120 284 OFFCURVE",
"109 281 CURVE",
"98 280 OFFCURVE",
"92 278 OFFCURVE",
"89 277 CURVE SMOOTH",
"44 264 OFFCURVE",
"15 255 OFFCURVE",
"9 209 CURVE SMOOTH",
"8 193 OFFCURVE",
"19 184 OFFCURVE",
"31 184 CURVE SMOOTH",
"36 184 OFFCURVE",
"56 195 OFFCURVE",
"72 211 CURVE",
"61 190 OFFCURVE",
"54 172 OFFCURVE",
"51 155 CURVE SMOOTH",
"47 136 OFFCURVE",
"44 122 OFFCURVE",
"41 113 CURVE SMOOTH",
"32 88 OFFCURVE",
"28 63 OFFCURVE",
"28 39 CURVE SMOOTH",
"28 -25 OFFCURVE",
"62 -68 OFFCURVE",
"123 -68 CURVE SMOOTH",
"203 -68 OFFCURVE",
"318 -28 OFFCURVE",
"417 29 CURVE SMOOTH",
"466 57 OFFCURVE",
"505 85 OFFCURVE",
"532 112 CURVE SMOOTH",
"537 117 OFFCURVE",
"540 122 OFFCURVE",
"540 125 CURVE",
"539 128 LINE",
"534 131 OFFCURVE",
"528 129 OFFCURVE",
"520 121 CURVE SMOOTH",
"469 70 OFFCURVE",
"371 16 OFFCURVE",
"273 -16 CURVE SMOOTH",
"224 -31 OFFCURVE",
"180 -39 OFFCURVE",
"143 -39 CURVE SMOOTH",
"95 -39 OFFCURVE",
"70 -6 OFFCURVE",
"70 46 CURVE SMOOTH",
"70 67 OFFCURVE",
"74 89 OFFCURVE",
"82 113 CURVE SMOOTH",
"97 161 OFFCURVE",
"108 186 OFFCURVE",
"135 230 CURVE",
"186 262 OFFCURVE",
"273 305 OFFCURVE",
"328 320 CURVE SMOOTH",
"413 344 OFFCURVE",
"476 356 OFFCURVE",
"516 356 CURVE SMOOTH",
"540 356 OFFCURVE",
"558 352 OFFCURVE",
"571 344 CURVE SMOOTH",
"575 342 OFFCURVE",
"579 341 OFFCURVE",
"582 341 CURVE SMOOTH",
"585 341 OFFCURVE",
"588 342 OFFCURVE",
"591 343 CURVE SMOOTH",
"597 346 OFFCURVE",
"597 350 OFFCURVE",
"591 354 CURVE SMOOTH",
"572 367 OFFCURVE",
"542 373 OFFCURVE",
"499 373 CURVE SMOOTH",
"452 373 OFFCURVE",
"395 365 OFFCURVE",
"330 349 CURVE SMOOTH",
"300 342 LINE SMOOTH",
"275 335 OFFCURVE",
"258 331 OFFCURVE",
"250 328 CURVE SMOOTH",
"223 319 OFFCURVE",
"196 307 OFFCURVE",
"167 293 CURVE",
"295 473 OFFCURVE",
"465 587 OFFCURVE",
"613 587 CURVE SMOOTH",
"654 587 OFFCURVE",
"692 578 OFFCURVE",
"683 550 CURVE SMOOTH",
"674 523 OFFCURVE",
"661 509 OFFCURVE",
"636 488 CURVE SMOOTH",
"629 483 OFFCURVE",
"624 478 OFFCURVE",
"621 475 CURVE",
"616 466 OFFCURVE",
"614 458 OFFCURVE",
"614 453 CURVE SMOOTH",
"614 445 OFFCURVE",
"618 441 OFFCURVE",
"626 441 CURVE SMOOTH",
"635 441 OFFCURVE",
"644 445 OFFCURVE",
"651 452 CURVE SMOOTH",
"675 476 OFFCURVE",
"686 497 OFFCURVE",
"702 546 CURVE SMOOTH"
);
}
);
width = 588;
}
);
note = Edieresis;
unicode = 00CB;
},
{
glyphname = Edotaccent;
lastChange = "2021-04-20 16:28:14 +0000";
layers = (
{
layerId = "979483E7-D034-4361-86D9-396A77A90835";
paths = (
{
closed = 1;
nodes = (
"694 769 LINE",
"694 768 LINE",
"693 769 OFFCURVE",
"692 769 OFFCURVE",
"691 769 CURVE SMOOTH",
"670 769 OFFCURVE",
"615 733 OFFCURVE",
"615 712 CURVE SMOOTH",
"615 701 OFFCURVE",
"627 683 OFFCURVE",
"636 683 CURVE SMOOTH",
"652 683 OFFCURVE",
"660 698 OFFCURVE",
"669 726 CURVE SMOOTH",
"674 740 OFFCURVE",
"678 748 OFFCURVE",
"680 750 CURVE",
"681 752 OFFCURVE",
"684 755 OFFCURVE",
"689 760 CURVE SMOOTH",
"693 764 OFFCURVE",
"695 766 OFFCURVE",
"695 767 CURVE"
);
},
{
closed = 1;
nodes = (
"703 549 OFFCURVE",
"704 554 OFFCURVE",
"704 561 CURVE SMOOTH",
"704 594 OFFCURVE",
"663 616 OFFCURVE",
"622 616 CURVE SMOOTH",
"505 616 OFFCURVE",
"382 567 OFFCURVE",
"274 469 CURVE SMOOTH",
"219 420 OFFCURVE",
"171 359 OFFCURVE",
"130 288 CURVE",
"127 287 OFFCURVE",
"120 284 OFFCURVE",
"109 281 CURVE",
"98 280 OFFCURVE",
"92 278 OFFCURVE",
"89 277 CURVE SMOOTH",
"44 264 OFFCURVE",
"15 255 OFFCURVE",
"9 209 CURVE SMOOTH",
"8 193 OFFCURVE",
"19 184 OFFCURVE",
"31 184 CURVE SMOOTH",
"36 184 OFFCURVE",
"56 195 OFFCURVE",
"72 211 CURVE",
"61 190 OFFCURVE",
"54 172 OFFCURVE",
"51 155 CURVE SMOOTH",
"47 136 OFFCURVE",
"44 122 OFFCURVE",
"41 113 CURVE SMOOTH",
"32 88 OFFCURVE",
"28 63 OFFCURVE",
"28 39 CURVE SMOOTH",
"28 -25 OFFCURVE",
"62 -68 OFFCURVE",
"123 -68 CURVE SMOOTH",
"203 -68 OFFCURVE",
"318 -28 OFFCURVE",
"417 29 CURVE SMOOTH",
"466 57 OFFCURVE",
"505 85 OFFCURVE",
"532 112 CURVE SMOOTH",
"537 117 OFFCURVE",
"540 122 OFFCURVE",
"540 125 CURVE",
"539 128 LINE",
"534 131 OFFCURVE",
"528 129 OFFCURVE",
"520 121 CURVE SMOOTH",
"469 70 OFFCURVE",
"371 16 OFFCURVE",
"273 -16 CURVE SMOOTH",
"224 -31 OFFCURVE",
"180 -39 OFFCURVE",
"143 -39 CURVE SMOOTH",
"95 -39 OFFCURVE",
"70 -6 OFFCURVE",
"70 46 CURVE SMOOTH",
"70 67 OFFCURVE",
"74 89 OFFCURVE",
"82 113 CURVE SMOOTH",
"97 161 OFFCURVE",
"108 186 OFFCURVE",
"135 230 CURVE",
"186 262 OFFCURVE",
"273 305 OFFCURVE",
"328 320 CURVE SMOOTH",
"413 344 OFFCURVE",
"476 356 OFFCURVE",
"516 356 CURVE SMOOTH",
"540 356 OFFCURVE",
"558 352 OFFCURVE",
"571 344 CURVE SMOOTH",
"575 342 OFFCURVE",
"579 341 OFFCURVE",
"582 341 CURVE SMOOTH",
"585 341 OFFCURVE",
"588 342 OFFCURVE",
"591 343 CURVE SMOOTH",
"597 346 OFFCURVE",
"597 350 OFFCURVE",
"591 354 CURVE SMOOTH",
"572 367 OFFCURVE",
"542 373 OFFCURVE",
"499 373 CURVE SMOOTH",
"452 373 OFFCURVE",
"395 365 OFFCURVE",
"330 349 CURVE SMOOTH",
"300 342 LINE SMOOTH",
"275 335 OFFCURVE",
"258 331 OFFCURVE",
"250 328 CURVE SMOOTH",
"223 319 OFFCURVE",
"196 307 OFFCURVE",
"167 293 CURVE",
"295 473 OFFCURVE",
"465 587 OFFCURVE",
"613 587 CURVE SMOOTH",
"654 587 OFFCURVE",
"692 578 OFFCURVE",
"683 550 CURVE SMOOTH",
"674 523 OFFCURVE",
"661 509 OFFCURVE",
"636 488 CURVE SMOOTH",
"629 483 OFFCURVE",
"624 478 OFFCURVE",
"621 475 CURVE",
"616 466 OFFCURVE",
"614 458 OFFCURVE",
"614 453 CURVE SMOOTH",
"614 445 OFFCURVE",
"618 441 OFFCURVE",
"626 441 CURVE SMOOTH",
"635 441 OFFCURVE",
"644 445 OFFCURVE",
"651 452 CURVE SMOOTH",
"675 476 OFFCURVE",
"686 497 OFFCURVE",
"702 546 CURVE SMOOTH"
);
}
);
width = 507;
}
);
note = Edotaccent;
unicode = 0116;
},
{
glyphname = Egrave;
layers = (
{
layerId = "979483E7-D034-4361-86D9-396A77A90835";
paths = (
{
closed = 1;
nodes = (
"694 701 OFFCURVE",
"634 757 OFFCURVE",
"582 792 CURVE",
"577 797 OFFCURVE",
"566 795 OFFCURVE",
"557 784 CURVE SMOOTH",
"549 776 OFFCURVE",
"545 770 OFFCURVE",
"545 765 CURVE SMOOTH",
"545 764 OFFCURVE",
"546 762 OFFCURVE",
"547 761 CURVE SMOOTH",
"580 736 OFFCURVE",
"612 717 OFFCURVE",
"641 703 CURVE SMOOTH",
"670 688 OFFCURVE",
"685 681 OFFCURVE",
"687 680 CURVE"
);
},
{
closed = 1;
nodes = (
"703 549 OFFCURVE",
"704 554 OFFCURVE",
"704 561 CURVE SMOOTH",
"704 594 OFFCURVE",
"663 616 OFFCURVE",
"622 616 CURVE SMOOTH",
"505 616 OFFCURVE",
"382 567 OFFCURVE",
"274 469 CURVE SMOOTH",
"219 420 OFFCURVE",
"171 359 OFFCURVE",
"130 288 CURVE",
"127 287 OFFCURVE",
"120 284 OFFCURVE",
"109 281 CURVE",
"98 280 OFFCURVE",
"92 278 OFFCURVE",
"89 277 CURVE SMOOTH",
"44 264 OFFCURVE",
"15 255 OFFCURVE",
"9 209 CURVE SMOOTH",
"8 193 OFFCURVE",
"19 184 OFFCURVE",
"31 184 CURVE SMOOTH",
"36 184 OFFCURVE",
"56 195 OFFCURVE",
"72 211 CURVE",
"61 190 OFFCURVE",
"54 172 OFFCURVE",
"51 155 CURVE SMOOTH",
"47 136 OFFCURVE",
"44 122 OFFCURVE",
"41 113 CURVE SMOOTH",
"32 88 OFFCURVE",
"28 63 OFFCURVE",
"28 39 CURVE SMOOTH",
"28 -25 OFFCURVE",
"62 -68 OFFCURVE",
"123 -68 CURVE SMOOTH",
"203 -68 OFFCURVE",
"318 -28 OFFCURVE",
"417 29 CURVE SMOOTH",
"466 57 OFFCURVE",
"505 85 OFFCURVE",
"532 112 CURVE SMOOTH",
"537 117 OFFCURVE",
"540 122 OFFCURVE",
"540 125 CURVE",
"539 128 LINE",
"534 131 OFFCURVE",
"528 129 OFFCURVE",
"520 121 CURVE SMOOTH",
"469 70 OFFCURVE",
"371 16 OFFCURVE",
"273 -16 CURVE SMOOTH",
"224 -31 OFFCURVE",
"180 -39 OFFCURVE",
"143 -39 CURVE SMOOTH",
"95 -39 OFFCURVE",
"70 -6 OFFCURVE",
"70 46 CURVE SMOOTH",
"70 67 OFFCURVE",
"74 89 OFFCURVE",
"82 113 CURVE SMOOTH",
"97 161 OFFCURVE",
"108 186 OFFCURVE",
"135 230 CURVE",
"186 262 OFFCURVE",
"273 305 OFFCURVE",
"328 320 CURVE SMOOTH",
"413 344 OFFCURVE",
"476 356 OFFCURVE",
"516 356 CURVE SMOOTH",
"540 356 OFFCURVE",
"558 352 OFFCURVE",
"571 344 CURVE SMOOTH",
"575 342 OFFCURVE",
"579 341 OFFCURVE",
"582 341 CURVE SMOOTH",
"585 341 OFFCURVE",
"588 342 OFFCURVE",
"591 343 CURVE SMOOTH",
"597 346 OFFCURVE",
"597 350 OFFCURVE",
"591 354 CURVE SMOOTH",
"572 367 OFFCURVE",
"542 373 OFFCURVE",
"499 373 CURVE SMOOTH",
"452 373 OFFCURVE",
"395 365 OFFCURVE",
"330 349 CURVE SMOOTH",
"300 342 LINE SMOOTH",
"275 335 OFFCURVE",
"258 331 OFFCURVE",
"250 328 CURVE SMOOTH",
"223 319 OFFCURVE",
"196 307 OFFCURVE",
"167 293 CURVE",
"295 473 OFFCURVE",
"465 587 OFFCURVE",
"613 587 CURVE SMOOTH",
"654 587 OFFCURVE",
"692 578 OFFCURVE",
"683 550 CURVE SMOOTH",
"674 523 OFFCURVE",
"661 509 OFFCURVE",
"636 488 CURVE SMOOTH",
"629 483 OFFCURVE",
"624 478 OFFCURVE",
"621 475 CURVE",
"616 466 OFFCURVE",
"614 458 OFFCURVE",
"614 453 CURVE SMOOTH",
"614 445 OFFCURVE",
"618 441 OFFCURVE",
"626 441 CURVE SMOOTH",
"635 441 OFFCURVE",
"644 445 OFFCURVE",
"651 452 CURVE SMOOTH",
"675 476 OFFCURVE",
"686 497 OFFCURVE",
"702 546 CURVE SMOOTH"
);
}
);
width = 588;
}
);
note = Egrave;
unicode = 00C8;
},
{
glyphname = Emacron;
lastChange = "2021-04-20 16:28:14 +0000";
layers = (
{
layerId = "979483E7-D034-4361-86D9-396A77A90835";
paths = (
{
closed = 1;
nodes = (
"537 713 LINE SMOOTH",
"552 714 OFFCURVE",
"572 715 OFFCURVE",
"599 718 CURVE SMOOTH",
"606 719 OFFCURVE",
"616 721 OFFCURVE",
"631 722 CURVE SMOOTH",
"655 725 OFFCURVE",
"673 725 OFFCURVE",
"685 725 CURVE SMOOTH",
"693 725 OFFCURVE",
"711 728 OFFCURVE",
"711 733 CURVE SMOOTH",
"711 741 OFFCURVE",
"688 743 OFFCURVE",
"685 743 CURVE SMOOTH",
"644 748 OFFCURVE",
"613 751 OFFCURVE",
"592 751 CURVE SMOOTH",
"573 751 OFFCURVE",
"558 749 OFFCURVE",
"547 745 CURVE SMOOTH",
"536 742 OFFCURVE",
"512 729 OFFCURVE",
"512 720 CURVE SMOOTH",
"512 715 OFFCURVE",
"519 713 OFFCURVE",
"532 713 CURVE SMOOTH"
);
},
{
closed = 1;
nodes = (
"703 549 OFFCURVE",
"704 554 OFFCURVE",
"704 561 CURVE SMOOTH",
"704 594 OFFCURVE",
"663 616 OFFCURVE",
"622 616 CURVE SMOOTH",
"505 616 OFFCURVE",
"382 567 OFFCURVE",
"274 469 CURVE SMOOTH",
"219 420 OFFCURVE",
"171 359 OFFCURVE",
"130 288 CURVE",
"127 287 OFFCURVE",
"120 284 OFFCURVE",
"109 281 CURVE",
"98 280 OFFCURVE",
"92 278 OFFCURVE",
"89 277 CURVE SMOOTH",
"44 264 OFFCURVE",
"15 255 OFFCURVE",
"9 209 CURVE SMOOTH",
"8 193 OFFCURVE",
"19 184 OFFCURVE",
"31 184 CURVE SMOOTH",
"36 184 OFFCURVE",
"56 195 OFFCURVE",
"72 211 CURVE",
"61 190 OFFCURVE",
"54 172 OFFCURVE",
"51 155 CURVE SMOOTH",
"47 136 OFFCURVE",
"44 122 OFFCURVE",
"41 113 CURVE SMOOTH",
"32 88 OFFCURVE",
"28 63 OFFCURVE",
"28 39 CURVE SMOOTH",
"28 -25 OFFCURVE",
"62 -68 OFFCURVE",
"123 -68 CURVE SMOOTH",
"203 -68 OFFCURVE",
"318 -28 OFFCURVE",
"417 29 CURVE SMOOTH",
"466 57 OFFCURVE",
"505 85 OFFCURVE",
"532 112 CURVE SMOOTH",
"537 117 OFFCURVE",
"540 122 OFFCURVE",
"540 125 CURVE",
"539 128 LINE",
"534 131 OFFCURVE",
"528 129 OFFCURVE",
"520 121 CURVE SMOOTH",
"469 70 OFFCURVE",
"371 16 OFFCURVE",
"273 -16 CURVE SMOOTH",
"224 -31 OFFCURVE",
"180 -39 OFFCURVE",
"143 -39 CURVE SMOOTH",
"95 -39 OFFCURVE",
"70 -6 OFFCURVE",
"70 46 CURVE SMOOTH",
"70 67 OFFCURVE",
"74 89 OFFCURVE",
"82 113 CURVE SMOOTH",
"97 161 OFFCURVE",
"108 186 OFFCURVE",
"135 230 CURVE",
"186 262 OFFCURVE",
"273 305 OFFCURVE",
"328 320 CURVE SMOOTH",
"413 344 OFFCURVE",
"476 356 OFFCURVE",
"516 356 CURVE SMOOTH",
"540 356 OFFCURVE",
"558 352 OFFCURVE",
"571 344 CURVE SMOOTH",
"575 342 OFFCURVE",
"579 341 OFFCURVE",
"582 341 CURVE SMOOTH",
"585 341 OFFCURVE",
"588 342 OFFCURVE",
"591 343 CURVE SMOOTH",
"597 346 OFFCURVE",
"597 350 OFFCURVE",
"591 354 CURVE SMOOTH",
"572 367 OFFCURVE",
"542 373 OFFCURVE",
"499 373 CURVE SMOOTH",
"452 373 OFFCURVE",
"395 365 OFFCURVE",
"330 349 CURVE SMOOTH",
"300 342 LINE SMOOTH",
"275 335 OFFCURVE",
"258 331 OFFCURVE",
"250 328 CURVE SMOOTH",
"223 319 OFFCURVE",
"196 307 OFFCURVE",
"167 293 CURVE",
"295 473 OFFCURVE",
"465 587 OFFCURVE",
"613 587 CURVE SMOOTH",
"654 587 OFFCURVE",
"692 578 OFFCURVE",
"683 550 CURVE SMOOTH",
"674 523 OFFCURVE",
"661 509 OFFCURVE",
"636 488 CURVE SMOOTH",
"629 483 OFFCURVE",
"624 478 OFFCURVE",
"621 475 CURVE",
"616 466 OFFCURVE",
"614 458 OFFCURVE",
"614 453 CURVE SMOOTH",
"614 445 OFFCURVE",
"618 441 OFFCURVE",
"626 441 CURVE SMOOTH",
"635 441 OFFCURVE",
"644 445 OFFCURVE",
"651 452 CURVE SMOOTH",
"675 476 OFFCURVE",
"686 497 OFFCURVE",
"702 546 CURVE SMOOTH"
);
}
);
width = 507;
}
);
note = Emacron;
unicode = 0112;
},
{
glyphname = Eogonek;
lastChange = "2021-04-20 16:28:14 +0000";
layers = (
{
layerId = "979483E7-D034-4361-86D9-396A77A90835";
paths = (
{
closed = 1;
nodes = (
"226 -168 OFFCURVE",
"222 -164 OFFCURVE",
"215 -164 CURVE SMOOTH",
"214 -164 OFFCURVE",
"204 -168 OFFCURVE",
"186 -176 CURVE SMOOTH",
"168 -183 OFFCURVE",
"153 -187 OFFCURVE",
"140 -187 CURVE SMOOTH",
"113 -187 OFFCURVE",
"95 -173 OFFCURVE",
"95 -146 CURVE SMOOTH",
"95 -125 OFFCURVE",
"107 -92 OFFCURVE",
"122 -68 CURVE",
"123 -68 LINE SMOOTH",
"203 -68 OFFCURVE",
"318 -28 OFFCURVE",
"417 29 CURVE SMOOTH",
"466 57 OFFCURVE",
"505 85 OFFCURVE",
"532 112 CURVE SMOOTH",
"537 117 OFFCURVE",
"540 122 OFFCURVE",
"540 125 CURVE",
"539 128 LINE",
"534 131 OFFCURVE",
"528 129 OFFCURVE",
"520 121 CURVE SMOOTH",
"469 70 OFFCURVE",
"371 16 OFFCURVE",
"273 -16 CURVE SMOOTH",
"224 -31 OFFCURVE",
"180 -39 OFFCURVE",
"143 -39 CURVE SMOOTH",
"95 -39 OFFCURVE",
"70 -6 OFFCURVE",
"70 46 CURVE SMOOTH",
"70 67 OFFCURVE",
"74 89 OFFCURVE",
"82 113 CURVE SMOOTH",
"97 161 OFFCURVE",
"108 186 OFFCURVE",
"135 230 CURVE",
"186 262 OFFCURVE",
"273 305 OFFCURVE",
"328 320 CURVE SMOOTH",
"413 344 OFFCURVE",
"476 356 OFFCURVE",
"516 356 CURVE SMOOTH",
"540 356 OFFCURVE",
"558 352 OFFCURVE",
"571 344 CURVE SMOOTH",
"575 342 OFFCURVE",
"579 341 OFFCURVE",
"582 341 CURVE SMOOTH",
"585 341 OFFCURVE",
"588 342 OFFCURVE",
"591 343 CURVE SMOOTH",
"597 346 OFFCURVE",
"597 350 OFFCURVE",
"591 354 CURVE SMOOTH",
"572 367 OFFCURVE",
"542 373 OFFCURVE",
"499 373 CURVE SMOOTH",
"452 373 OFFCURVE",
"395 365 OFFCURVE",
"330 349 CURVE SMOOTH",
"300 342 LINE SMOOTH",
"275 335 OFFCURVE",
"258 331 OFFCURVE",
"250 328 CURVE SMOOTH",
"223 319 OFFCURVE",
"196 307 OFFCURVE",
"167 293 CURVE",
"295 473 OFFCURVE",
"465 587 OFFCURVE",
"613 587 CURVE SMOOTH",
"654 587 OFFCURVE",
"692 578 OFFCURVE",
"683 550 CURVE SMOOTH",
"674 523 OFFCURVE",
"661 509 OFFCURVE",
"636 488 CURVE SMOOTH",
"629 483 OFFCURVE",
"624 478 OFFCURVE",
"621 475 CURVE",
"616 466 OFFCURVE",
"614 458 OFFCURVE",
"614 453 CURVE SMOOTH",
"614 445 OFFCURVE",
"618 441 OFFCURVE",
"626 441 CURVE SMOOTH",
"635 441 OFFCURVE",
"644 445 OFFCURVE",
"651 452 CURVE SMOOTH",
"675 476 OFFCURVE",
"686 497 OFFCURVE",
"702 546 CURVE SMOOTH",
"703 549 OFFCURVE",
"704 554 OFFCURVE",
"704 561 CURVE SMOOTH",
"704 594 OFFCURVE",
"663 616 OFFCURVE",
"622 616 CURVE SMOOTH",
"505 616 OFFCURVE",
"382 567 OFFCURVE",
"274 469 CURVE SMOOTH",
"219 420 OFFCURVE",
"171 359 OFFCURVE",
"130 288 CURVE",
"127 287 OFFCURVE",
"120 284 OFFCURVE",
"109 281 CURVE",
"98 280 OFFCURVE",
"92 278 OFFCURVE",
"89 277 CURVE SMOOTH",
"44 264 OFFCURVE",
"15 255 OFFCURVE",
"9 209 CURVE SMOOTH",
"8 193 OFFCURVE",
"19 184 OFFCURVE",
"31 184 CURVE SMOOTH",
"36 184 OFFCURVE",
"56 195 OFFCURVE",
"72 211 CURVE",
"61 190 OFFCURVE",
"54 172 OFFCURVE",
"51 155 CURVE SMOOTH",
"47 136 OFFCURVE",
"44 122 OFFCURVE",
"41 113 CURVE SMOOTH",
"32 88 OFFCURVE",
"28 63 OFFCURVE",
"28 39 CURVE SMOOTH",
"28 -18 OFFCURVE",
"56 -59 OFFCURVE",
"105 -66 CURVE",
"84 -90 OFFCURVE",
"63 -149 OFFCURVE",
"63 -173 CURVE SMOOTH",
"63 -202 OFFCURVE",
"87 -215 OFFCURVE",
"118 -215 CURVE SMOOTH",
"136 -215 OFFCURVE",
"226 -193 OFFCURVE",
"226 -173 CURVE SMOOTH"
);
}
);
width = 507;
}
);
note = Eogonek;
unicode = 0118;
},
{
glyphname = F;
layers = (
{
layerId = "979483E7-D034-4361-86D9-396A77A90835";
paths = (
{
closed = 1;
nodes = (
"805 519 OFFCURVE",
"799 523 OFFCURVE",
"794 523 CURVE SMOOTH",
"789 523 OFFCURVE",
"787 519 OFFCURVE",
"787 511 CURVE SMOOTH",
"787 507 LINE SMOOTH",
"788 487 OFFCURVE",
"769 467 OFFCURVE",
"726 467 CURVE SMOOTH",
"708 467 OFFCURVE",
"687 470 OFFCURVE",
"663 477 CURVE SMOOTH",
"649 481 OFFCURVE",
"620 490 OFFCURVE",
"577 505 CURVE SMOOTH",
"408 561 OFFCURVE",
"285 597 OFFCURVE",
"178 597 CURVE SMOOTH",
"70 597 OFFCURVE",
"16 554 OFFCURVE",
"16 468 CURVE SMOOTH",
"16 457 OFFCURVE",
"16 449 OFFCURVE",
"17 444 CURVE SMOOTH",
"22 395 OFFCURVE",
"52 341 OFFCURVE",
"90 305 CURVE SMOOTH",
"109 287 OFFCURVE",
"127 276 OFFCURVE",
"145 271 CURVE",
"152 268 OFFCURVE",
"159 267 OFFCURVE",
"166 267 CURVE SMOOTH",
"172 267 OFFCURVE",
"177 268 OFFCURVE",
"181 270 CURVE SMOOTH",
"184 272 OFFCURVE",
"186 274 OFFCURVE",
"186 276 CURVE SMOOTH",
"186 282 OFFCURVE",
"178 285 OFFCURVE",
"162 285 CURVE SMOOTH",
"155 285 LINE",
"117 293 OFFCURVE",
"69 376 OFFCURVE",
"69 426 CURVE SMOOTH",
"69 435 OFFCURVE",
"70 442 OFFCURVE",
"72 449 CURVE SMOOTH",
"94 520 OFFCURVE",
"146 556 OFFCURVE",
"227 556 CURVE SMOOTH",
"296 556 OFFCURVE",
"368 535 OFFCURVE",
"492 495 CURVE SMOOTH",
"600 460 OFFCURVE",
"663 441 OFFCURVE",
"719 440 CURVE SMOOTH",
"784 439 OFFCURVE",
"815 469 OFFCURVE",
"815 497 CURVE SMOOTH",
"815 502 OFFCURVE",
"814 507 OFFCURVE",
"811 511 CURVE SMOOTH"
);
},
{
closed = 1;
nodes = (
"516 244 OFFCURVE",
"522 245 OFFCURVE",
"526 248 CURVE SMOOTH",
"530 251 OFFCURVE",
"532 253 OFFCURVE",
"532 256 CURVE SMOOTH",
"532 259 OFFCURVE",
"529 262 OFFCURVE",
"524 265 CURVE SMOOTH",
"519 267 OFFCURVE",
"511 268 OFFCURVE",
"501 268 CURVE SMOOTH",
"454 268 OFFCURVE",
"404 261 OFFCURVE",
"351 247 CURVE",
"400 312 OFFCURVE",
"456 375 OFFCURVE",
"493 407 CURVE SMOOTH",
"496 409 OFFCURVE",
"497 412 OFFCURVE",
"497 415 CURVE SMOOTH",
"497 426 OFFCURVE",
"478 437 OFFCURVE",
"459 437 CURVE SMOOTH",
"446 437 OFFCURVE",
"435 432 OFFCURVE",
"428 422 CURVE SMOOTH",
"415 405 OFFCURVE",
"401 383 OFFCURVE",
"385 355 CURVE SMOOTH",
"378 342 OFFCURVE",
"361 315 OFFCURVE",
"333 272 CURVE SMOOTH",
"314 244 OFFCURVE",
"305 230 OFFCURVE",
"305 230 CURVE",
"298 229 OFFCURVE",
"290 226 OFFCURVE",
"281 222 CURVE SMOOTH",
"271 218 OFFCURVE",
"263 215 OFFCURVE",
"257 213 CURVE SMOOTH",
"250 211 OFFCURVE",
"245 209 OFFCURVE",
"241 208 CURVE SMOOTH",
"230 205 OFFCURVE",
"215 198 OFFCURVE",
"198 189 CURVE",
"189 182 OFFCURVE",
"176 156 OFFCURVE",
"176 141 CURVE SMOOTH",
"176 134 OFFCURVE",
"179 132 OFFCURVE",
"184 134 CURVE SMOOTH",
"194 137 OFFCURVE",
"208 144 OFFCURVE",
"225 153 CURVE SMOOTH",
"275 182 LINE",
"254 149 OFFCURVE",
"239 122 OFFCURVE",
"228 101 CURVE SMOOTH",
"217 79 OFFCURVE",
"206 49 OFFCURVE",
"193 11 CURVE SMOOTH",
"186 -12 OFFCURVE",
"183 -30 OFFCURVE",
"183 -42 CURVE SMOOTH",
"183 -70 OFFCURVE",
"197 -86 OFFCURVE",
"230 -93 CURVE SMOOTH",
"242 -96 OFFCURVE",
"256 -81 OFFCURVE",
"256 -69 CURVE SMOOTH",
"256 -64 OFFCURVE",
"253 -60 OFFCURVE",
"247 -59 CURVE SMOOTH",
"230 -55 OFFCURVE",
"222 -44 OFFCURVE",
"222 -25 CURVE SMOOTH",
"222 -14 OFFCURVE",
"225 2 OFFCURVE",
"232 23 CURVE SMOOTH",
"257 103 OFFCURVE",
"267 119 OFFCURVE",
"324 200 CURVE",
"391 228 OFFCURVE",
"433 238 OFFCURVE",
"509 243 CURVE SMOOTH"
);
}
);
width = 434;
}
);
note = F;
unicode = 0046;
},
{
glyphname = G;
layers = (
{
layerId = "979483E7-D034-4361-86D9-396A77A90835";
paths = (
{
closed = 1;
nodes = (
"610 511 OFFCURVE",
"616 529 OFFCURVE",
"616 546 CURVE SMOOTH",
"616 579 OFFCURVE",
"593 604 OFFCURVE",
"564 611 CURVE SMOOTH",
"551 614 OFFCURVE",
"539 615 OFFCURVE",
"528 615 CURVE SMOOTH",
"499 615 OFFCURVE",
"474 609 OFFCURVE",
"451 598 CURVE SMOOTH",
"378 563 OFFCURVE",
"281 475 OFFCURVE",
"206 384 CURVE SMOOTH",
"157 324 OFFCURVE",
"107 246 OFFCURVE",
"80 181 CURVE SMOOTH",
"67 149 OFFCURVE",
"60 122 OFFCURVE",
"60 99 CURVE SMOOTH",
"60 70 OFFCURVE",
"72 53 OFFCURVE",
"95 48 CURVE SMOOTH",
"98 47 OFFCURVE",
"103 47 OFFCURVE",
"109 47 CURVE SMOOTH",
"140 47 OFFCURVE",
"178 65 OFFCURVE",
"225 100 CURVE SMOOTH",
"266 131 OFFCURVE",
"300 161 OFFCURVE",
"356 214 CURVE SMOOTH",
"418 272 LINE SMOOTH",
"484 336 OFFCURVE",
"513 364 OFFCURVE",
"506 357 CURVE",
"499 326 OFFCURVE",
"485 290 OFFCURVE",
"466 248 CURVE",
"334 151 OFFCURVE",
"245 58 OFFCURVE",
"146 -77 CURVE SMOOTH",
"126 -105 OFFCURVE",
"110 -134 OFFCURVE",
"97 -163 CURVE SMOOTH",
"89 -181 OFFCURVE",
"85 -197 OFFCURVE",
"85 -210 CURVE SMOOTH",
"85 -226 OFFCURVE",
"92 -234 OFFCURVE",
"106 -234 CURVE SMOOTH",
"138 -234 OFFCURVE",
"192 -196 OFFCURVE",
"227 -163 CURVE SMOOTH",
"343 -51 OFFCURVE",
"446 111 OFFCURVE",
"507 250 CURVE",
"540 273 OFFCURVE",
"563 289 OFFCURVE",
"578 297 CURVE SMOOTH",
"590 302 OFFCURVE",
"597 311 OFFCURVE",
"597 315 CURVE SMOOTH",
"597 317 OFFCURVE",
"596 318 OFFCURVE",
"594 318 CURVE",
"592 319 OFFCURVE",
"588 318 OFFCURVE",
"583 316 CURVE SMOOTH",
"568 309 OFFCURVE",
"547 298 OFFCURVE",
"521 283 CURVE",
"540 331 OFFCURVE",
"551 369 OFFCURVE",
"556 396 CURVE SMOOTH",
"557 408 OFFCURVE",
"542 418 OFFCURVE",
"526 418 CURVE SMOOTH",
"518 418 OFFCURVE",
"512 416 OFFCURVE",
"508 411 CURVE SMOOTH",
"490 390 LINE",
"446 338 LINE SMOOTH",
"401 286 OFFCURVE",
"349 233 OFFCURVE",
"290 179 CURVE SMOOTH",
"235 131 OFFCURVE",
"188 95 OFFCURVE",
"144 95 CURVE SMOOTH",
"141 95 OFFCURVE",
"136 96 OFFCURVE",
"129 97 CURVE SMOOTH",
"116 100 OFFCURVE",
"110 110 OFFCURVE",
"110 128 CURVE SMOOTH",
"110 146 OFFCURVE",
"117 171 OFFCURVE",
"131 202 CURVE SMOOTH",
"156 258 OFFCURVE",
"200 322 OFFCURVE",
"244 370 CURVE SMOOTH",
"309 441 OFFCURVE",
"401 517 OFFCURVE",
"473 557 CURVE SMOOTH",
"508 577 OFFCURVE",
"530 586 OFFCURVE",
"549 586 CURVE SMOOTH",
"567 586 OFFCURVE",
"576 577 OFFCURVE",
"576 558 CURVE SMOOTH",
"576 540 OFFCURVE",
"569 519 OFFCURVE",
"554 496 CURVE SMOOTH",
"547 486 OFFCURVE",
"543 477 OFFCURVE",
"543 469 CURVE SMOOTH",
"543 467 LINE SMOOTH",
"543 462 OFFCURVE",
"546 460 OFFCURVE",
"552 460 CURVE SMOOTH",
"555 460 LINE",
"568 463 OFFCURVE",
"588 477 OFFCURVE",
"599 493 CURVE SMOOTH"
);
},
{
closed = 1;
nodes = (
"374 63 OFFCURVE",
"289 -69 OFFCURVE",
"212 -144 CURVE SMOOTH",
"202 -154 OFFCURVE",
"184 -173 OFFCURVE",
"161 -173 CURVE SMOOTH",
"150 -173 OFFCURVE",
"144 -167 OFFCURVE",
"144 -156 CURVE SMOOTH",
"144 -149 OFFCURVE",
"145 -144 OFFCURVE",
"146 -140 CURVE SMOOTH",
"152 -119 OFFCURVE",
"162 -99 OFFCURVE",
"176 -80 CURVE SMOOTH",
"264 43 OFFCURVE",
"317 100 OFFCURVE",
"445 204 CURVE"
);
}
);
width = 485;
}
);
note = G;
unicode = 0047;
},
{
glyphname = Gbreve;
lastChange = "2021-04-20 16:28:14 +0000";
layers = (
{
layerId = "979483E7-D034-4361-86D9-396A77A90835";
paths = (
{
closed = 1;
nodes = (
"607 702 OFFCURVE",
"646 739 OFFCURVE",
"669 787 CURVE SMOOTH",
"670 790 OFFCURVE",
"671 792 OFFCURVE",
"671 793 CURVE SMOOTH",
"671 796 OFFCURVE",
"670 797 OFFCURVE",
"668 797 CURVE SMOOTH",
"664 797 OFFCURVE",
"660 794 OFFCURVE",
"657 788 CURVE SMOOTH",
"636 752 OFFCURVE",
"606 724 OFFCURVE",
"570 724 CURVE SMOOTH",
"536 724 OFFCURVE",
"504 781 OFFCURVE",
"491 781 CURVE SMOOTH",
"487 781 OFFCURVE",
"485 778 OFFCURVE",
"485 771 CURVE SMOOTH",
"485 768 OFFCURVE",
"486 762 OFFCURVE",
"489 754 CURVE SMOOTH",
"500 721 OFFCURVE",
"527 702 OFFCURVE",
"562 702 CURVE SMOOTH"
);
},
{
closed = 1;
nodes = (
"610 511 OFFCURVE",
"616 529 OFFCURVE",
"616 546 CURVE SMOOTH",
"616 579 OFFCURVE",
"593 604 OFFCURVE",
"564 611 CURVE SMOOTH",
"551 614 OFFCURVE",
"539 615 OFFCURVE",
"528 615 CURVE SMOOTH",
"499 615 OFFCURVE",
"474 609 OFFCURVE",
"451 598 CURVE SMOOTH",
"378 563 OFFCURVE",
"281 475 OFFCURVE",
"206 384 CURVE SMOOTH",
"157 324 OFFCURVE",
"107 246 OFFCURVE",
"80 181 CURVE SMOOTH",
"67 149 OFFCURVE",
"60 122 OFFCURVE",
"60 99 CURVE SMOOTH",
"60 70 OFFCURVE",
"72 53 OFFCURVE",
"95 48 CURVE SMOOTH",
"98 47 OFFCURVE",
"103 47 OFFCURVE",
"109 47 CURVE SMOOTH",
"140 47 OFFCURVE",
"178 65 OFFCURVE",
"225 100 CURVE SMOOTH",
"266 131 OFFCURVE",
"300 161 OFFCURVE",
"356 214 CURVE SMOOTH",
"418 272 LINE SMOOTH",
"484 336 OFFCURVE",
"513 364 OFFCURVE",
"506 357 CURVE",
"499 326 OFFCURVE",
"485 290 OFFCURVE",
"466 248 CURVE",
"334 151 OFFCURVE",
"245 58 OFFCURVE",
"146 -77 CURVE SMOOTH",
"126 -105 OFFCURVE",
"110 -134 OFFCURVE",
"97 -163 CURVE SMOOTH",
"89 -181 OFFCURVE",
"85 -197 OFFCURVE",
"85 -210 CURVE SMOOTH",
"85 -226 OFFCURVE",
"92 -234 OFFCURVE",
"106 -234 CURVE SMOOTH",
"138 -234 OFFCURVE",
"192 -196 OFFCURVE",
"227 -163 CURVE SMOOTH",
"343 -51 OFFCURVE",
"446 111 OFFCURVE",
"507 250 CURVE",
"540 273 OFFCURVE",
"563 289 OFFCURVE",
"578 297 CURVE SMOOTH",
"590 302 OFFCURVE",
"597 311 OFFCURVE",
"597 315 CURVE SMOOTH",
"597 317 OFFCURVE",
"596 318 OFFCURVE",
"594 318 CURVE",
"592 319 OFFCURVE",
"588 318 OFFCURVE",
"583 316 CURVE SMOOTH",
"568 309 OFFCURVE",
"547 298 OFFCURVE",
"521 283 CURVE",
"540 331 OFFCURVE",
"551 369 OFFCURVE",
"556 396 CURVE SMOOTH",
"557 408 OFFCURVE",
"542 418 OFFCURVE",
"526 418 CURVE SMOOTH",
"518 418 OFFCURVE",
"512 416 OFFCURVE",
"508 411 CURVE SMOOTH",
"490 390 LINE",
"446 338 LINE SMOOTH",
"401 286 OFFCURVE",
"349 233 OFFCURVE",
"290 179 CURVE SMOOTH",
"235 131 OFFCURVE",
"188 95 OFFCURVE",
"144 95 CURVE SMOOTH",
"141 95 OFFCURVE",
"136 96 OFFCURVE",
"129 97 CURVE SMOOTH",
"116 100 OFFCURVE",
"110 110 OFFCURVE",
"110 128 CURVE SMOOTH",
"110 146 OFFCURVE",
"117 171 OFFCURVE",
"131 202 CURVE SMOOTH",
"156 258 OFFCURVE",
"200 322 OFFCURVE",
"244 370 CURVE SMOOTH",
"309 441 OFFCURVE",
"401 517 OFFCURVE",
"473 557 CURVE SMOOTH",
"508 577 OFFCURVE",
"530 586 OFFCURVE",
"549 586 CURVE SMOOTH",
"567 586 OFFCURVE",
"576 577 OFFCURVE",
"576 558 CURVE SMOOTH",
"576 540 OFFCURVE",
"569 519 OFFCURVE",
"554 496 CURVE SMOOTH",
"547 486 OFFCURVE",
"543 477 OFFCURVE",
"543 469 CURVE SMOOTH",
"543 467 LINE SMOOTH",
"543 462 OFFCURVE",
"546 460 OFFCURVE",
"552 460 CURVE SMOOTH",
"555 460 LINE",
"568 463 OFFCURVE",
"588 477 OFFCURVE",
"599 493 CURVE SMOOTH"
);
},
{
closed = 1;
nodes = (
"374 63 OFFCURVE",
"289 -69 OFFCURVE",
"212 -144 CURVE SMOOTH",
"202 -154 OFFCURVE",
"184 -173 OFFCURVE",
"161 -173 CURVE SMOOTH",
"150 -173 OFFCURVE",
"144 -167 OFFCURVE",
"144 -156 CURVE SMOOTH",
"144 -149 OFFCURVE",
"145 -144 OFFCURVE",
"146 -140 CURVE SMOOTH",
"152 -119 OFFCURVE",
"162 -99 OFFCURVE",
"176 -80 CURVE SMOOTH",
"264 43 OFFCURVE",
"317 100 OFFCURVE",
"445 204 CURVE"
);
}
);
width = 485;
}
);
note = Gbreve;
unicode = 011E;
},
{
glyphname = Gcircumflex;
lastChange = "2021-04-20 16:28:14 +0000";
layers = (
{
layerId = "979483E7-D034-4361-86D9-396A77A90835";
paths = (
{
closed = 1;
nodes = (
"673 666 LINE",
"673 674 LINE",
"645 713 OFFCURVE",
"629 736 OFFCURVE",
"620 767 CURVE",
"616 769 LINE",
"599 766 OFFCURVE",
"449 683 OFFCURVE",
"442 672 CURVE",
"441 668 OFFCURVE",
"441 663 OFFCURVE",
"444 663 CURVE SMOOTH",
"452 663 OFFCURVE",
"547 714 OFFCURVE",
"584 735 CURVE",
"592 714 OFFCURVE",
"643 661 OFFCURVE",
"666 660 CURVE"
);
},
{
closed = 1;
nodes = (
"610 511 OFFCURVE",
"616 529 OFFCURVE",
"616 546 CURVE SMOOTH",
"616 579 OFFCURVE",
"593 604 OFFCURVE",
"564 611 CURVE SMOOTH",
"551 614 OFFCURVE",
"539 615 OFFCURVE",
"528 615 CURVE SMOOTH",
"499 615 OFFCURVE",
"474 609 OFFCURVE",
"451 598 CURVE SMOOTH",
"378 563 OFFCURVE",
"281 475 OFFCURVE",
"206 384 CURVE SMOOTH",
"157 324 OFFCURVE",
"107 246 OFFCURVE",
"80 181 CURVE SMOOTH",
"67 149 OFFCURVE",
"60 122 OFFCURVE",
"60 99 CURVE SMOOTH",
"60 70 OFFCURVE",
"72 53 OFFCURVE",
"95 48 CURVE SMOOTH",
"98 47 OFFCURVE",
"103 47 OFFCURVE",
"109 47 CURVE SMOOTH",
"140 47 OFFCURVE",
"178 65 OFFCURVE",
"225 100 CURVE SMOOTH",
"266 131 OFFCURVE",
"300 161 OFFCURVE",
"356 214 CURVE SMOOTH",
"418 272 LINE SMOOTH",
"484 336 OFFCURVE",
"513 364 OFFCURVE",
"506 357 CURVE",
"499 326 OFFCURVE",
"485 290 OFFCURVE",
"466 248 CURVE",
"334 151 OFFCURVE",
"245 58 OFFCURVE",
"146 -77 CURVE SMOOTH",
"126 -105 OFFCURVE",
"110 -134 OFFCURVE",
"97 -163 CURVE SMOOTH",
"89 -181 OFFCURVE",
"85 -197 OFFCURVE",
"85 -210 CURVE SMOOTH",
"85 -226 OFFCURVE",
"92 -234 OFFCURVE",
"106 -234 CURVE SMOOTH",
"138 -234 OFFCURVE",
"192 -196 OFFCURVE",
"227 -163 CURVE SMOOTH",
"343 -51 OFFCURVE",
"446 111 OFFCURVE",
"507 250 CURVE",
"540 273 OFFCURVE",
"563 289 OFFCURVE",
"578 297 CURVE SMOOTH",
"590 302 OFFCURVE",
"597 311 OFFCURVE",
"597 315 CURVE SMOOTH",
"597 317 OFFCURVE",
"596 318 OFFCURVE",
"594 318 CURVE",
"592 319 OFFCURVE",
"588 318 OFFCURVE",
"583 316 CURVE SMOOTH",
"568 309 OFFCURVE",
"547 298 OFFCURVE",
"521 283 CURVE",
"540 331 OFFCURVE",
"551 369 OFFCURVE",
"556 396 CURVE SMOOTH",
"557 408 OFFCURVE",
"542 418 OFFCURVE",
"526 418 CURVE SMOOTH",
"518 418 OFFCURVE",
"512 416 OFFCURVE",
"508 411 CURVE SMOOTH",
"490 390 LINE",
"446 338 LINE SMOOTH",
"401 286 OFFCURVE",
"349 233 OFFCURVE",
"290 179 CURVE SMOOTH",
"235 131 OFFCURVE",
"188 95 OFFCURVE",
"144 95 CURVE SMOOTH",
"141 95 OFFCURVE",
"136 96 OFFCURVE",
"129 97 CURVE SMOOTH",
"116 100 OFFCURVE",
"110 110 OFFCURVE",
"110 128 CURVE SMOOTH",
"110 146 OFFCURVE",
"117 171 OFFCURVE",
"131 202 CURVE SMOOTH",
"156 258 OFFCURVE",
"200 322 OFFCURVE",
"244 370 CURVE SMOOTH",
"309 441 OFFCURVE",
"401 517 OFFCURVE",
"473 557 CURVE SMOOTH",
"508 577 OFFCURVE",
"530 586 OFFCURVE",
"549 586 CURVE SMOOTH",
"567 586 OFFCURVE",
"576 577 OFFCURVE",
"576 558 CURVE SMOOTH",
"576 540 OFFCURVE",
"569 519 OFFCURVE",
"554 496 CURVE SMOOTH",
"547 486 OFFCURVE",
"543 477 OFFCURVE",
"543 469 CURVE SMOOTH",
"543 467 LINE SMOOTH",
"543 462 OFFCURVE",
"546 460 OFFCURVE",
"552 460 CURVE SMOOTH",
"555 460 LINE",
"568 463 OFFCURVE",
"588 477 OFFCURVE",
"599 493 CURVE SMOOTH"
);
},
{
closed = 1;
nodes = (
"374 63 OFFCURVE",
"289 -69 OFFCURVE",
"212 -144 CURVE SMOOTH",
"202 -154 OFFCURVE",
"184 -173 OFFCURVE",
"161 -173 CURVE SMOOTH",
"150 -173 OFFCURVE",
"144 -167 OFFCURVE",
"144 -156 CURVE SMOOTH",
"144 -149 OFFCURVE",
"145 -144 OFFCURVE",
"146 -140 CURVE SMOOTH",
"152 -119 OFFCURVE",
"162 -99 OFFCURVE",
"176 -80 CURVE SMOOTH",
"264 43 OFFCURVE",
"317 100 OFFCURVE",
"445 204 CURVE"
);
}
);
width = 485;
}
);
note = Gcircumflex;
unicode = 011C;
},
{
glyphname = Gdotaccent;
lastChange = "2021-04-20 16:28:14 +0000";
layers = (
{
layerId = "979483E7-D034-4361-86D9-396A77A90835";
paths = (
{
closed = 1;
nodes = (
"617 814 LINE",
"617 813 LINE",
"616 814 OFFCURVE",
"615 814 OFFCURVE",
"614 814 CURVE SMOOTH",
"593 814 OFFCURVE",
"538 778 OFFCURVE",
"538 757 CURVE SMOOTH",
"538 746 OFFCURVE",
"550 728 OFFCURVE",
"559 728 CURVE SMOOTH",
"575 728 OFFCURVE",
"583 743 OFFCURVE",
"592 771 CURVE SMOOTH",
"597 785 OFFCURVE",
"601 793 OFFCURVE",
"603 795 CURVE",
"604 797 OFFCURVE",
"607 800 OFFCURVE",
"612 805 CURVE SMOOTH",
"616 809 OFFCURVE",
"618 811 OFFCURVE",
"618 812 CURVE"
);
},
{
closed = 1;
nodes = (
"610 511 OFFCURVE",
"616 529 OFFCURVE",
"616 546 CURVE SMOOTH",
"616 579 OFFCURVE",
"593 604 OFFCURVE",
"564 611 CURVE SMOOTH",
"551 614 OFFCURVE",
"539 615 OFFCURVE",
"528 615 CURVE SMOOTH",
"499 615 OFFCURVE",
"474 609 OFFCURVE",
"451 598 CURVE SMOOTH",
"378 563 OFFCURVE",
"281 475 OFFCURVE",
"206 384 CURVE SMOOTH",
"157 324 OFFCURVE",
"107 246 OFFCURVE",
"80 181 CURVE SMOOTH",
"67 149 OFFCURVE",
"60 122 OFFCURVE",
"60 99 CURVE SMOOTH",
"60 70 OFFCURVE",
"72 53 OFFCURVE",
"95 48 CURVE SMOOTH",
"98 47 OFFCURVE",
"103 47 OFFCURVE",
"109 47 CURVE SMOOTH",
"140 47 OFFCURVE",
"178 65 OFFCURVE",
"225 100 CURVE SMOOTH",
"266 131 OFFCURVE",
"300 161 OFFCURVE",
"356 214 CURVE SMOOTH",
"418 272 LINE SMOOTH",
"484 336 OFFCURVE",
"513 364 OFFCURVE",
"506 357 CURVE",
"499 326 OFFCURVE",
"485 290 OFFCURVE",
"466 248 CURVE",
"334 151 OFFCURVE",
"245 58 OFFCURVE",
"146 -77 CURVE SMOOTH",
"126 -105 OFFCURVE",
"110 -134 OFFCURVE",
"97 -163 CURVE SMOOTH",
"89 -181 OFFCURVE",
"85 -197 OFFCURVE",
"85 -210 CURVE SMOOTH",
"85 -226 OFFCURVE",
"92 -234 OFFCURVE",
"106 -234 CURVE SMOOTH",
"138 -234 OFFCURVE",
"192 -196 OFFCURVE",
"227 -163 CURVE SMOOTH",
"343 -51 OFFCURVE",
"446 111 OFFCURVE",
"507 250 CURVE",
"540 273 OFFCURVE",
"563 289 OFFCURVE",
"578 297 CURVE SMOOTH",
"590 302 OFFCURVE",
"597 311 OFFCURVE",
"597 315 CURVE SMOOTH",
"597 317 OFFCURVE",
"596 318 OFFCURVE",
"594 318 CURVE",
"592 319 OFFCURVE",
"588 318 OFFCURVE",
"583 316 CURVE SMOOTH",
"568 309 OFFCURVE",
"547 298 OFFCURVE",
"521 283 CURVE",
"540 331 OFFCURVE",
"551 369 OFFCURVE",
"556 396 CURVE SMOOTH",
"557 408 OFFCURVE",
"542 418 OFFCURVE",
"526 418 CURVE SMOOTH",
"518 418 OFFCURVE",
"512 416 OFFCURVE",
"508 411 CURVE SMOOTH",
"490 390 LINE",
"446 338 LINE SMOOTH",
"401 286 OFFCURVE",
"349 233 OFFCURVE",
"290 179 CURVE SMOOTH",
"235 131 OFFCURVE",
"188 95 OFFCURVE",
"144 95 CURVE SMOOTH",
"141 95 OFFCURVE",
"136 96 OFFCURVE",
"129 97 CURVE SMOOTH",
"116 100 OFFCURVE",
"110 110 OFFCURVE",
"110 128 CURVE SMOOTH",
"110 146 OFFCURVE",
"117 171 OFFCURVE",
"131 202 CURVE SMOOTH",
"156 258 OFFCURVE",
"200 322 OFFCURVE",
"244 370 CURVE SMOOTH",
"309 441 OFFCURVE",
"401 517 OFFCURVE",
"473 557 CURVE SMOOTH",
"508 577 OFFCURVE",
"530 586 OFFCURVE",
"549 586 CURVE SMOOTH",
"567 586 OFFCURVE",
"576 577 OFFCURVE",
"576 558 CURVE SMOOTH",
"576 540 OFFCURVE",
"569 519 OFFCURVE",
"554 496 CURVE SMOOTH",
"547 486 OFFCURVE",
"543 477 OFFCURVE",
"543 469 CURVE SMOOTH",
"543 467 LINE SMOOTH",
"543 462 OFFCURVE",
"546 460 OFFCURVE",
"552 460 CURVE SMOOTH",
"555 460 LINE",
"568 463 OFFCURVE",
"588 477 OFFCURVE",
"599 493 CURVE SMOOTH"
);
},
{
closed = 1;
nodes = (
"374 63 OFFCURVE",
"289 -69 OFFCURVE",
"212 -144 CURVE SMOOTH",
"202 -154 OFFCURVE",
"184 -173 OFFCURVE",
"161 -173 CURVE SMOOTH",
"150 -173 OFFCURVE",
"144 -167 OFFCURVE",
"144 -156 CURVE SMOOTH",
"144 -149 OFFCURVE",
"145 -144 OFFCURVE",
"146 -140 CURVE SMOOTH",
"152 -119 OFFCURVE",
"162 -99 OFFCURVE",
"176 -80 CURVE SMOOTH",
"264 43 OFFCURVE",
"317 100 OFFCURVE",
"445 204 CURVE"
);
}
);
width = 485;
}
);
note = Gdotaccent;
unicode = 0120;
},
{
glyphname = H;
layers = (
{
layerId = "979483E7-D034-4361-86D9-396A77A90835";
paths = (
{
closed = 1;
nodes = (
"983 506 OFFCURVE",
"984 508 OFFCURVE",
"984 511 CURVE SMOOTH",
"984 524 OFFCURVE",
"963 536 OFFCURVE",
"943 536 CURVE SMOOTH",
"935 536 OFFCURVE",
"929 534 OFFCURVE",
"925 530 CURVE SMOOTH",
"878 479 OFFCURVE",
"816 387 OFFCURVE",
"741 254 CURVE",
"715 251 OFFCURVE",
"697 250 OFFCURVE",
"686 249 CURVE SMOOTH",
"606 241 OFFCURVE",
"567 237 OFFCURVE",
"507 222 CURVE",
"559 297 OFFCURVE",
"584 358 OFFCURVE",
"621 478 CURVE SMOOTH",
"627 497 OFFCURVE",
"630 515 OFFCURVE",
"630 530 CURVE SMOOTH",
"630 574 OFFCURVE",
"606 600 OFFCURVE",
"558 600 CURVE SMOOTH",
"469 600 OFFCURVE",
"381 562 OFFCURVE",
"289 506 CURVE SMOOTH",
"193 449 OFFCURVE",
"107 362 OFFCURVE",
"68 289 CURVE SMOOTH",
"54 264 OFFCURVE",
"47 241 OFFCURVE",
"47 220 CURVE SMOOTH",
"47 181 OFFCURVE",
"76 158 OFFCURVE",
"136 158 CURVE SMOOTH",
"215 158 OFFCURVE",
"290 194 OFFCURVE",
"365 239 CURVE SMOOTH",
"370 242 OFFCURVE",
"373 244 OFFCURVE",
"374 247 CURVE",
"374 249 OFFCURVE",
"372 250 OFFCURVE",
"367 250 CURVE SMOOTH",
"360 250 OFFCURVE",
"352 247 OFFCURVE",
"343 242 CURVE SMOOTH",
"291 211 OFFCURVE",
"214 183 OFFCURVE",
"138 183 CURVE SMOOTH",
"103 183 OFFCURVE",
"85 196 OFFCURVE",
"85 222 CURVE SMOOTH",
"85 239 OFFCURVE",
"94 262 OFFCURVE",
"111 290 CURVE SMOOTH",
"150 351 OFFCURVE",
"225 425 OFFCURVE",
"304 474 CURVE SMOOTH",
"373 518 OFFCURVE",
"502 567 OFFCURVE",
"549 562 CURVE SMOOTH",
"580 558 OFFCURVE",
"595 543 OFFCURVE",
"595 517 CURVE SMOOTH",
"595 508 OFFCURVE",
"593 496 OFFCURVE",
"588 479 CURVE SMOOTH",
"555 372 OFFCURVE",
"514 295 OFFCURVE",
"454 212 CURVE",
"411 201 OFFCURVE",
"371 187 OFFCURVE",
"332 171 CURVE",
"320 164 OFFCURVE",
"310 145 OFFCURVE",
"310 130 CURVE SMOOTH",
"310 123 OFFCURVE",
"313 119 OFFCURVE",
"319 119 CURVE SMOOTH",
"321 119 OFFCURVE",
"323 119 OFFCURVE",
"324 120 CURVE",
"349 132 OFFCURVE",
"379 144 OFFCURVE",
"413 157 CURVE",
"388 125 OFFCURVE",
"369 103 OFFCURVE",
"358 90 CURVE SMOOTH",
"289 11 OFFCURVE",
"184 -78 OFFCURVE",
"84 -106 CURVE SMOOTH",
"73 -109 OFFCURVE",
"68 -116 OFFCURVE",
"68 -121 CURVE SMOOTH",
"68 -126 OFFCURVE",
"71 -129 OFFCURVE",
"78 -129 CURVE SMOOTH",
"81 -129 OFFCURVE",
"83 -129 OFFCURVE",
"85 -128 CURVE",
"196 -96 OFFCURVE",
"315 -2 OFFCURVE",
"383 75 CURVE SMOOTH",
"384 76 OFFCURVE",
"395 88 OFFCURVE",
"418 113 CURVE SMOOTH",
"439 134 OFFCURVE",
"456 152 OFFCURVE",
"469 169 CURVE",
"572 204 OFFCURVE",
"644 223 OFFCURVE",
"731 234 CURVE",
"693 164 OFFCURVE",
"666 102 OFFCURVE",
"649 48 CURVE SMOOTH",
"641 24 OFFCURVE",
"637 3 OFFCURVE",
"637 -15 CURVE SMOOTH",
"637 -48 OFFCURVE",
"653 -68 OFFCURVE",
"684 -73 CURVE SMOOTH",
"697 -76 OFFCURVE",
"710 -61 OFFCURVE",
"710 -46 CURVE SMOOTH",
"710 -39 OFFCURVE",
"707 -35 OFFCURVE",
"700 -34 CURVE SMOOTH",
"678 -30 OFFCURVE",
"667 -16 OFFCURVE",
"667 8 CURVE SMOOTH",
"667 19 OFFCURVE",
"670 33 OFFCURVE",
"675 50 CURVE SMOOTH",
"696 113 OFFCURVE",
"725 176 OFFCURVE",
"764 238 CURVE",
"779 239 OFFCURVE",
"791 240 OFFCURVE",
"800 241 CURVE SMOOTH",
"809 242 OFFCURVE",
"813 245 OFFCURVE",
"813 249 CURVE SMOOTH",
"813 250 OFFCURVE",
"812 252 OFFCURVE",
"810 253 CURVE SMOOTH",
"807 254 OFFCURVE",
"804 255 OFFCURVE",
"799 255 CURVE SMOOTH",
"774 255 LINE",
"841 358 OFFCURVE",
"920 451 OFFCURVE",
"980 503 CURVE SMOOTH"
);
}
);
width = 738;
}
);
note = H;
unicode = 0048;
},
{
glyphname = Hbar;
lastChange = "2021-04-20 16:28:14 +0000";
layers = (
{
layerId = "979483E7-D034-4361-86D9-396A77A90835";
paths = (
{
closed = 1;
nodes = (
"562 407 LINE",
"535 338 OFFCURVE",
"499 273 OFFCURVE",
"454 212 CURVE",
"411 201 OFFCURVE",
"371 187 OFFCURVE",
"332 171 CURVE",
"320 164 OFFCURVE",
"310 145 OFFCURVE",
"310 130 CURVE SMOOTH",
"310 123 OFFCURVE",
"313 119 OFFCURVE",
"319 119 CURVE SMOOTH",
"321 119 OFFCURVE",
"323 119 OFFCURVE",
"324 120 CURVE",
"349 132 OFFCURVE",
"379 144 OFFCURVE",
"413 157 CURVE",
"388 125 OFFCURVE",
"369 103 OFFCURVE",
"358 90 CURVE SMOOTH",
"289 11 OFFCURVE",
"184 -78 OFFCURVE",
"84 -106 CURVE SMOOTH",
"73 -109 OFFCURVE",
"68 -116 OFFCURVE",
"68 -121 CURVE SMOOTH",
"68 -126 OFFCURVE",
"71 -129 OFFCURVE",
"78 -129 CURVE SMOOTH",
"81 -129 OFFCURVE",
"83 -129 OFFCURVE",
"85 -128 CURVE",
"196 -96 OFFCURVE",
"315 -2 OFFCURVE",
"383 75 CURVE SMOOTH",
"384 76 OFFCURVE",
"395 88 OFFCURVE",
"418 113 CURVE SMOOTH",
"439 134 OFFCURVE",
"456 152 OFFCURVE",
"469 169 CURVE",
"572 204 OFFCURVE",
"644 223 OFFCURVE",
"731 234 CURVE",
"693 164 OFFCURVE",
"666 102 OFFCURVE",
"649 48 CURVE SMOOTH",
"641 24 OFFCURVE",
"637 3 OFFCURVE",
"637 -15 CURVE SMOOTH",
"637 -48 OFFCURVE",
"653 -68 OFFCURVE",
"684 -73 CURVE SMOOTH",
"697 -76 OFFCURVE",
"710 -61 OFFCURVE",
"710 -46 CURVE SMOOTH",
"710 -39 OFFCURVE",
"707 -35 OFFCURVE",
"700 -34 CURVE SMOOTH",
"678 -30 OFFCURVE",
"667 -16 OFFCURVE",
"667 8 CURVE SMOOTH",
"667 19 OFFCURVE",
"670 33 OFFCURVE",
"675 50 CURVE SMOOTH",
"696 113 OFFCURVE",
"725 176 OFFCURVE",
"764 238 CURVE",
"779 239 OFFCURVE",
"791 240 OFFCURVE",
"800 241 CURVE SMOOTH",
"809 242 OFFCURVE",
"813 245 OFFCURVE",
"813 249 CURVE SMOOTH",
"813 250 OFFCURVE",
"812 252 OFFCURVE",
"810 253 CURVE SMOOTH",
"807 254 OFFCURVE",
"804 255 OFFCURVE",
"799 255 CURVE SMOOTH",
"774 255 LINE",
"811 313 OFFCURVE",
"852 368 OFFCURVE",
"897 419 CURVE",
"909 419 OFFCURVE",
"920 420 OFFCURVE",
"931 421 CURVE SMOOTH",
"941 422 OFFCURVE",
"946 424 OFFCURVE",
"946 427 CURVE SMOOTH",
"946 428 OFFCURVE",
"942 430 OFFCURVE",
"935 431 CURVE SMOOTH",
"928 432 OFFCURVE",
"920 433 OFFCURVE",
"911 434 CURVE",
"936 462 OFFCURVE",
"959 485 OFFCURVE",
"980 503 CURVE SMOOTH",
"983 506 OFFCURVE",
"984 508 OFFCURVE",
"984 511 CURVE SMOOTH",
"984 524 OFFCURVE",
"963 536 OFFCURVE",
"943 536 CURVE SMOOTH",
"935 536 OFFCURVE",
"929 534 OFFCURVE",
"925 530 CURVE SMOOTH",
"906 509 OFFCURVE",
"882 479 OFFCURVE",
"853 438 CURVE",
"769 442 OFFCURVE",
"706 444 OFFCURVE",
"663 444 CURVE SMOOTH",
"640 444 OFFCURVE",
"622 444 OFFCURVE",
"610 443 CURVE",
"621 478 LINE SMOOTH",
"627 497 OFFCURVE",
"630 515 OFFCURVE",
"630 530 CURVE SMOOTH",
"630 574 OFFCURVE",
"606 600 OFFCURVE",
"558 600 CURVE SMOOTH",
"469 600 OFFCURVE",
"381 562 OFFCURVE",
"289 506 CURVE SMOOTH",
"193 449 OFFCURVE",
"107 362 OFFCURVE",
"68 289 CURVE SMOOTH",
"54 264 OFFCURVE",
"47 241 OFFCURVE",
"47 220 CURVE SMOOTH",
"47 181 OFFCURVE",
"76 158 OFFCURVE",
"136 158 CURVE SMOOTH",
"215 158 OFFCURVE",
"290 194 OFFCURVE",
"365 239 CURVE SMOOTH",
"370 242 OFFCURVE",
"373 244 OFFCURVE",
"374 247 CURVE",
"374 249 OFFCURVE",
"372 250 OFFCURVE",
"367 250 CURVE SMOOTH",
"360 250 OFFCURVE",
"352 247 OFFCURVE",
"343 242 CURVE SMOOTH",
"291 211 OFFCURVE",
"214 183 OFFCURVE",
"138 183 CURVE SMOOTH",
"103 183 OFFCURVE",
"85 196 OFFCURVE",
"85 222 CURVE SMOOTH",
"85 239 OFFCURVE",
"94 262 OFFCURVE",
"111 290 CURVE SMOOTH",
"150 351 OFFCURVE",
"225 425 OFFCURVE",
"304 474 CURVE SMOOTH",
"373 518 OFFCURVE",
"502 567 OFFCURVE",
"549 562 CURVE SMOOTH",
"580 558 OFFCURVE",
"595 543 OFFCURVE",
"595 517 CURVE SMOOTH",
"595 508 OFFCURVE",
"593 496 OFFCURVE",
"588 479 CURVE SMOOTH",
"586 472 OFFCURVE",
"584 465 OFFCURVE",
"582 459 CURVE SMOOTH",
"579 452 OFFCURVE",
"577 446 OFFCURVE",
"575 440 CURVE",
"570 440 OFFCURVE",
"564 439 OFFCURVE",
"556 438 CURVE SMOOTH",
"528 435 OFFCURVE",
"473 423 OFFCURVE",
"473 414 CURVE SMOOTH",
"473 409 OFFCURVE",
"489 407 OFFCURVE",
"521 407 CURVE SMOOTH"
);
},
{
closed = 1;
nodes = (
"715 251 OFFCURVE",
"697 250 OFFCURVE",
"686 249 CURVE SMOOTH",
"606 241 OFFCURVE",
"567 237 OFFCURVE",
"507 222 CURVE",
"548 279 OFFCURVE",
"573 335 OFFCURVE",
"598 408 CURVE",
"631 409 OFFCURVE",
"657 411 OFFCURVE",
"676 412 CURVE SMOOTH",
"756 416 LINE SMOOTH",
"793 417 OFFCURVE",
"821 418 OFFCURVE",
"840 418 CURVE",
"810 373 OFFCURVE",
"777 318 OFFCURVE",
"741 254 CURVE"
);
}
);
width = 738;
}
);
note = Hbar;
unicode = 0126;
},
{
glyphname = Hcircumflex;
lastChange = "2021-04-20 16:28:14 +0000";
layers = (
{
layerId = "979483E7-D034-4361-86D9-396A77A90835";
paths = (
{
closed = 1;
nodes = (
"929 644 LINE",
"929 652 LINE",
"901 691 OFFCURVE",
"885 714 OFFCURVE",
"876 745 CURVE",
"872 747 LINE",
"855 744 OFFCURVE",
"705 661 OFFCURVE",
"698 650 CURVE",
"697 646 OFFCURVE",
"697 641 OFFCURVE",
"700 641 CURVE SMOOTH",
"708 641 OFFCURVE",
"803 692 OFFCURVE",
"840 713 CURVE",
"848 692 OFFCURVE",
"899 639 OFFCURVE",
"922 638 CURVE"
);
},
{
closed = 1;
nodes = (
"983 506 OFFCURVE",
"984 508 OFFCURVE",
"984 511 CURVE SMOOTH",
"984 524 OFFCURVE",
"963 536 OFFCURVE",
"943 536 CURVE SMOOTH",
"935 536 OFFCURVE",
"929 534 OFFCURVE",
"925 530 CURVE SMOOTH",
"878 479 OFFCURVE",
"816 387 OFFCURVE",
"741 254 CURVE",
"715 251 OFFCURVE",
"697 250 OFFCURVE",
"686 249 CURVE SMOOTH",
"606 241 OFFCURVE",
"567 237 OFFCURVE",
"507 222 CURVE",
"559 297 OFFCURVE",
"584 358 OFFCURVE",
"621 478 CURVE SMOOTH",
"627 497 OFFCURVE",
"630 515 OFFCURVE",
"630 530 CURVE SMOOTH",
"630 574 OFFCURVE",
"606 600 OFFCURVE",
"558 600 CURVE SMOOTH",
"469 600 OFFCURVE",
"381 562 OFFCURVE",
"289 506 CURVE SMOOTH",
"193 449 OFFCURVE",
"107 362 OFFCURVE",
"68 289 CURVE SMOOTH",
"54 264 OFFCURVE",
"47 241 OFFCURVE",
"47 220 CURVE SMOOTH",
"47 181 OFFCURVE",
"76 158 OFFCURVE",
"136 158 CURVE SMOOTH",
"215 158 OFFCURVE",
"290 194 OFFCURVE",
"365 239 CURVE SMOOTH",
"370 242 OFFCURVE",
"373 244 OFFCURVE",
"374 247 CURVE",
"374 249 OFFCURVE",
"372 250 OFFCURVE",
"367 250 CURVE SMOOTH",
"360 250 OFFCURVE",
"352 247 OFFCURVE",
"343 242 CURVE SMOOTH",
"291 211 OFFCURVE",
"214 183 OFFCURVE",
"138 183 CURVE SMOOTH",
"103 183 OFFCURVE",
"85 196 OFFCURVE",
"85 222 CURVE SMOOTH",
"85 239 OFFCURVE",
"94 262 OFFCURVE",
"111 290 CURVE SMOOTH",
"150 351 OFFCURVE",
"225 425 OFFCURVE",
"304 474 CURVE SMOOTH",
"373 518 OFFCURVE",
"502 567 OFFCURVE",
"549 562 CURVE SMOOTH",
"580 558 OFFCURVE",
"595 543 OFFCURVE",
"595 517 CURVE SMOOTH",
"595 508 OFFCURVE",
"593 496 OFFCURVE",
"588 479 CURVE SMOOTH",
"555 372 OFFCURVE",
"514 295 OFFCURVE",
"454 212 CURVE",
"411 201 OFFCURVE",
"371 187 OFFCURVE",
"332 171 CURVE",
"320 164 OFFCURVE",
"310 145 OFFCURVE",
"310 130 CURVE SMOOTH",
"310 123 OFFCURVE",
"313 119 OFFCURVE",
"319 119 CURVE SMOOTH",
"321 119 OFFCURVE",
"323 119 OFFCURVE",
"324 120 CURVE",
"349 132 OFFCURVE",
"379 144 OFFCURVE",
"413 157 CURVE",
"388 125 OFFCURVE",
"369 103 OFFCURVE",
"358 90 CURVE SMOOTH",
"289 11 OFFCURVE",
"184 -78 OFFCURVE",
"84 -106 CURVE SMOOTH",
"73 -109 OFFCURVE",
"68 -116 OFFCURVE",
"68 -121 CURVE SMOOTH",
"68 -126 OFFCURVE",
"71 -129 OFFCURVE",
"78 -129 CURVE SMOOTH",
"81 -129 OFFCURVE",
"83 -129 OFFCURVE",
"85 -128 CURVE",
"196 -96 OFFCURVE",
"315 -2 OFFCURVE",
"383 75 CURVE SMOOTH",
"384 76 OFFCURVE",
"395 88 OFFCURVE",
"418 113 CURVE SMOOTH",
"439 134 OFFCURVE",
"456 152 OFFCURVE",
"469 169 CURVE",
"572 204 OFFCURVE",
"644 223 OFFCURVE",
"731 234 CURVE",
"693 164 OFFCURVE",
"666 102 OFFCURVE",
"649 48 CURVE SMOOTH",
"641 24 OFFCURVE",
"637 3 OFFCURVE",
"637 -15 CURVE SMOOTH",
"637 -48 OFFCURVE",
"653 -68 OFFCURVE",
"684 -73 CURVE SMOOTH",
"697 -76 OFFCURVE",
"710 -61 OFFCURVE",
"710 -46 CURVE SMOOTH",
"710 -39 OFFCURVE",
"707 -35 OFFCURVE",
"700 -34 CURVE SMOOTH",
"678 -30 OFFCURVE",
"667 -16 OFFCURVE",
"667 8 CURVE SMOOTH",
"667 19 OFFCURVE",
"670 33 OFFCURVE",
"675 50 CURVE SMOOTH",
"696 113 OFFCURVE",
"725 176 OFFCURVE",
"764 238 CURVE",
"779 239 OFFCURVE",
"791 240 OFFCURVE",
"800 241 CURVE SMOOTH",
"809 242 OFFCURVE",
"813 245 OFFCURVE",
"813 249 CURVE SMOOTH",
"813 250 OFFCURVE",
"812 252 OFFCURVE",
"810 253 CURVE SMOOTH",
"807 254 OFFCURVE",
"804 255 OFFCURVE",
"799 255 CURVE SMOOTH",
"774 255 LINE",
"841 358 OFFCURVE",
"920 451 OFFCURVE",
"980 503 CURVE SMOOTH"
);
}
);
width = 738;
}
);
note = Hcircumflex;
unicode = 0124;
},
{
glyphname = I;
layers = (
{
layerId = "979483E7-D034-4361-86D9-396A77A90835";
paths = (
{
closed = 1;
nodes = (
"597 525 OFFCURVE",
"600 540 OFFCURVE",
"600 553 CURVE SMOOTH",
"600 596 OFFCURVE",
"576 623 OFFCURVE",
"540 623 CURVE SMOOTH",
"483 623 OFFCURVE",
"375 585 OFFCURVE",
"282 505 CURVE SMOOTH",
"210 442 OFFCURVE",
"151 371 OFFCURVE",
"127 315 CURVE SMOOTH",
"120 298 OFFCURVE",
"116 283 OFFCURVE",
"116 270 CURVE SMOOTH",
"116 235 OFFCURVE",
"142 215 OFFCURVE",
"198 215 CURVE SMOOTH",
"230 215 OFFCURVE",
"265 224 OFFCURVE",
"302 242 CURVE SMOOTH",
"334 257 OFFCURVE",
"369 279 OFFCURVE",
"380 286 CURVE SMOOTH",
"384 289 OFFCURVE",
"386 291 OFFCURVE",
"386 292 CURVE",
"388 294 OFFCURVE",
"386 295 OFFCURVE",
"380 295 CURVE SMOOTH",
"375 295 OFFCURVE",
"368 293 OFFCURVE",
"361 289 CURVE SMOOTH",
"321 264 OFFCURVE",
"258 242 OFFCURVE",
"198 242 CURVE SMOOTH",
"179 242 OFFCURVE",
"169 251 OFFCURVE",
"169 269 CURVE SMOOTH",
"169 284 OFFCURVE",
"176 304 OFFCURVE",
"189 327 CURVE SMOOTH",
"216 378 OFFCURVE",
"266 440 OFFCURVE",
"323 488 CURVE SMOOTH",
"387 543 OFFCURVE",
"477 585 OFFCURVE",
"520 585 CURVE SMOOTH",
"551 585 OFFCURVE",
"566 571 OFFCURVE",
"566 542 CURVE SMOOTH",
"566 533 OFFCURVE",
"564 521 OFFCURVE",
"560 507 CURVE SMOOTH",
"517 374 OFFCURVE",
"420 222 OFFCURVE",
"329 118 CURVE SMOOTH",
"264 42 OFFCURVE",
"155 -49 OFFCURVE",
"56 -78 CURVE SMOOTH",
"45 -81 OFFCURVE",
"40 -79 OFFCURVE",
"40 -71 CURVE SMOOTH",
"40 -69 OFFCURVE",
"41 -66 OFFCURVE",
"42 -62 CURVE SMOOTH",
"49 -38 LINE",
"51 -34 OFFCURVE",
"52 -30 OFFCURVE",
"52 -25 CURVE SMOOTH",
"52 -18 OFFCURVE",
"48 -15 OFFCURVE",
"41 -15 CURVE SMOOTH",
"38 -15 LINE",
"14 -19 OFFCURVE",
"-4 -43 OFFCURVE",
"-4 -68 CURVE SMOOTH",
"-4 -91 OFFCURVE",
"8 -108 OFFCURVE",
"35 -108 CURVE SMOOTH",
"44 -108 OFFCURVE",
"52 -107 OFFCURVE",
"60 -104 CURVE SMOOTH",
"167 -72 OFFCURVE",
"265 11 OFFCURVE",
"356 102 CURVE SMOOTH",
"357 103 LINE SMOOTH",
"448 194 OFFCURVE",
"544 355 OFFCURVE",
"592 507 CURVE SMOOTH"
);
}
);
width = 434;
}
);
note = I;
unicode = 0049;
},
{
glyphname = IJ;
layers = (
{
layerId = "979483E7-D034-4361-86D9-396A77A90835";
paths = (
{
closed = 1;
nodes = (
"1000 545 OFFCURVE",
"1001 552 OFFCURVE",
"1001 557 CURVE SMOOTH",
"1001 605 OFFCURVE",
"974 633 OFFCURVE",
"934 633 CURVE SMOOTH",
"929 633 OFFCURVE",
"925 633 OFFCURVE",
"922 632 CURVE",
"865 624 OFFCURVE",
"763 571 OFFCURVE",
"680 478 CURVE SMOOTH",
"605 395 OFFCURVE",
"554 305 OFFCURVE",
"554 250 CURVE SMOOTH",
"554 217 OFFCURVE",
"574 197 OFFCURVE",
"614 197 CURVE SMOOTH",
"619 197 OFFCURVE",
"627 198 OFFCURVE",
"639 199 CURVE SMOOTH",
"700 208 OFFCURVE",
"754 240 OFFCURVE",
"819 291 CURVE SMOOTH",
"822 294 OFFCURVE",
"824 297 OFFCURVE",
"824 299 CURVE SMOOTH",
"824 300 OFFCURVE",
"823 300 OFFCURVE",
"822 300 CURVE SMOOTH",
"817 300 OFFCURVE",
"806 295 OFFCURVE",
"799 291 CURVE",
"762 260 OFFCURVE",
"701 229 OFFCURVE",
"638 218 CURVE SMOOTH",
"614 214 OFFCURVE",
"601 226 OFFCURVE",
"601 250 CURVE SMOOTH",
"601 264 OFFCURVE",
"604 280 OFFCURVE",
"611 297 CURVE SMOOTH",
"630 348 OFFCURVE",
"672 413 OFFCURVE",
"721 469 CURVE SMOOTH",
"738 490 OFFCURVE",
"807 543 OFFCURVE",
"860 570 CURVE SMOOTH",
"889 585 OFFCURVE",
"912 592 OFFCURVE",
"928 592 CURVE SMOOTH",
"951 592 OFFCURVE",
"962 578 OFFCURVE",
"962 551 CURVE SMOOTH",
"962 545 OFFCURVE",
"962 540 OFFCURVE",
"961 537 CURVE",
"948 428 OFFCURVE",
"911 321 OFFCURVE",
"850 215 CURVE",
"782 183 OFFCURVE",
"750 160 OFFCURVE",
"662 95 CURVE SMOOTH",
"586 38 OFFCURVE",
"481 -60 OFFCURVE",
"437 -123 CURVE SMOOTH",
"421 -147 OFFCURVE",
"411 -176 OFFCURVE",
"411 -200 CURVE SMOOTH",
"411 -227 OFFCURVE",
"423 -244 OFFCURVE",
"447 -244 CURVE SMOOTH",
"468 -244 OFFCURVE",
"496 -232 OFFCURVE",
"530 -207 CURVE SMOOTH",
"655 -116 OFFCURVE",
"784 55 OFFCURVE",
"879 200 CURVE",
"896 205 OFFCURVE",
"915 214 OFFCURVE",
"936 226 CURVE SMOOTH",
"941 229 OFFCURVE",
"944 232 OFFCURVE",
"944 235 CURVE SMOOTH",
"944 239 OFFCURVE",
"939 241 OFFCURVE",
"930 241 CURVE SMOOTH",
"926 241 OFFCURVE",
"920 240 OFFCURVE",
"912 237 CURVE SMOOTH",
"896 230 LINE",
"950 332 OFFCURVE",
"984 434 OFFCURVE",
"999 536 CURVE SMOOTH"
);
},
{
closed = 1;
nodes = (
"597 525 OFFCURVE",
"600 540 OFFCURVE",
"600 553 CURVE SMOOTH",
"600 596 OFFCURVE",
"576 623 OFFCURVE",
"540 623 CURVE SMOOTH",
"483 623 OFFCURVE",
"375 585 OFFCURVE",
"282 505 CURVE SMOOTH",
"210 442 OFFCURVE",
"151 371 OFFCURVE",
"127 315 CURVE SMOOTH",
"120 298 OFFCURVE",
"116 283 OFFCURVE",
"116 270 CURVE SMOOTH",
"116 235 OFFCURVE",
"142 215 OFFCURVE",
"198 215 CURVE SMOOTH",
"230 215 OFFCURVE",
"265 224 OFFCURVE",
"302 242 CURVE SMOOTH",
"334 257 OFFCURVE",
"369 279 OFFCURVE",
"380 286 CURVE SMOOTH",
"384 289 OFFCURVE",
"386 291 OFFCURVE",
"386 292 CURVE",
"388 294 OFFCURVE",
"386 295 OFFCURVE",
"380 295 CURVE SMOOTH",
"375 295 OFFCURVE",
"368 293 OFFCURVE",
"361 289 CURVE SMOOTH",
"321 264 OFFCURVE",
"258 242 OFFCURVE",
"198 242 CURVE SMOOTH",
"179 242 OFFCURVE",
"169 251 OFFCURVE",
"169 269 CURVE SMOOTH",
"169 284 OFFCURVE",
"176 304 OFFCURVE",
"189 327 CURVE SMOOTH",
"216 378 OFFCURVE",
"266 440 OFFCURVE",
"323 488 CURVE SMOOTH",
"387 543 OFFCURVE",
"477 585 OFFCURVE",
"520 585 CURVE SMOOTH",
"551 585 OFFCURVE",
"566 571 OFFCURVE",
"566 542 CURVE SMOOTH",
"566 533 OFFCURVE",
"564 521 OFFCURVE",
"560 507 CURVE SMOOTH",
"517 374 OFFCURVE",
"420 222 OFFCURVE",
"329 118 CURVE SMOOTH",
"264 42 OFFCURVE",
"155 -49 OFFCURVE",
"56 -78 CURVE SMOOTH",
"45 -81 OFFCURVE",
"40 -79 OFFCURVE",
"40 -71 CURVE SMOOTH",
"40 -69 OFFCURVE",
"41 -66 OFFCURVE",
"42 -62 CURVE SMOOTH",
"49 -38 LINE",
"51 -34 OFFCURVE",
"52 -30 OFFCURVE",
"52 -25 CURVE SMOOTH",
"52 -18 OFFCURVE",
"48 -15 OFFCURVE",
"41 -15 CURVE SMOOTH",
"38 -15 LINE",
"14 -19 OFFCURVE",
"-4 -43 OFFCURVE",
"-4 -68 CURVE SMOOTH",
"-4 -91 OFFCURVE",
"8 -108 OFFCURVE",
"35 -108 CURVE SMOOTH",
"44 -108 OFFCURVE",
"52 -107 OFFCURVE",
"60 -104 CURVE SMOOTH",
"167 -72 OFFCURVE",
"265 11 OFFCURVE",
"356 102 CURVE SMOOTH",
"357 103 LINE SMOOTH",
"448 194 OFFCURVE",
"544 355 OFFCURVE",
"592 507 CURVE SMOOTH"
);
},
{
closed = 1;
nodes = (
"814 157 OFFCURVE",
"801 135 OFFCURVE",
"785 110 CURVE SMOOTH",
"744 49 OFFCURVE",
"607 -94 OFFCURVE",
"524 -161 CURVE SMOOTH",
"501 -180 OFFCURVE",
"481 -189 OFFCURVE",
"464 -189 CURVE SMOOTH",
"459 -189 OFFCURVE",
"456 -189 OFFCURVE",
"455 -188 CURVE",
"448 -186 OFFCURVE",
"445 -181 OFFCURVE",
"445 -173 CURVE SMOOTH",
"445 -163 OFFCURVE",
"451 -150 OFFCURVE",
"462 -134 CURVE SMOOTH",
"506 -71 OFFCURVE",
"597 22 OFFCURVE",
"664 71 CURVE SMOOTH",
"701 99 OFFCURVE",
"728 119 OFFCURVE",
"745 130 CURVE SMOOTH",
"769 146 OFFCURVE",
"796 161 OFFCURVE",
"825 176 CURVE"
);
}
);
width = 847;
}
);
note = IJ;
unicode = 0132;
},
{
glyphname = Iacute;
layers = (
{
layerId = "979483E7-D034-4361-86D9-396A77A90835";
paths = (
{
closed = 1;
nodes = (
"682 769 OFFCURVE",
"661 801 OFFCURVE",
"649 793 CURVE SMOOTH",
"626 780 OFFCURVE",
"598 756 OFFCURVE",
"566 723 CURVE SMOOTH",
"555 712 OFFCURVE",
"546 700 OFFCURVE",
"539 689 CURVE SMOOTH",
"534 682 OFFCURVE",
"531 679 OFFCURVE",
"531 678 CURVE SMOOTH",
"531 677 OFFCURVE",
"532 677 OFFCURVE",
"533 677 CURVE SMOOTH",
"540 677 OFFCURVE",
"557 686 OFFCURVE",
"586 703 CURVE SMOOTH",
"615 720 OFFCURVE",
"644 739 OFFCURVE",
"673 762 CURVE SMOOTH"
);
},
{
closed = 1;
nodes = (
"597 525 OFFCURVE",
"600 540 OFFCURVE",
"600 553 CURVE SMOOTH",
"600 596 OFFCURVE",
"576 623 OFFCURVE",
"540 623 CURVE SMOOTH",
"483 623 OFFCURVE",
"375 585 OFFCURVE",
"282 505 CURVE SMOOTH",
"210 442 OFFCURVE",
"151 371 OFFCURVE",
"127 315 CURVE SMOOTH",
"120 298 OFFCURVE",
"116 283 OFFCURVE",
"116 270 CURVE SMOOTH",
"116 235 OFFCURVE",
"142 215 OFFCURVE",
"198 215 CURVE SMOOTH",
"230 215 OFFCURVE",
"265 224 OFFCURVE",
"302 242 CURVE SMOOTH",
"334 257 OFFCURVE",
"369 279 OFFCURVE",
"380 286 CURVE SMOOTH",
"384 289 OFFCURVE",
"386 291 OFFCURVE",
"386 292 CURVE",
"388 294 OFFCURVE",
"386 295 OFFCURVE",
"380 295 CURVE SMOOTH",
"375 295 OFFCURVE",
"368 293 OFFCURVE",
"361 289 CURVE SMOOTH",
"321 264 OFFCURVE",
"258 242 OFFCURVE",
"198 242 CURVE SMOOTH",
"179 242 OFFCURVE",
"169 251 OFFCURVE",
"169 269 CURVE SMOOTH",
"169 284 OFFCURVE",
"176 304 OFFCURVE",
"189 327 CURVE SMOOTH",
"216 378 OFFCURVE",
"266 440 OFFCURVE",
"323 488 CURVE SMOOTH",
"387 543 OFFCURVE",
"477 585 OFFCURVE",
"520 585 CURVE SMOOTH",
"551 585 OFFCURVE",
"566 571 OFFCURVE",
"566 542 CURVE SMOOTH",
"566 533 OFFCURVE",
"564 521 OFFCURVE",
"560 507 CURVE SMOOTH",
"517 374 OFFCURVE",
"420 222 OFFCURVE",
"329 118 CURVE SMOOTH",
"264 42 OFFCURVE",
"155 -49 OFFCURVE",
"56 -78 CURVE SMOOTH",
"45 -81 OFFCURVE",
"40 -79 OFFCURVE",
"40 -71 CURVE SMOOTH",
"40 -69 OFFCURVE",
"41 -66 OFFCURVE",
"42 -62 CURVE SMOOTH",
"49 -38 LINE",
"51 -34 OFFCURVE",
"52 -30 OFFCURVE",
"52 -25 CURVE SMOOTH",
"52 -18 OFFCURVE",
"48 -15 OFFCURVE",
"41 -15 CURVE SMOOTH",
"38 -15 LINE",
"14 -19 OFFCURVE",
"-4 -43 OFFCURVE",
"-4 -68 CURVE SMOOTH",
"-4 -91 OFFCURVE",
"8 -108 OFFCURVE",
"35 -108 CURVE SMOOTH",
"44 -108 OFFCURVE",
"52 -107 OFFCURVE",
"60 -104 CURVE SMOOTH",
"167 -72 OFFCURVE",
"265 11 OFFCURVE",
"356 102 CURVE SMOOTH",
"357 103 LINE SMOOTH",
"448 194 OFFCURVE",
"544 355 OFFCURVE",
"592 507 CURVE SMOOTH"
);
}
);
width = 558;
}
);
note = Iacute;
unicode = 00CD;
},
{
glyphname = Icircumflex;
layers = (
{
layerId = "979483E7-D034-4361-86D9-396A77A90835";
paths = (
{
closed = 1;
nodes = (
"691 673 LINE",
"691 681 LINE",
"663 720 OFFCURVE",
"647 743 OFFCURVE",
"638 774 CURVE",
"634 776 LINE",
"617 773 OFFCURVE",
"467 690 OFFCURVE",
"460 679 CURVE",
"459 675 OFFCURVE",
"459 670 OFFCURVE",
"462 670 CURVE SMOOTH",
"470 670 OFFCURVE",
"565 721 OFFCURVE",
"602 742 CURVE",
"610 721 OFFCURVE",
"661 668 OFFCURVE",
"684 667 CURVE"
);
},
{
closed = 1;
nodes = (
"597 525 OFFCURVE",
"600 540 OFFCURVE",
"600 553 CURVE SMOOTH",
"600 596 OFFCURVE",
"576 623 OFFCURVE",
"540 623 CURVE SMOOTH",
"483 623 OFFCURVE",
"375 585 OFFCURVE",
"282 505 CURVE SMOOTH",
"210 442 OFFCURVE",
"151 371 OFFCURVE",
"127 315 CURVE SMOOTH",
"120 298 OFFCURVE",
"116 283 OFFCURVE",
"116 270 CURVE SMOOTH",
"116 235 OFFCURVE",
"142 215 OFFCURVE",
"198 215 CURVE SMOOTH",
"230 215 OFFCURVE",
"265 224 OFFCURVE",
"302 242 CURVE SMOOTH",
"334 257 OFFCURVE",
"369 279 OFFCURVE",
"380 286 CURVE SMOOTH",
"384 289 OFFCURVE",
"386 291 OFFCURVE",
"386 292 CURVE",
"388 294 OFFCURVE",
"386 295 OFFCURVE",
"380 295 CURVE SMOOTH",
"375 295 OFFCURVE",
"368 293 OFFCURVE",
"361 289 CURVE SMOOTH",
"321 264 OFFCURVE",
"258 242 OFFCURVE",
"198 242 CURVE SMOOTH",
"179 242 OFFCURVE",
"169 251 OFFCURVE",
"169 269 CURVE SMOOTH",
"169 284 OFFCURVE",
"176 304 OFFCURVE",
"189 327 CURVE SMOOTH",
"216 378 OFFCURVE",
"266 440 OFFCURVE",
"323 488 CURVE SMOOTH",
"387 543 OFFCURVE",
"477 585 OFFCURVE",
"520 585 CURVE SMOOTH",
"551 585 OFFCURVE",
"566 571 OFFCURVE",
"566 542 CURVE SMOOTH",
"566 533 OFFCURVE",
"564 521 OFFCURVE",
"560 507 CURVE SMOOTH",
"517 374 OFFCURVE",
"420 222 OFFCURVE",
"329 118 CURVE SMOOTH",
"264 42 OFFCURVE",
"155 -49 OFFCURVE",
"56 -78 CURVE SMOOTH",
"45 -81 OFFCURVE",
"40 -79 OFFCURVE",
"40 -71 CURVE SMOOTH",
"40 -69 OFFCURVE",
"41 -66 OFFCURVE",
"42 -62 CURVE SMOOTH",
"49 -38 LINE",
"51 -34 OFFCURVE",
"52 -30 OFFCURVE",
"52 -25 CURVE SMOOTH",
"52 -18 OFFCURVE",
"48 -15 OFFCURVE",
"41 -15 CURVE SMOOTH",
"38 -15 LINE",
"14 -19 OFFCURVE",
"-4 -43 OFFCURVE",
"-4 -68 CURVE SMOOTH",
"-4 -91 OFFCURVE",
"8 -108 OFFCURVE",
"35 -108 CURVE SMOOTH",
"44 -108 OFFCURVE",
"52 -107 OFFCURVE",
"60 -104 CURVE SMOOTH",
"167 -72 OFFCURVE",
"265 11 OFFCURVE",
"356 102 CURVE SMOOTH",
"357 103 LINE SMOOTH",
"448 194 OFFCURVE",
"544 355 OFFCURVE",
"592 507 CURVE SMOOTH"
);
}
);
width = 558;
}
);
note = Icircumflex;
unicode = 00CE;
},
{
glyphname = Idieresis;
layers = (
{
layerId = "979483E7-D034-4361-86D9-396A77A90835";
paths = (
{
closed = 1;
nodes = (
"558 758 OFFCURVE",
"557 759 OFFCURVE",
"555 758 CURVE SMOOTH",
"553 757 OFFCURVE",
"550 756 OFFCURVE",
"547 755 CURVE SMOOTH",
"540 752 OFFCURVE",
"524 744 OFFCURVE",
"500 731 CURVE SMOOTH",
"497 729 OFFCURVE",
"496 726 OFFCURVE",
"496 722 CURVE SMOOTH",
"496 720 OFFCURVE",
"497 715 OFFCURVE",
"499 707 CURVE SMOOTH",
"500 702 LINE SMOOTH",
"500 701 OFFCURVE",
"501 697 OFFCURVE",
"505 697 CURVE SMOOTH",
"516 697 OFFCURVE",
"523 698 OFFCURVE",
"526 700 CURVE",
"542 703 LINE",
"547 705 OFFCURVE",
"549 707 OFFCURVE",
"549 709 CURVE SMOOTH",
"549 716 OFFCURVE",
"551 727 OFFCURVE",
"554 740 CURVE SMOOTH",
"558 751 LINE SMOOTH",
"559 753 OFFCURVE",
"559 755 OFFCURVE",
"558 756 CURVE"
);
},
{
closed = 1;
nodes = (
"667 758 OFFCURVE",
"666 759 OFFCURVE",
"664 758 CURVE SMOOTH",
"662 757 OFFCURVE",
"659 756 OFFCURVE",
"656 755 CURVE SMOOTH",
"649 752 OFFCURVE",
"633 744 OFFCURVE",
"609 731 CURVE SMOOTH",
"606 729 OFFCURVE",
"605 726 OFFCURVE",
"605 722 CURVE SMOOTH",
"605 720 OFFCURVE",
"606 715 OFFCURVE",
"608 707 CURVE",
"609 706 OFFCURVE",
"609 704 OFFCURVE",
"609 702 CURVE",
"610 699 OFFCURVE",
"612 697 OFFCURVE",
"615 697 CURVE SMOOTH",
"626 697 OFFCURVE",
"633 698 OFFCURVE",
"636 700 CURVE",
"651 703 LINE",
"656 705 OFFCURVE",
"658 707 OFFCURVE",
"658 709 CURVE SMOOTH",
"658 719 OFFCURVE",
"660 729 OFFCURVE",
"664 740 CURVE SMOOTH",
"667 751 LINE SMOOTH",
"668 754 OFFCURVE",
"668 756 OFFCURVE",
"667 756 CURVE"
);
},
{
closed = 1;
nodes = (
"597 525 OFFCURVE",
"600 540 OFFCURVE",
"600 553 CURVE SMOOTH",
"600 596 OFFCURVE",
"576 623 OFFCURVE",
"540 623 CURVE SMOOTH",
"483 623 OFFCURVE",
"375 585 OFFCURVE",
"282 505 CURVE SMOOTH",
"210 442 OFFCURVE",
"151 371 OFFCURVE",
"127 315 CURVE SMOOTH",
"120 298 OFFCURVE",
"116 283 OFFCURVE",
"116 270 CURVE SMOOTH",
"116 235 OFFCURVE",
"142 215 OFFCURVE",
"198 215 CURVE SMOOTH",
"230 215 OFFCURVE",
"265 224 OFFCURVE",
"302 242 CURVE SMOOTH",
"334 257 OFFCURVE",
"369 279 OFFCURVE",
"380 286 CURVE SMOOTH",
"384 289 OFFCURVE",
"386 291 OFFCURVE",
"386 292 CURVE",
"388 294 OFFCURVE",
"386 295 OFFCURVE",
"380 295 CURVE SMOOTH",
"375 295 OFFCURVE",
"368 293 OFFCURVE",
"361 289 CURVE SMOOTH",
"321 264 OFFCURVE",
"258 242 OFFCURVE",
"198 242 CURVE SMOOTH",
"179 242 OFFCURVE",
"169 251 OFFCURVE",
"169 269 CURVE SMOOTH",
"169 284 OFFCURVE",
"176 304 OFFCURVE",
"189 327 CURVE SMOOTH",
"216 378 OFFCURVE",
"266 440 OFFCURVE",
"323 488 CURVE SMOOTH",
"387 543 OFFCURVE",
"477 585 OFFCURVE",
"520 585 CURVE SMOOTH",
"551 585 OFFCURVE",
"566 571 OFFCURVE",
"566 542 CURVE SMOOTH",
"566 533 OFFCURVE",
"564 521 OFFCURVE",
"560 507 CURVE SMOOTH",
"517 374 OFFCURVE",
"420 222 OFFCURVE",
"329 118 CURVE SMOOTH",
"264 42 OFFCURVE",
"155 -49 OFFCURVE",
"56 -78 CURVE SMOOTH",
"45 -81 OFFCURVE",
"40 -79 OFFCURVE",
"40 -71 CURVE SMOOTH",
"40 -69 OFFCURVE",
"41 -66 OFFCURVE",
"42 -62 CURVE SMOOTH",
"49 -38 LINE",
"51 -34 OFFCURVE",
"52 -30 OFFCURVE",
"52 -25 CURVE SMOOTH",
"52 -18 OFFCURVE",
"48 -15 OFFCURVE",
"41 -15 CURVE SMOOTH",
"38 -15 LINE",
"14 -19 OFFCURVE",
"-4 -43 OFFCURVE",
"-4 -68 CURVE SMOOTH",
"-4 -91 OFFCURVE",
"8 -108 OFFCURVE",
"35 -108 CURVE SMOOTH",
"44 -108 OFFCURVE",
"52 -107 OFFCURVE",
"60 -104 CURVE SMOOTH",
"167 -72 OFFCURVE",
"265 11 OFFCURVE",
"356 102 CURVE SMOOTH",
"357 103 LINE SMOOTH",
"448 194 OFFCURVE",
"544 355 OFFCURVE",
"592 507 CURVE SMOOTH"
);
}
);
width = 558;
}
);
note = Idieresis;
unicode = 00CF;
},
{
glyphname = Idotaccent;
lastChange = "2021-04-20 16:28:14 +0000";
layers = (
{
layerId = "979483E7-D034-4361-86D9-396A77A90835";
paths = (
{
closed = 1;
nodes = (
"615 789 LINE",
"615 788 LINE",
"614 789 OFFCURVE",
"613 789 OFFCURVE",
"612 789 CURVE SMOOTH",
"591 789 OFFCURVE",
"536 753 OFFCURVE",
"536 732 CURVE SMOOTH",
"536 721 OFFCURVE",
"548 703 OFFCURVE",
"557 703 CURVE SMOOTH",
"573 703 OFFCURVE",
"581 718 OFFCURVE",
"590 746 CURVE SMOOTH",
"595 760 OFFCURVE",
"599 768 OFFCURVE",
"601 770 CURVE",
"602 772 OFFCURVE",
"605 775 OFFCURVE",
"610 780 CURVE SMOOTH",
"614 784 OFFCURVE",
"616 786 OFFCURVE",
"616 787 CURVE"
);
},
{
closed = 1;
nodes = (
"597 525 OFFCURVE",
"600 540 OFFCURVE",
"600 553 CURVE SMOOTH",
"600 596 OFFCURVE",
"576 623 OFFCURVE",
"540 623 CURVE SMOOTH",
"483 623 OFFCURVE",
"375 585 OFFCURVE",
"282 505 CURVE SMOOTH",
"210 442 OFFCURVE",
"151 371 OFFCURVE",
"127 315 CURVE SMOOTH",
"120 298 OFFCURVE",
"116 283 OFFCURVE",
"116 270 CURVE SMOOTH",
"116 235 OFFCURVE",
"142 215 OFFCURVE",
"198 215 CURVE SMOOTH",
"230 215 OFFCURVE",
"265 224 OFFCURVE",
"302 242 CURVE SMOOTH",
"334 257 OFFCURVE",
"369 279 OFFCURVE",
"380 286 CURVE SMOOTH",
"384 289 OFFCURVE",
"386 291 OFFCURVE",
"386 292 CURVE",
"388 294 OFFCURVE",
"386 295 OFFCURVE",
"380 295 CURVE SMOOTH",
"375 295 OFFCURVE",
"368 293 OFFCURVE",
"361 289 CURVE SMOOTH",
"321 264 OFFCURVE",
"258 242 OFFCURVE",
"198 242 CURVE SMOOTH",
"179 242 OFFCURVE",
"169 251 OFFCURVE",
"169 269 CURVE SMOOTH",
"169 284 OFFCURVE",
"176 304 OFFCURVE",
"189 327 CURVE SMOOTH",
"216 378 OFFCURVE",
"266 440 OFFCURVE",
"323 488 CURVE SMOOTH",
"387 543 OFFCURVE",
"477 585 OFFCURVE",
"520 585 CURVE SMOOTH",
"551 585 OFFCURVE",
"566 571 OFFCURVE",
"566 542 CURVE SMOOTH",
"566 533 OFFCURVE",
"564 521 OFFCURVE",
"560 507 CURVE SMOOTH",
"517 374 OFFCURVE",
"420 222 OFFCURVE",
"329 118 CURVE SMOOTH",
"264 42 OFFCURVE",
"155 -49 OFFCURVE",
"56 -78 CURVE SMOOTH",
"45 -81 OFFCURVE",
"40 -79 OFFCURVE",
"40 -71 CURVE SMOOTH",
"40 -69 OFFCURVE",
"41 -66 OFFCURVE",
"42 -62 CURVE SMOOTH",
"49 -38 LINE",
"51 -34 OFFCURVE",
"52 -30 OFFCURVE",
"52 -25 CURVE SMOOTH",
"52 -18 OFFCURVE",
"48 -15 OFFCURVE",
"41 -15 CURVE SMOOTH",
"38 -15 LINE",
"14 -19 OFFCURVE",
"-4 -43 OFFCURVE",
"-4 -68 CURVE SMOOTH",
"-4 -91 OFFCURVE",
"8 -108 OFFCURVE",
"35 -108 CURVE SMOOTH",
"44 -108 OFFCURVE",
"52 -107 OFFCURVE",
"60 -104 CURVE SMOOTH",
"167 -72 OFFCURVE",
"265 11 OFFCURVE",
"356 102 CURVE SMOOTH",
"357 103 LINE SMOOTH",
"448 194 OFFCURVE",
"544 355 OFFCURVE",
"592 507 CURVE SMOOTH"
);
}
);
width = 434;
}
);
note = Idotaccent;
unicode = 0130;
},
{
glyphname = Igrave;
layers = (
{
layerId = "979483E7-D034-4361-86D9-396A77A90835";
paths = (
{
closed = 1;
nodes = (
"634 685 OFFCURVE",
"573 741 OFFCURVE",
"521 776 CURVE",
"516 781 OFFCURVE",
"505 777 OFFCURVE",
"496 768 CURVE SMOOTH",
"489 761 OFFCURVE",
"485 754 OFFCURVE",
"485 749 CURVE SMOOTH",
"485 747 OFFCURVE",
"486 745 OFFCURVE",
"487 744 CURVE SMOOTH",
"535 708 OFFCURVE",
"600 675 OFFCURVE",
"627 664 CURVE"
);
},
{
closed = 1;
nodes = (
"597 525 OFFCURVE",
"600 540 OFFCURVE",
"600 553 CURVE SMOOTH",
"600 596 OFFCURVE",
"576 623 OFFCURVE",
"540 623 CURVE SMOOTH",
"483 623 OFFCURVE",
"375 585 OFFCURVE",
"282 505 CURVE SMOOTH",
"210 442 OFFCURVE",
"151 371 OFFCURVE",
"127 315 CURVE SMOOTH",
"120 298 OFFCURVE",
"116 283 OFFCURVE",
"116 270 CURVE SMOOTH",
"116 235 OFFCURVE",
"142 215 OFFCURVE",
"198 215 CURVE SMOOTH",
"230 215 OFFCURVE",
"265 224 OFFCURVE",
"302 242 CURVE SMOOTH",
"334 257 OFFCURVE",
"369 279 OFFCURVE",
"380 286 CURVE SMOOTH",
"384 289 OFFCURVE",
"386 291 OFFCURVE",
"386 292 CURVE",
"388 294 OFFCURVE",
"386 295 OFFCURVE",
"380 295 CURVE SMOOTH",
"375 295 OFFCURVE",
"368 293 OFFCURVE",
"361 289 CURVE SMOOTH",
"321 264 OFFCURVE",
"258 242 OFFCURVE",
"198 242 CURVE SMOOTH",
"179 242 OFFCURVE",
"169 251 OFFCURVE",
"169 269 CURVE SMOOTH",
"169 284 OFFCURVE",
"176 304 OFFCURVE",
"189 327 CURVE SMOOTH",
"216 378 OFFCURVE",
"266 440 OFFCURVE",
"323 488 CURVE SMOOTH",
"387 543 OFFCURVE",
"477 585 OFFCURVE",
"520 585 CURVE SMOOTH",
"551 585 OFFCURVE",
"566 571 OFFCURVE",
"566 542 CURVE SMOOTH",
"566 533 OFFCURVE",
"564 521 OFFCURVE",
"560 507 CURVE SMOOTH",
"517 374 OFFCURVE",
"420 222 OFFCURVE",
"329 118 CURVE SMOOTH",
"264 42 OFFCURVE",
"155 -49 OFFCURVE",
"56 -78 CURVE SMOOTH",
"45 -81 OFFCURVE",
"40 -79 OFFCURVE",
"40 -71 CURVE SMOOTH",
"40 -69 OFFCURVE",
"41 -66 OFFCURVE",
"42 -62 CURVE SMOOTH",
"49 -38 LINE",
"51 -34 OFFCURVE",
"52 -30 OFFCURVE",
"52 -25 CURVE SMOOTH",
"52 -18 OFFCURVE",
"48 -15 OFFCURVE",
"41 -15 CURVE SMOOTH",
"38 -15 LINE",
"14 -19 OFFCURVE",
"-4 -43 OFFCURVE",
"-4 -68 CURVE SMOOTH",
"-4 -91 OFFCURVE",
"8 -108 OFFCURVE",
"35 -108 CURVE SMOOTH",
"44 -108 OFFCURVE",
"52 -107 OFFCURVE",
"60 -104 CURVE SMOOTH",
"167 -72 OFFCURVE",
"265 11 OFFCURVE",
"356 102 CURVE SMOOTH",
"357 103 LINE SMOOTH",
"448 194 OFFCURVE",
"544 355 OFFCURVE",
"592 507 CURVE SMOOTH"
);
}
);
width = 558;
}
);
note = Igrave;
unicode = 00CC;
},
{
glyphname = Imacron;
lastChange = "2021-04-20 16:28:14 +0000";
layers = (
{
layerId = "979483E7-D034-4361-86D9-396A77A90835";
paths = (
{
closed = 1;
nodes = (
"459 705 LINE SMOOTH",
"474 706 OFFCURVE",
"494 707 OFFCURVE",
"521 710 CURVE SMOOTH",
"528 711 OFFCURVE",
"538 713 OFFCURVE",
"553 714 CURVE SMOOTH",
"577 717 OFFCURVE",
"595 717 OFFCURVE",
"607 717 CURVE SMOOTH",
"615 717 OFFCURVE",
"633 720 OFFCURVE",
"633 725 CURVE SMOOTH",
"633 733 OFFCURVE",
"610 735 OFFCURVE",
"607 735 CURVE SMOOTH",
"566 740 OFFCURVE",
"535 743 OFFCURVE",
"514 743 CURVE SMOOTH",
"495 743 OFFCURVE",
"480 741 OFFCURVE",
"469 737 CURVE SMOOTH",
"458 734 OFFCURVE",
"434 721 OFFCURVE",
"434 712 CURVE SMOOTH",
"434 707 OFFCURVE",
"441 705 OFFCURVE",
"454 705 CURVE SMOOTH"
);
},
{
closed = 1;
nodes = (
"597 525 OFFCURVE",
"600 540 OFFCURVE",
"600 553 CURVE SMOOTH",
"600 596 OFFCURVE",
"576 623 OFFCURVE",
"540 623 CURVE SMOOTH",
"483 623 OFFCURVE",
"375 585 OFFCURVE",
"282 505 CURVE SMOOTH",
"210 442 OFFCURVE",
"151 371 OFFCURVE",
"127 315 CURVE SMOOTH",
"120 298 OFFCURVE",
"116 283 OFFCURVE",
"116 270 CURVE SMOOTH",
"116 235 OFFCURVE",
"142 215 OFFCURVE",
"198 215 CURVE SMOOTH",
"230 215 OFFCURVE",
"265 224 OFFCURVE",
"302 242 CURVE SMOOTH",
"334 257 OFFCURVE",
"369 279 OFFCURVE",
"380 286 CURVE SMOOTH",
"384 289 OFFCURVE",
"386 291 OFFCURVE",
"386 292 CURVE",
"388 294 OFFCURVE",
"386 295 OFFCURVE",
"380 295 CURVE SMOOTH",
"375 295 OFFCURVE",
"368 293 OFFCURVE",
"361 289 CURVE SMOOTH",
"321 264 OFFCURVE",
"258 242 OFFCURVE",
"198 242 CURVE SMOOTH",
"179 242 OFFCURVE",
"169 251 OFFCURVE",
"169 269 CURVE SMOOTH",
"169 284 OFFCURVE",
"176 304 OFFCURVE",
"189 327 CURVE SMOOTH",
"216 378 OFFCURVE",
"266 440 OFFCURVE",
"323 488 CURVE SMOOTH",
"387 543 OFFCURVE",
"477 585 OFFCURVE",
"520 585 CURVE SMOOTH",
"551 585 OFFCURVE",
"566 571 OFFCURVE",
"566 542 CURVE SMOOTH",
"566 533 OFFCURVE",
"564 521 OFFCURVE",
"560 507 CURVE SMOOTH",
"517 374 OFFCURVE",
"420 222 OFFCURVE",
"329 118 CURVE SMOOTH",
"264 42 OFFCURVE",
"155 -49 OFFCURVE",
"56 -78 CURVE SMOOTH",
"45 -81 OFFCURVE",
"40 -79 OFFCURVE",
"40 -71 CURVE SMOOTH",
"40 -69 OFFCURVE",
"41 -66 OFFCURVE",
"42 -62 CURVE SMOOTH",
"49 -38 LINE",
"51 -34 OFFCURVE",
"52 -30 OFFCURVE",
"52 -25 CURVE SMOOTH",
"52 -18 OFFCURVE",
"48 -15 OFFCURVE",
"41 -15 CURVE SMOOTH",
"38 -15 LINE",
"14 -19 OFFCURVE",
"-4 -43 OFFCURVE",
"-4 -68 CURVE SMOOTH",
"-4 -91 OFFCURVE",
"8 -108 OFFCURVE",
"35 -108 CURVE SMOOTH",
"44 -108 OFFCURVE",
"52 -107 OFFCURVE",
"60 -104 CURVE SMOOTH",
"167 -72 OFFCURVE",
"265 11 OFFCURVE",
"356 102 CURVE SMOOTH",
"357 103 LINE SMOOTH",
"448 194 OFFCURVE",
"544 355 OFFCURVE",
"592 507 CURVE SMOOTH"
);
}
);
width = 434;
}
);
note = Imacron;
unicode = 012A;
},
{
glyphname = Iogonek;
lastChange = "2021-04-20 16:28:14 +0000";
layers = (
{
layerId = "979483E7-D034-4361-86D9-396A77A90835";
paths = (
{
closed = 1;
nodes = (
"182 -194 OFFCURVE",
"178 -190 OFFCURVE",
"171 -190 CURVE SMOOTH",
"170 -190 OFFCURVE",
"160 -194 OFFCURVE",
"142 -202 CURVE SMOOTH",
"124 -209 OFFCURVE",
"109 -213 OFFCURVE",
"96 -213 CURVE SMOOTH",
"69 -213 OFFCURVE",
"51 -199 OFFCURVE",
"51 -172 CURVE SMOOTH",
"51 -153 OFFCURVE",
"59 -128 OFFCURVE",
"75 -99 CURVE",
"158 -70 OFFCURVE",
"251 -3 OFFCURVE",
"356 102 CURVE SMOOTH",
"357 103 LINE SMOOTH",
"448 194 OFFCURVE",
"544 355 OFFCURVE",
"592 507 CURVE SMOOTH",
"597 525 OFFCURVE",
"600 540 OFFCURVE",
"600 553 CURVE SMOOTH",
"600 596 OFFCURVE",
"576 623 OFFCURVE",
"540 623 CURVE SMOOTH",
"483 623 OFFCURVE",
"375 585 OFFCURVE",
"282 505 CURVE SMOOTH",
"210 442 OFFCURVE",
"151 371 OFFCURVE",
"127 315 CURVE SMOOTH",
"120 298 OFFCURVE",
"116 283 OFFCURVE",
"116 270 CURVE SMOOTH",
"116 235 OFFCURVE",
"142 215 OFFCURVE",
"198 215 CURVE SMOOTH",
"230 215 OFFCURVE",
"265 224 OFFCURVE",
"302 242 CURVE SMOOTH",
"334 257 OFFCURVE",
"369 279 OFFCURVE",
"380 286 CURVE SMOOTH",
"384 289 OFFCURVE",
"386 291 OFFCURVE",
"386 292 CURVE",
"388 294 OFFCURVE",
"386 295 OFFCURVE",
"380 295 CURVE SMOOTH",
"375 295 OFFCURVE",
"368 293 OFFCURVE",
"361 289 CURVE SMOOTH",
"321 264 OFFCURVE",
"258 242 OFFCURVE",
"198 242 CURVE SMOOTH",
"179 242 OFFCURVE",
"169 251 OFFCURVE",
"169 269 CURVE SMOOTH",
"169 284 OFFCURVE",
"176 304 OFFCURVE",
"189 327 CURVE SMOOTH",
"216 378 OFFCURVE",
"266 440 OFFCURVE",
"323 488 CURVE SMOOTH",
"387 543 OFFCURVE",
"477 585 OFFCURVE",
"520 585 CURVE SMOOTH",
"551 585 OFFCURVE",
"566 571 OFFCURVE",
"566 542 CURVE SMOOTH",
"566 533 OFFCURVE",
"564 521 OFFCURVE",
"560 507 CURVE SMOOTH",
"517 374 OFFCURVE",
"420 222 OFFCURVE",
"329 118 CURVE SMOOTH",
"264 42 OFFCURVE",
"155 -49 OFFCURVE",
"56 -78 CURVE SMOOTH",
"45 -81 OFFCURVE",
"40 -79 OFFCURVE",
"40 -71 CURVE SMOOTH",
"40 -69 OFFCURVE",
"41 -66 OFFCURVE",
"42 -62 CURVE SMOOTH",
"49 -38 LINE",
"51 -34 OFFCURVE",
"52 -30 OFFCURVE",
"52 -25 CURVE SMOOTH",
"52 -18 OFFCURVE",
"48 -15 OFFCURVE",
"41 -15 CURVE SMOOTH",
"38 -15 LINE",
"14 -19 OFFCURVE",
"-4 -43 OFFCURVE",
"-4 -68 CURVE SMOOTH",
"-4 -91 OFFCURVE",
"8 -108 OFFCURVE",
"35 -108 CURVE SMOOTH",
"38 -108 OFFCURVE",
"43 -107 OFFCURVE",
"51 -106 CURVE",
"34 -133 OFFCURVE",
"19 -179 OFFCURVE",
"19 -199 CURVE SMOOTH",
"19 -228 OFFCURVE",
"43 -241 OFFCURVE",
"74 -241 CURVE SMOOTH",
"92 -241 OFFCURVE",
"182 -219 OFFCURVE",
"182 -199 CURVE SMOOTH"
);
}
);
width = 434;
}
);
note = Iogonek;
unicode = 012E;
},
{
glyphname = Itilde;
lastChange = "2021-04-20 16:28:14 +0000";
layers = (
{
layerId = "979483E7-D034-4361-86D9-396A77A90835";
paths = (
{
closed = 1;
nodes = (
"659 764 OFFCURVE",
"645 757 OFFCURVE",
"629 757 CURVE SMOOTH",
"619 757 OFFCURVE",
"603 760 OFFCURVE",
"582 767 CURVE SMOOTH",
"563 774 OFFCURVE",
"547 778 OFFCURVE",
"534 778 CURVE SMOOTH",
"521 778 OFFCURVE",
"509 775 OFFCURVE",
"498 768 CURVE SMOOTH",
"485 761 OFFCURVE",
"455 736 OFFCURVE",
"455 727 CURVE",
"456 725 LINE",
"473 725 OFFCURVE",
"489 751 OFFCURVE",
"511 751 CURVE SMOOTH",
"521 751 OFFCURVE",
"531 749 OFFCURVE",
"542 745 CURVE SMOOTH",
"552 741 OFFCURVE",
"558 739 OFFCURVE",
"560 738 CURVE SMOOTH",
"581 729 OFFCURVE",
"594 724 OFFCURVE",
"610 724 CURVE SMOOTH",
"619 724 OFFCURVE",
"628 727 OFFCURVE",
"637 732 CURVE SMOOTH",
"652 741 OFFCURVE",
"677 765 OFFCURVE",
"677 774 CURVE SMOOTH",
"677 777 OFFCURVE",
"675 778 OFFCURVE",
"671 778 CURVE"
);
},
{
closed = 1;
nodes = (
"597 525 OFFCURVE",
"600 540 OFFCURVE",
"600 553 CURVE SMOOTH",
"600 596 OFFCURVE",
"576 623 OFFCURVE",
"540 623 CURVE SMOOTH",
"483 623 OFFCURVE",
"375 585 OFFCURVE",
"282 505 CURVE SMOOTH",
"210 442 OFFCURVE",
"151 371 OFFCURVE",
"127 315 CURVE SMOOTH",
"120 298 OFFCURVE",
"116 283 OFFCURVE",
"116 270 CURVE SMOOTH",
"116 235 OFFCURVE",
"142 215 OFFCURVE",
"198 215 CURVE SMOOTH",
"230 215 OFFCURVE",
"265 224 OFFCURVE",
"302 242 CURVE SMOOTH",
"334 257 OFFCURVE",
"369 279 OFFCURVE",
"380 286 CURVE SMOOTH",
"384 289 OFFCURVE",
"386 291 OFFCURVE",
"386 292 CURVE",
"388 294 OFFCURVE",
"386 295 OFFCURVE",
"380 295 CURVE SMOOTH",
"375 295 OFFCURVE",
"368 293 OFFCURVE",
"361 289 CURVE SMOOTH",
"321 264 OFFCURVE",
"258 242 OFFCURVE",
"198 242 CURVE SMOOTH",
"179 242 OFFCURVE",
"169 251 OFFCURVE",
"169 269 CURVE SMOOTH",
"169 284 OFFCURVE",
"176 304 OFFCURVE",
"189 327 CURVE SMOOTH",
"216 378 OFFCURVE",
"266 440 OFFCURVE",
"323 488 CURVE SMOOTH",
"387 543 OFFCURVE",
"477 585 OFFCURVE",
"520 585 CURVE SMOOTH",
"551 585 OFFCURVE",
"566 571 OFFCURVE",
"566 542 CURVE SMOOTH",
"566 533 OFFCURVE",
"564 521 OFFCURVE",
"560 507 CURVE SMOOTH",
"517 374 OFFCURVE",
"420 222 OFFCURVE",
"329 118 CURVE SMOOTH",
"264 42 OFFCURVE",
"155 -49 OFFCURVE",
"56 -78 CURVE SMOOTH",
"45 -81 OFFCURVE",
"40 -79 OFFCURVE",
"40 -71 CURVE SMOOTH",
"40 -69 OFFCURVE",
"41 -66 OFFCURVE",
"42 -62 CURVE SMOOTH",
"49 -38 LINE",
"51 -34 OFFCURVE",
"52 -30 OFFCURVE",
"52 -25 CURVE SMOOTH",
"52 -18 OFFCURVE",
"48 -15 OFFCURVE",
"41 -15 CURVE SMOOTH",
"38 -15 LINE",
"14 -19 OFFCURVE",
"-4 -43 OFFCURVE",
"-4 -68 CURVE SMOOTH",
"-4 -91 OFFCURVE",
"8 -108 OFFCURVE",
"35 -108 CURVE SMOOTH",
"44 -108 OFFCURVE",
"52 -107 OFFCURVE",
"60 -104 CURVE SMOOTH",
"167 -72 OFFCURVE",
"265 11 OFFCURVE",
"356 102 CURVE SMOOTH",
"357 103 LINE SMOOTH",
"448 194 OFFCURVE",
"544 355 OFFCURVE",
"592 507 CURVE SMOOTH"
);
}
);
width = 434;
}
);
note = Itilde;
unicode = 0128;
},
{
glyphname = J;
layers = (
{
layerId = "979483E7-D034-4361-86D9-396A77A90835";
paths = (
{
closed = 1;
nodes = (
"566 545 OFFCURVE",
"567 552 OFFCURVE",
"567 557 CURVE SMOOTH",
"567 605 OFFCURVE",
"540 633 OFFCURVE",
"500 633 CURVE SMOOTH",
"495 633 OFFCURVE",
"491 633 OFFCURVE",
"488 632 CURVE",
"431 624 OFFCURVE",
"329 571 OFFCURVE",
"246 478 CURVE SMOOTH",
"171 395 OFFCURVE",
"120 305 OFFCURVE",
"120 250 CURVE SMOOTH",
"120 217 OFFCURVE",
"140 197 OFFCURVE",
"180 197 CURVE SMOOTH",
"185 197 OFFCURVE",
"193 198 OFFCURVE",
"205 199 CURVE SMOOTH",
"266 208 OFFCURVE",
"320 240 OFFCURVE",
"385 291 CURVE SMOOTH",
"388 294 OFFCURVE",
"390 297 OFFCURVE",
"390 299 CURVE SMOOTH",
"390 300 OFFCURVE",
"389 300 OFFCURVE",
"388 300 CURVE SMOOTH",
"383 300 OFFCURVE",
"372 295 OFFCURVE",
"365 291 CURVE",
"328 260 OFFCURVE",
"267 229 OFFCURVE",
"204 218 CURVE SMOOTH",
"180 214 OFFCURVE",
"167 226 OFFCURVE",
"167 250 CURVE SMOOTH",
"167 264 OFFCURVE",
"170 280 OFFCURVE",
"177 297 CURVE SMOOTH",
"196 348 OFFCURVE",
"238 413 OFFCURVE",
"287 469 CURVE SMOOTH",
"304 490 OFFCURVE",
"373 543 OFFCURVE",
"426 570 CURVE SMOOTH",
"455 585 OFFCURVE",
"478 592 OFFCURVE",
"494 592 CURVE SMOOTH",
"517 592 OFFCURVE",
"528 578 OFFCURVE",
"528 551 CURVE SMOOTH",
"528 545 OFFCURVE",
"528 540 OFFCURVE",
"527 537 CURVE",
"514 428 OFFCURVE",
"477 321 OFFCURVE",
"416 215 CURVE",
"348 183 OFFCURVE",
"316 160 OFFCURVE",
"228 95 CURVE SMOOTH",
"152 38 OFFCURVE",
"47 -60 OFFCURVE",
"3 -123 CURVE SMOOTH",
"-13 -147 OFFCURVE",
"-23 -176 OFFCURVE",
"-23 -200 CURVE SMOOTH",
"-23 -227 OFFCURVE",
"-11 -244 OFFCURVE",
"13 -244 CURVE SMOOTH",
"34 -244 OFFCURVE",
"62 -232 OFFCURVE",
"96 -207 CURVE SMOOTH",
"221 -116 OFFCURVE",
"350 55 OFFCURVE",
"445 200 CURVE",
"462 206 OFFCURVE",
"481 215 OFFCURVE",
"502 226 CURVE SMOOTH",
"507 229 OFFCURVE",
"510 232 OFFCURVE",
"510 235 CURVE SMOOTH",
"510 239 OFFCURVE",
"505 241 OFFCURVE",
"496 241 CURVE SMOOTH",
"492 241 OFFCURVE",
"486 240 OFFCURVE",
"478 237 CURVE SMOOTH",
"462 230 LINE",
"516 332 OFFCURVE",
"550 434 OFFCURVE",
"565 536 CURVE SMOOTH"
);
},
{
closed = 1;
nodes = (
"380 157 OFFCURVE",
"367 135 OFFCURVE",
"351 110 CURVE SMOOTH",
"310 49 OFFCURVE",
"173 -94 OFFCURVE",
"90 -161 CURVE SMOOTH",
"67 -180 OFFCURVE",
"47 -189 OFFCURVE",
"30 -189 CURVE SMOOTH",
"25 -189 OFFCURVE",
"22 -189 OFFCURVE",
"21 -188 CURVE",
"14 -186 OFFCURVE",
"11 -181 OFFCURVE",
"11 -173 CURVE SMOOTH",
"11 -163 OFFCURVE",
"17 -150 OFFCURVE",
"28 -134 CURVE SMOOTH",
"72 -71 OFFCURVE",
"163 22 OFFCURVE",
"230 71 CURVE SMOOTH",
"267 99 OFFCURVE",
"294 119 OFFCURVE",
"311 130 CURVE SMOOTH",
"335 146 OFFCURVE",
"362 161 OFFCURVE",
"391 176 CURVE"
);
}
);
width = 413;
}
);
note = J;
unicode = 004A;
},
{
glyphname = Jcircumflex;
lastChange = "2021-04-20 16:28:14 +0000";
layers = (
{
layerId = "979483E7-D034-4361-86D9-396A77A90835";
paths = (
{
closed = 1;
nodes = (
"620 665 LINE",
"620 673 LINE",
"592 712 OFFCURVE",
"576 735 OFFCURVE",
"567 766 CURVE",
"563 768 LINE",
"546 765 OFFCURVE",
"396 682 OFFCURVE",
"389 671 CURVE",
"388 667 OFFCURVE",
"388 662 OFFCURVE",
"391 662 CURVE SMOOTH",
"399 662 OFFCURVE",
"494 713 OFFCURVE",
"531 734 CURVE",
"539 713 OFFCURVE",
"590 660 OFFCURVE",
"613 659 CURVE"
);
},
{
closed = 1;
nodes = (
"566 545 OFFCURVE",
"567 552 OFFCURVE",
"567 557 CURVE SMOOTH",
"567 605 OFFCURVE",
"540 633 OFFCURVE",
"500 633 CURVE SMOOTH",
"495 633 OFFCURVE",
"491 633 OFFCURVE",
"488 632 CURVE",
"431 624 OFFCURVE",
"329 571 OFFCURVE",
"246 478 CURVE SMOOTH",
"171 395 OFFCURVE",
"120 305 OFFCURVE",
"120 250 CURVE SMOOTH",
"120 217 OFFCURVE",
"140 197 OFFCURVE",
"180 197 CURVE SMOOTH",
"185 197 OFFCURVE",
"193 198 OFFCURVE",
"205 199 CURVE SMOOTH",
"266 208 OFFCURVE",
"320 240 OFFCURVE",
"385 291 CURVE SMOOTH",
"388 294 OFFCURVE",
"390 297 OFFCURVE",
"390 299 CURVE SMOOTH",
"390 300 OFFCURVE",
"389 300 OFFCURVE",
"388 300 CURVE SMOOTH",
"383 300 OFFCURVE",
"372 295 OFFCURVE",
"365 291 CURVE",
"328 260 OFFCURVE",
"267 229 OFFCURVE",
"204 218 CURVE SMOOTH",
"180 214 OFFCURVE",
"167 226 OFFCURVE",
"167 250 CURVE SMOOTH",
"167 264 OFFCURVE",
"170 280 OFFCURVE",
"177 297 CURVE SMOOTH",
"196 348 OFFCURVE",
"238 413 OFFCURVE",
"287 469 CURVE SMOOTH",
"304 490 OFFCURVE",
"373 543 OFFCURVE",
"426 570 CURVE SMOOTH",
"455 585 OFFCURVE",
"478 592 OFFCURVE",
"494 592 CURVE SMOOTH",
"517 592 OFFCURVE",
"528 578 OFFCURVE",
"528 551 CURVE SMOOTH",
"528 545 OFFCURVE",
"528 540 OFFCURVE",
"527 537 CURVE",
"514 428 OFFCURVE",
"477 321 OFFCURVE",
"416 215 CURVE",
"348 183 OFFCURVE",
"316 160 OFFCURVE",
"228 95 CURVE SMOOTH",
"152 38 OFFCURVE",
"47 -60 OFFCURVE",
"3 -123 CURVE SMOOTH",
"-13 -147 OFFCURVE",
"-23 -176 OFFCURVE",
"-23 -200 CURVE SMOOTH",
"-23 -227 OFFCURVE",
"-11 -244 OFFCURVE",
"13 -244 CURVE SMOOTH",
"34 -244 OFFCURVE",
"62 -232 OFFCURVE",
"96 -207 CURVE SMOOTH",
"221 -116 OFFCURVE",
"350 55 OFFCURVE",
"445 200 CURVE",
"462 206 OFFCURVE",
"481 215 OFFCURVE",
"502 226 CURVE SMOOTH",
"507 229 OFFCURVE",
"510 232 OFFCURVE",
"510 235 CURVE SMOOTH",
"510 239 OFFCURVE",
"505 241 OFFCURVE",
"496 241 CURVE SMOOTH",
"492 241 OFFCURVE",
"486 240 OFFCURVE",
"478 237 CURVE SMOOTH",
"462 230 LINE",
"516 332 OFFCURVE",
"550 434 OFFCURVE",
"565 536 CURVE SMOOTH"
);
},
{
closed = 1;
nodes = (
"380 157 OFFCURVE",
"367 135 OFFCURVE",
"351 110 CURVE SMOOTH",
"310 49 OFFCURVE",
"173 -94 OFFCURVE",
"90 -161 CURVE SMOOTH",
"67 -180 OFFCURVE",
"47 -189 OFFCURVE",
"30 -189 CURVE SMOOTH",
"25 -189 OFFCURVE",
"22 -189 OFFCURVE",
"21 -188 CURVE",
"14 -186 OFFCURVE",
"11 -181 OFFCURVE",
"11 -173 CURVE SMOOTH",
"11 -163 OFFCURVE",
"17 -150 OFFCURVE",
"28 -134 CURVE SMOOTH",
"72 -71 OFFCURVE",
"163 22 OFFCURVE",
"230 71 CURVE SMOOTH",
"267 99 OFFCURVE",
"294 119 OFFCURVE",
"311 130 CURVE SMOOTH",
"335 146 OFFCURVE",
"362 161 OFFCURVE",
"391 176 CURVE"
);
}
);
width = 413;
}
);
note = Jcircumflex;
unicode = 0134;
},
{
glyphname = K;
layers = (
{
layerId = "979483E7-D034-4361-86D9-396A77A90835";
paths = (
{
closed = 1;
nodes = (
"1033 558 OFFCURVE",
"1017 568 OFFCURVE",
"1001 568 CURVE SMOOTH",
"993 568 OFFCURVE",
"988 566 OFFCURVE",
"985 561 CURVE SMOOTH",
"978 551 OFFCURVE",
"974 538 OFFCURVE",
"971 523 CURVE",
"971 510 OFFCURVE",
"969 501 OFFCURVE",
"966 494 CURVE",
"923 418 OFFCURVE",
"866 354 OFFCURVE",
"781 291 CURVE SMOOTH",
"730 254 OFFCURVE",
"642 214 OFFCURVE",
"575 214 CURVE SMOOTH",
"569 214 OFFCURVE",
"562 216 OFFCURVE",
"553 219 CURVE",
"551 234 LINE SMOOTH",
"551 238 OFFCURVE",
"552 241 OFFCURVE",
"553 242 CURVE SMOOTH",
"555 244 LINE SMOOTH",
"560 249 OFFCURVE",
"567 258 OFFCURVE",
"575 270 CURVE SMOOTH",
"671 415 OFFCURVE",
"734 523 OFFCURVE",
"749 584 CURVE",
"750 593 OFFCURVE",
"733 603 OFFCURVE",
"717 603 CURVE SMOOTH",
"708 603 OFFCURVE",
"703 600 OFFCURVE",
"700 595 CURVE SMOOTH",
"674 542 LINE",
"671 538 OFFCURVE",
"672 534 OFFCURVE",
"676 531 CURVE",
"679 527 OFFCURVE",
"681 524 OFFCURVE",
"681 522 CURVE SMOOTH",
"681 520 OFFCURVE",
"681 519 OFFCURVE",
"680 518 CURVE",
"652 463 OFFCURVE",
"609 391 OFFCURVE",
"597 371 CURVE SMOOTH",
"566 319 OFFCURVE",
"545 283 OFFCURVE",
"534 263 CURVE",
"527 270 OFFCURVE",
"518 273 OFFCURVE",
"507 273 CURVE SMOOTH",
"490 273 OFFCURVE",
"476 259 OFFCURVE",
"479 238 CURVE SMOOTH",
"482 226 OFFCURVE",
"488 216 OFFCURVE",
"495 209 CURVE",
"366 32 OFFCURVE",
"254 -72 OFFCURVE",
"133 -83 CURVE SMOOTH",
"64 -89 OFFCURVE",
"13 -30 OFFCURVE",
"19 41 CURVE SMOOTH",
"28 133 OFFCURVE",
"94 264 OFFCURVE",
"185 347 CURVE SMOOTH",
"230 388 OFFCURVE",
"277 409 OFFCURVE",
"325 409 CURVE SMOOTH",
"360 409 OFFCURVE",
"375 387 OFFCURVE",
"375 352 CURVE SMOOTH",
"375 312 OFFCURVE",
"353 261 OFFCURVE",
"330 241 CURVE SMOOTH",
"325 236 OFFCURVE",
"323 232 OFFCURVE",
"323 227 CURVE SMOOTH",
"323 224 OFFCURVE",
"325 222 OFFCURVE",
"328 222 CURVE SMOOTH",
"331 222 OFFCURVE",
"334 223 OFFCURVE",
"337 226 CURVE SMOOTH",
"368 253 OFFCURVE",
"406 329 OFFCURVE",
"406 382 CURVE SMOOTH",
"406 423 OFFCURVE",
"383 450 OFFCURVE",
"330 449 CURVE SMOOTH",
"214 448 OFFCURVE",
"106 349 OFFCURVE",
"43 222 CURVE SMOOTH",
"11 158 OFFCURVE",
"-6 98 OFFCURVE",
"-8 43 CURVE SMOOTH",
"-11 -44 OFFCURVE",
"42 -99 OFFCURVE",
"127 -99 CURVE SMOOTH",
"247 -98 OFFCURVE",
"383 14 OFFCURVE",
"519 198 CURVE",
"524 196 LINE",
"527 187 OFFCURVE",
"531 175 OFFCURVE",
"534 160 CURVE",
"545 123 LINE SMOOTH",
"555 89 OFFCURVE",
"565 62 OFFCURVE",
"575 41 CURVE SMOOTH",
"607 -22 OFFCURVE",
"638 -47 OFFCURVE",
"689 -51 CURVE SMOOTH",
"716 -52 OFFCURVE",
"776 -5 OFFCURVE",
"795 22 CURVE SMOOTH",
"800 30 OFFCURVE",
"798 35 OFFCURVE",
"791 35 CURVE SMOOTH",
"785 35 OFFCURVE",
"780 32 OFFCURVE",
"776 26 CURVE SMOOTH",
"768 13 OFFCURVE",
"730 3 OFFCURVE",
"705 3 CURVE SMOOTH",
"666 3 OFFCURVE",
"639 30 OFFCURVE",
"611 69 CURVE SMOOTH",
"584 108 OFFCURVE",
"572 142 OFFCURVE",
"561 191 CURVE",
"572 191 LINE SMOOTH",
"647 191 OFFCURVE",
"741 231 OFFCURVE",
"797 272 CURVE SMOOTH",
"906 352 OFFCURVE",
"1011 474 OFFCURVE",
"1030 546 CURVE SMOOTH"
);
}
);
width = 776;
}
);
note = K;
unicode = 004B;
},
{
glyphname = L;
layers = (
{
layerId = "979483E7-D034-4361-86D9-396A77A90835";
paths = (
{
closed = 1;
nodes = (
"704 517 OFFCURVE",
"710 535 OFFCURVE",
"710 550 CURVE SMOOTH",
"710 586 OFFCURVE",
"679 605 OFFCURVE",
"631 605 CURVE SMOOTH",
"530 605 OFFCURVE",
"413 509 OFFCURVE",
"325 409 CURVE SMOOTH",
"280 358 OFFCURVE",
"232 299 OFFCURVE",
"179 230 CURVE SMOOTH",
"170 217 OFFCURVE",
"160 204 OFFCURVE",
"150 192 CURVE",
"135 203 OFFCURVE",
"127 217 OFFCURVE",
"127 234 CURVE SMOOTH",
"127 241 OFFCURVE",
"128 248 OFFCURVE",
"131 253 CURVE SMOOTH",
"134 260 OFFCURVE",
"136 266 OFFCURVE",
"136 272 CURVE SMOOTH",
"136 277 OFFCURVE",
"135 280 OFFCURVE",
"134 280 CURVE",
"133 281 OFFCURVE",
"130 281 OFFCURVE",
"125 278 CURVE SMOOTH",
"120 275 OFFCURVE",
"116 268 OFFCURVE",
"111 257 CURVE SMOOTH",
"102 238 OFFCURVE",
"98 221 OFFCURVE",
"98 204 CURVE SMOOTH",
"98 183 OFFCURVE",
"106 167 OFFCURVE",
"122 156 CURVE",
"90 115 OFFCURVE",
"58 67 OFFCURVE",
"27 11 CURVE",
"23 0 OFFCURVE",
"15 -15 OFFCURVE",
"2 -32 CURVE",
"-30 -51 OFFCURVE",
"-62 -78 OFFCURVE",
"-70 -94 CURVE SMOOTH",
"-72 -98 OFFCURVE",
"-73 -102 OFFCURVE",
"-73 -107 CURVE SMOOTH",
"-73 -118 OFFCURVE",
"-68 -126 OFFCURVE",
"-59 -132 CURVE SMOOTH",
"-55 -134 OFFCURVE",
"-51 -135 OFFCURVE",
"-46 -135 CURVE SMOOTH",
"-33 -135 OFFCURVE",
"-20 -128 OFFCURVE",
"-7 -113 CURVE SMOOTH",
"2 -102 OFFCURVE",
"13 -86 OFFCURVE",
"24 -65 CURVE",
"133 -6 OFFCURVE",
"267 24 OFFCURVE",
"425 25 CURVE SMOOTH",
"470 25 OFFCURVE",
"481 8 OFFCURVE",
"490 -27 CURVE",
"492 -47 OFFCURVE",
"497 -57 OFFCURVE",
"504 -57 CURVE SMOOTH",
"515 -57 OFFCURVE",
"525 -37 OFFCURVE",
"526 -16 CURVE SMOOTH",
"527 -9 OFFCURVE",
"528 -4 OFFCURVE",
"528 0 CURVE SMOOTH",
"528 35 OFFCURVE",
"499 65 OFFCURVE",
"444 65 CURVE SMOOTH",
"313 66 OFFCURVE",
"142 39 OFFCURVE",
"46 -12 CURVE",
"54 1 OFFCURVE",
"59 10 OFFCURVE",
"60 16 CURVE",
"85 59 OFFCURVE",
"115 102 OFFCURVE",
"148 145 CURVE",
"163 138 OFFCURVE",
"181 135 OFFCURVE",
"201 135 CURVE SMOOTH",
"306 135 OFFCURVE",
"454 233 OFFCURVE",
"570 349 CURVE SMOOTH",
"628 406 OFFCURVE",
"669 456 OFFCURVE",
"693 497 CURVE SMOOTH"
);
},
{
closed = 1;
nodes = (
"615 416 OFFCURVE",
"505 300 OFFCURVE",
"385 228 CURVE SMOOTH",
"325 192 OFFCURVE",
"270 174 OFFCURVE",
"219 174 CURVE SMOOTH",
"204 174 OFFCURVE",
"189 176 OFFCURVE",
"174 180 CURVE",
"247 271 OFFCURVE",
"361 394 OFFCURVE",
"477 486 CURVE SMOOTH",
"535 532 OFFCURVE",
"586 560 OFFCURVE",
"629 569 CURVE SMOOTH",
"638 571 OFFCURVE",
"646 572 OFFCURVE",
"653 572 CURVE SMOOTH",
"672 572 OFFCURVE",
"682 565 OFFCURVE",
"682 550 CURVE SMOOTH",
"682 539 OFFCURVE",
"677 524 OFFCURVE",
"666 505 CURVE SMOOTH"
);
}
);
width = 565;
}
);
note = L;
unicode = 004C;
},
{
glyphname = Lacute;
lastChange = "2021-04-20 16:28:14 +0000";
layers = (
{
layerId = "979483E7-D034-4361-86D9-396A77A90835";
paths = (
{
closed = 1;
nodes = (
"791 756 OFFCURVE",
"770 788 OFFCURVE",
"758 780 CURVE",
"731 766 OFFCURVE",
"704 743 OFFCURVE",
"675 710 CURVE SMOOTH",
"663 698 OFFCURVE",
"654 687 OFFCURVE",
"647 677 CURVE SMOOTH",
"645 674 OFFCURVE",
"643 672 OFFCURVE",
"641 669 CURVE SMOOTH",
"639 666 OFFCURVE",
"638 665 OFFCURVE",
"639 664 CURVE",
"643 662 OFFCURVE",
"660 670 OFFCURVE",
"690 687 CURVE SMOOTH",
"720 704 OFFCURVE",
"751 725 OFFCURVE",
"782 749 CURVE SMOOTH"
);
},
{
closed = 1;
nodes = (
"704 517 OFFCURVE",
"710 535 OFFCURVE",
"710 550 CURVE SMOOTH",
"710 586 OFFCURVE",
"679 605 OFFCURVE",
"631 605 CURVE SMOOTH",
"530 605 OFFCURVE",
"413 509 OFFCURVE",
"325 409 CURVE SMOOTH",
"280 358 OFFCURVE",
"232 299 OFFCURVE",
"179 230 CURVE SMOOTH",
"170 217 OFFCURVE",
"160 204 OFFCURVE",
"150 192 CURVE",
"135 203 OFFCURVE",
"127 217 OFFCURVE",
"127 234 CURVE SMOOTH",
"127 241 OFFCURVE",
"128 248 OFFCURVE",
"131 253 CURVE SMOOTH",
"134 260 OFFCURVE",
"136 266 OFFCURVE",
"136 272 CURVE SMOOTH",
"136 277 OFFCURVE",
"135 280 OFFCURVE",
"134 280 CURVE",
"133 281 OFFCURVE",
"130 281 OFFCURVE",
"125 278 CURVE SMOOTH",
"120 275 OFFCURVE",
"116 268 OFFCURVE",
"111 257 CURVE SMOOTH",
"102 238 OFFCURVE",
"98 221 OFFCURVE",
"98 204 CURVE SMOOTH",
"98 183 OFFCURVE",
"106 167 OFFCURVE",
"122 156 CURVE",
"90 115 OFFCURVE",
"58 67 OFFCURVE",
"27 11 CURVE",
"23 0 OFFCURVE",
"15 -15 OFFCURVE",
"2 -32 CURVE",
"-30 -51 OFFCURVE",
"-62 -78 OFFCURVE",
"-70 -94 CURVE SMOOTH",
"-72 -98 OFFCURVE",
"-73 -102 OFFCURVE",
"-73 -107 CURVE SMOOTH",
"-73 -118 OFFCURVE",
"-68 -126 OFFCURVE",
"-59 -132 CURVE SMOOTH",
"-55 -134 OFFCURVE",
"-51 -135 OFFCURVE",
"-46 -135 CURVE SMOOTH",
"-33 -135 OFFCURVE",
"-20 -128 OFFCURVE",
"-7 -113 CURVE SMOOTH",
"2 -102 OFFCURVE",
"13 -86 OFFCURVE",
"24 -65 CURVE",
"133 -6 OFFCURVE",
"267 24 OFFCURVE",
"425 25 CURVE SMOOTH",
"470 25 OFFCURVE",
"481 8 OFFCURVE",
"490 -27 CURVE",
"492 -47 OFFCURVE",
"497 -57 OFFCURVE",
"504 -57 CURVE SMOOTH",
"515 -57 OFFCURVE",
"525 -37 OFFCURVE",
"526 -16 CURVE SMOOTH",
"527 -9 OFFCURVE",
"528 -4 OFFCURVE",
"528 0 CURVE SMOOTH",
"528 35 OFFCURVE",
"499 65 OFFCURVE",
"444 65 CURVE SMOOTH",
"313 66 OFFCURVE",
"142 39 OFFCURVE",
"46 -12 CURVE",
"54 1 OFFCURVE",
"59 10 OFFCURVE",
"60 16 CURVE",
"85 59 OFFCURVE",
"115 102 OFFCURVE",
"148 145 CURVE",
"163 138 OFFCURVE",
"181 135 OFFCURVE",
"201 135 CURVE SMOOTH",
"306 135 OFFCURVE",
"454 233 OFFCURVE",
"570 349 CURVE SMOOTH",
"628 406 OFFCURVE",
"669 456 OFFCURVE",
"693 497 CURVE SMOOTH"
);
},
{
closed = 1;
nodes = (
"615 416 OFFCURVE",
"505 300 OFFCURVE",
"385 228 CURVE SMOOTH",
"325 192 OFFCURVE",
"270 174 OFFCURVE",
"219 174 CURVE SMOOTH",
"204 174 OFFCURVE",
"189 176 OFFCURVE",
"174 180 CURVE",
"247 271 OFFCURVE",
"361 394 OFFCURVE",
"477 486 CURVE SMOOTH",
"535 532 OFFCURVE",
"586 560 OFFCURVE",
"629 569 CURVE SMOOTH",
"638 571 OFFCURVE",
"646 572 OFFCURVE",
"653 572 CURVE SMOOTH",
"672 572 OFFCURVE",
"682 565 OFFCURVE",
"682 550 CURVE SMOOTH",
"682 539 OFFCURVE",
"677 524 OFFCURVE",
"666 505 CURVE SMOOTH"
);
}
);
width = 444;
}
);
note = Lacute;
unicode = 0139;
},
{
glyphname = Lcaron;
lastChange = "2021-04-20 16:28:14 +0000";
layers = (
{
layerId = "979483E7-D034-4361-86D9-396A77A90835";
paths = (
{
closed = 1;
nodes = (
"809 744 LINE",
"814 753 LINE",
"811 759 LINE",
"788 758 OFFCURVE",
"706 703 OFFCURVE",
"687 680 CURVE",
"671 695 OFFCURVE",
"592 753 OFFCURVE",
"585 753 CURVE SMOOTH",
"581 753 OFFCURVE",
"579 748 OFFCURVE",
"579 744 CURVE SMOOTH",
"579 733 OFFCURVE",
"676 648 OFFCURVE",
"691 645 CURVE",
"696 648 LINE",
"716 672 OFFCURVE",
"747 699 OFFCURVE",
"790 729 CURVE SMOOTH"
);
},
{
closed = 1;
nodes = (
"704 517 OFFCURVE",
"710 535 OFFCURVE",
"710 550 CURVE SMOOTH",
"710 586 OFFCURVE",
"679 605 OFFCURVE",
"631 605 CURVE SMOOTH",
"530 605 OFFCURVE",
"413 509 OFFCURVE",
"325 409 CURVE SMOOTH",
"280 358 OFFCURVE",
"232 299 OFFCURVE",
"179 230 CURVE SMOOTH",
"170 217 OFFCURVE",
"160 204 OFFCURVE",
"150 192 CURVE",
"135 203 OFFCURVE",
"127 217 OFFCURVE",
"127 234 CURVE SMOOTH",
"127 241 OFFCURVE",
"128 248 OFFCURVE",
"131 253 CURVE SMOOTH",
"134 260 OFFCURVE",
"136 266 OFFCURVE",
"136 272 CURVE SMOOTH",
"136 277 OFFCURVE",
"135 280 OFFCURVE",
"134 280 CURVE",
"133 281 OFFCURVE",
"130 281 OFFCURVE",
"125 278 CURVE SMOOTH",
"120 275 OFFCURVE",
"116 268 OFFCURVE",
"111 257 CURVE SMOOTH",
"102 238 OFFCURVE",
"98 221 OFFCURVE",
"98 204 CURVE SMOOTH",
"98 183 OFFCURVE",
"106 167 OFFCURVE",
"122 156 CURVE",
"90 115 OFFCURVE",
"58 67 OFFCURVE",
"27 11 CURVE",
"23 0 OFFCURVE",
"15 -15 OFFCURVE",
"2 -32 CURVE",
"-30 -51 OFFCURVE",
"-62 -78 OFFCURVE",
"-70 -94 CURVE SMOOTH",
"-72 -98 OFFCURVE",
"-73 -102 OFFCURVE",
"-73 -107 CURVE SMOOTH",
"-73 -118 OFFCURVE",
"-68 -126 OFFCURVE",
"-59 -132 CURVE SMOOTH",
"-55 -134 OFFCURVE",
"-51 -135 OFFCURVE",
"-46 -135 CURVE SMOOTH",
"-33 -135 OFFCURVE",
"-20 -128 OFFCURVE",
"-7 -113 CURVE SMOOTH",
"2 -102 OFFCURVE",
"13 -86 OFFCURVE",
"24 -65 CURVE",
"133 -6 OFFCURVE",
"267 24 OFFCURVE",
"425 25 CURVE SMOOTH",
"470 25 OFFCURVE",
"481 8 OFFCURVE",
"490 -27 CURVE",
"492 -47 OFFCURVE",
"497 -57 OFFCURVE",
"504 -57 CURVE SMOOTH",
"515 -57 OFFCURVE",
"525 -37 OFFCURVE",
"526 -16 CURVE SMOOTH",
"527 -9 OFFCURVE",
"528 -4 OFFCURVE",
"528 0 CURVE SMOOTH",
"528 35 OFFCURVE",
"499 65 OFFCURVE",
"444 65 CURVE SMOOTH",
"313 66 OFFCURVE",
"142 39 OFFCURVE",
"46 -12 CURVE",
"54 1 OFFCURVE",
"59 10 OFFCURVE",
"60 16 CURVE",
"85 59 OFFCURVE",
"115 102 OFFCURVE",
"148 145 CURVE",
"163 138 OFFCURVE",
"181 135 OFFCURVE",
"201 135 CURVE SMOOTH",
"306 135 OFFCURVE",
"454 233 OFFCURVE",
"570 349 CURVE SMOOTH",
"628 406 OFFCURVE",
"669 456 OFFCURVE",
"693 497 CURVE SMOOTH"
);
},
{
closed = 1;
nodes = (
"615 416 OFFCURVE",
"505 300 OFFCURVE",
"385 228 CURVE SMOOTH",
"325 192 OFFCURVE",
"270 174 OFFCURVE",
"219 174 CURVE SMOOTH",
"204 174 OFFCURVE",
"189 176 OFFCURVE",
"174 180 CURVE",
"247 271 OFFCURVE",
"361 394 OFFCURVE",
"477 486 CURVE SMOOTH",
"535 532 OFFCURVE",
"586 560 OFFCURVE",
"629 569 CURVE SMOOTH",
"638 571 OFFCURVE",
"646 572 OFFCURVE",
"653 572 CURVE SMOOTH",
"672 572 OFFCURVE",
"682 565 OFFCURVE",
"682 550 CURVE SMOOTH",
"682 539 OFFCURVE",
"677 524 OFFCURVE",
"666 505 CURVE SMOOTH"
);
}
);
width = 444;
}
);
note = Lcaron;
unicode = 013D;
},
{
glyphname = Ldot;
lastChange = "2021-04-20 16:28:14 +0000";
layers = (
{
layerId = "979483E7-D034-4361-86D9-396A77A90835";
paths = (
{
closed = 1;
nodes = (
"704 517 OFFCURVE",
"710 535 OFFCURVE",
"710 550 CURVE SMOOTH",
"710 586 OFFCURVE",
"679 605 OFFCURVE",
"631 605 CURVE SMOOTH",
"530 605 OFFCURVE",
"413 509 OFFCURVE",
"325 409 CURVE SMOOTH",
"280 358 OFFCURVE",
"232 299 OFFCURVE",
"179 230 CURVE SMOOTH",
"170 217 OFFCURVE",
"160 204 OFFCURVE",
"150 192 CURVE",
"135 203 OFFCURVE",
"127 217 OFFCURVE",
"127 234 CURVE SMOOTH",
"127 241 OFFCURVE",
"128 248 OFFCURVE",
"131 253 CURVE SMOOTH",
"134 260 OFFCURVE",
"136 266 OFFCURVE",
"136 272 CURVE SMOOTH",
"136 277 OFFCURVE",
"135 280 OFFCURVE",
"134 280 CURVE",
"133 281 OFFCURVE",
"130 281 OFFCURVE",
"125 278 CURVE SMOOTH",
"120 275 OFFCURVE",
"116 268 OFFCURVE",
"111 257 CURVE SMOOTH",
"102 238 OFFCURVE",
"98 221 OFFCURVE",
"98 204 CURVE SMOOTH",
"98 183 OFFCURVE",
"106 167 OFFCURVE",
"122 156 CURVE",
"90 115 OFFCURVE",
"58 67 OFFCURVE",
"27 11 CURVE",
"23 0 OFFCURVE",
"15 -15 OFFCURVE",
"2 -32 CURVE",
"-30 -51 OFFCURVE",
"-62 -78 OFFCURVE",
"-70 -94 CURVE SMOOTH",
"-72 -98 OFFCURVE",
"-73 -102 OFFCURVE",
"-73 -107 CURVE SMOOTH",
"-73 -118 OFFCURVE",
"-68 -126 OFFCURVE",
"-59 -132 CURVE SMOOTH",
"-55 -134 OFFCURVE",
"-51 -135 OFFCURVE",
"-46 -135 CURVE SMOOTH",
"-33 -135 OFFCURVE",
"-20 -128 OFFCURVE",
"-7 -113 CURVE SMOOTH",
"2 -102 OFFCURVE",
"13 -86 OFFCURVE",
"24 -65 CURVE",
"133 -6 OFFCURVE",
"267 24 OFFCURVE",
"425 25 CURVE SMOOTH",
"470 25 OFFCURVE",
"481 8 OFFCURVE",
"490 -27 CURVE",
"492 -47 OFFCURVE",
"497 -57 OFFCURVE",
"504 -57 CURVE SMOOTH",
"515 -57 OFFCURVE",
"525 -37 OFFCURVE",
"526 -16 CURVE SMOOTH",
"527 -9 OFFCURVE",
"528 -4 OFFCURVE",
"528 0 CURVE SMOOTH",
"528 35 OFFCURVE",
"499 65 OFFCURVE",
"444 65 CURVE SMOOTH",
"313 66 OFFCURVE",
"142 39 OFFCURVE",
"46 -12 CURVE",
"54 1 OFFCURVE",
"59 10 OFFCURVE",
"60 16 CURVE",
"85 59 OFFCURVE",
"115 102 OFFCURVE",
"148 145 CURVE",
"163 138 OFFCURVE",
"181 135 OFFCURVE",
"201 135 CURVE SMOOTH",
"306 135 OFFCURVE",
"454 233 OFFCURVE",
"570 349 CURVE SMOOTH",
"628 406 OFFCURVE",
"669 456 OFFCURVE",
"693 497 CURVE SMOOTH"
);
},
{
closed = 1;
nodes = (
"615 416 OFFCURVE",
"505 300 OFFCURVE",
"385 228 CURVE SMOOTH",
"325 192 OFFCURVE",
"270 174 OFFCURVE",
"219 174 CURVE SMOOTH",
"204 174 OFFCURVE",
"189 176 OFFCURVE",
"174 180 CURVE",
"247 271 OFFCURVE",
"361 394 OFFCURVE",
"477 486 CURVE SMOOTH",
"535 532 OFFCURVE",
"586 560 OFFCURVE",
"629 569 CURVE SMOOTH",
"638 571 OFFCURVE",
"646 572 OFFCURVE",
"653 572 CURVE SMOOTH",
"672 572 OFFCURVE",
"682 565 OFFCURVE",
"682 550 CURVE SMOOTH",
"682 539 OFFCURVE",
"677 524 OFFCURVE",
"666 505 CURVE SMOOTH"
);
},
{
closed = 1;
nodes = (
"570 261 OFFCURVE",
"566 262 OFFCURVE",
"562 262 CURVE SMOOTH",
"545 262 OFFCURVE",
"528 247 OFFCURVE",
"528 228 CURVE SMOOTH",
"528 211 OFFCURVE",
"541 197 OFFCURVE",
"557 197 CURVE SMOOTH",
"576 197 OFFCURVE",
"587 214 OFFCURVE",
"587 233 CURVE SMOOTH",
"587 244 OFFCURVE",
"583 253 OFFCURVE",
"574 259 CURVE SMOOTH"
);
}
);
width = 605;
}
);
note = Ldot;
unicode = 013F;
},
{
glyphname = Lslash;
lastChange = "2021-04-20 16:28:14 +0000";
layers = (
{
layerId = "979483E7-D034-4361-86D9-396A77A90835";
paths = (
{
closed = 1;
nodes = (
"704 517 OFFCURVE",
"710 535 OFFCURVE",
"710 550 CURVE SMOOTH",
"710 586 OFFCURVE",
"679 605 OFFCURVE",
"631 605 CURVE SMOOTH",
"530 605 OFFCURVE",
"413 509 OFFCURVE",
"325 409 CURVE SMOOTH",
"280 358 OFFCURVE",
"232 299 OFFCURVE",
"179 230 CURVE SMOOTH",
"170 217 OFFCURVE",
"160 204 OFFCURVE",
"150 192 CURVE",
"135 203 OFFCURVE",
"127 217 OFFCURVE",
"127 234 CURVE SMOOTH",
"127 241 OFFCURVE",
"128 248 OFFCURVE",
"131 253 CURVE SMOOTH",
"134 260 OFFCURVE",
"136 266 OFFCURVE",
"136 272 CURVE SMOOTH",
"136 277 OFFCURVE",
"135 280 OFFCURVE",
"134 280 CURVE",
"133 281 OFFCURVE",
"130 281 OFFCURVE",
"125 278 CURVE SMOOTH",
"120 275 OFFCURVE",
"116 268 OFFCURVE",
"111 257 CURVE SMOOTH",
"102 238 OFFCURVE",
"98 221 OFFCURVE",
"98 204 CURVE SMOOTH",
"98 183 OFFCURVE",
"106 167 OFFCURVE",
"122 156 CURVE",
"105 134 OFFCURVE",
"92 116 OFFCURVE",
"83 103 CURVE",
"23 103 OFFCURVE",
"-10 101 OFFCURVE",
"-15 97 CURVE SMOOTH",
"-20 93 OFFCURVE",
"-23 89 OFFCURVE",
"-23 86 CURVE",
"-22 83 LINE SMOOTH",
"-20 78 OFFCURVE",
"-12 76 OFFCURVE",
"1 76 CURVE SMOOTH",
"6 76 LINE",
"31 77 LINE SMOOTH",
"44 78 OFFCURVE",
"56 79 OFFCURVE",
"67 79 CURVE",
"54 57 OFFCURVE",
"40 34 OFFCURVE",
"27 11 CURVE",
"23 0 OFFCURVE",
"15 -15 OFFCURVE",
"2 -32 CURVE",
"-30 -51 OFFCURVE",
"-62 -78 OFFCURVE",
"-70 -94 CURVE SMOOTH",
"-72 -98 OFFCURVE",
"-73 -102 OFFCURVE",
"-73 -107 CURVE SMOOTH",
"-73 -118 OFFCURVE",
"-68 -126 OFFCURVE",
"-59 -132 CURVE SMOOTH",
"-55 -134 OFFCURVE",
"-51 -135 OFFCURVE",
"-46 -135 CURVE SMOOTH",
"-33 -135 OFFCURVE",
"-20 -128 OFFCURVE",
"-7 -113 CURVE SMOOTH",
"2 -102 OFFCURVE",
"13 -86 OFFCURVE",
"24 -65 CURVE",
"133 -6 OFFCURVE",
"267 24 OFFCURVE",
"425 25 CURVE SMOOTH",
"470 25 OFFCURVE",
"481 8 OFFCURVE",
"490 -27 CURVE",
"492 -47 OFFCURVE",
"497 -57 OFFCURVE",
"504 -57 CURVE SMOOTH",
"515 -57 OFFCURVE",
"525 -37 OFFCURVE",
"526 -16 CURVE SMOOTH",
"527 -9 OFFCURVE",
"528 -4 OFFCURVE",
"528 0 CURVE SMOOTH",
"528 35 OFFCURVE",
"499 65 OFFCURVE",
"444 65 CURVE SMOOTH",
"313 66 OFFCURVE",
"142 39 OFFCURVE",
"46 -12 CURVE",
"54 1 OFFCURVE",
"59 10 OFFCURVE",
"60 16 CURVE",
"78 46 OFFCURVE",
"92 68 OFFCURVE",
"101 81 CURVE",
"127 81 LINE SMOOTH",
"150 81 OFFCURVE",
"172 82 OFFCURVE",
"193 83 CURVE SMOOTH",
"214 84 OFFCURVE",
"226 86 OFFCURVE",
"230 87 CURVE SMOOTH",
"237 89 OFFCURVE",
"241 91 OFFCURVE",
"242 92 CURVE",
"242 92 OFFCURVE",
"241 93 OFFCURVE",
"241 93 CURVE",
"235 97 OFFCURVE",
"222 99 OFFCURVE",
"202 100 CURVE SMOOTH",
"191 101 OFFCURVE",
"163 102 OFFCURVE",
"116 103 CURVE",
"148 145 LINE",
"163 138 OFFCURVE",
"181 135 OFFCURVE",
"201 135 CURVE SMOOTH",
"306 135 OFFCURVE",
"454 233 OFFCURVE",
"570 349 CURVE SMOOTH",
"628 406 OFFCURVE",
"669 456 OFFCURVE",
"693 497 CURVE SMOOTH"
);
},
{
closed = 1;
nodes = (
"615 416 OFFCURVE",
"505 300 OFFCURVE",
"385 228 CURVE SMOOTH",
"325 192 OFFCURVE",
"270 174 OFFCURVE",
"219 174 CURVE SMOOTH",
"204 174 OFFCURVE",
"189 176 OFFCURVE",
"174 180 CURVE",
"247 271 OFFCURVE",
"361 394 OFFCURVE",
"477 486 CURVE SMOOTH",
"535 532 OFFCURVE",
"586 560 OFFCURVE",
"629 569 CURVE SMOOTH",
"638 571 OFFCURVE",
"646 572 OFFCURVE",
"653 572 CURVE SMOOTH",
"672 572 OFFCURVE",
"682 565 OFFCURVE",
"682 550 CURVE SMOOTH",
"682 539 OFFCURVE",
"677 524 OFFCURVE",
"666 505 CURVE SMOOTH"
);
}
);
width = 444;
}
);
note = Lslash;
unicode = 0141;
},
{
glyphname = M;
layers = (
{
layerId = "979483E7-D034-4361-86D9-396A77A90835";
paths = (
{
closed = 1;
nodes = (
"1178 580 LINE SMOOTH",
"1185 597 OFFCURVE",
"1165 612 OFFCURVE",
"1145 612 CURVE SMOOTH",
"1133 612 OFFCURVE",
"1124 606 OFFCURVE",
"1121 597 CURVE SMOOTH",
"1092 504 OFFCURVE",
"995 359 OFFCURVE",
"875 208 CURVE SMOOTH",
"848 173 OFFCURVE",
"780 106 OFFCURVE",
"753 106 CURVE SMOOTH",
"722 107 OFFCURVE",
"709 122 OFFCURVE",
"709 162 CURVE SMOOTH",
"709 173 OFFCURVE",
"709 181 OFFCURVE",
"710 187 CURVE SMOOTH",
"717 247 OFFCURVE",
"735 300 OFFCURVE",
"763 367 CURVE SMOOTH",
"775 394 LINE SMOOTH",
"786 417 OFFCURVE",
"793 434 OFFCURVE",
"796 445 CURVE SMOOTH",
"805 474 OFFCURVE",
"812 501 OFFCURVE",
"816 526 CURVE SMOOTH",
"817 535 OFFCURVE",
"799 545 OFFCURVE",
"780 545 CURVE SMOOTH",
"763 545 OFFCURVE",
"750 538 OFFCURVE",
"750 521 CURVE SMOOTH",
"749 505 OFFCURVE",
"745 486 OFFCURVE",
"740 464 CURVE SMOOTH",
"717 382 LINE SMOOTH",
"694 301 OFFCURVE",
"680 235 OFFCURVE",
"675 185 CURVE SMOOTH",
"673 169 OFFCURVE",
"672 154 OFFCURVE",
"672 141 CURVE SMOOTH",
"672 76 OFFCURVE",
"692 36 OFFCURVE",
"732 37 CURVE SMOOTH",
"746 37 OFFCURVE",
"773 59 OFFCURVE",
"813 104 CURVE SMOOTH",
"830 123 OFFCURVE",
"847 142 OFFCURVE",
"862 161 CURVE SMOOTH",
"877 180 OFFCURVE",
"885 191 OFFCURVE",
"888 194 CURVE SMOOTH",
"908 220 OFFCURVE",
"933 255 OFFCURVE",
"964 299 CURVE SMOOTH",
"982 325 LINE SMOOTH",
"1013 369 OFFCURVE",
"1037 403 OFFCURVE",
"1055 427 CURVE",
"992 290 OFFCURVE",
"936 131 OFFCURVE",
"927 35 CURVE SMOOTH",
"922 -17 OFFCURVE",
"950 -61 OFFCURVE",
"990 -61 CURVE SMOOTH",
"1017 -61 OFFCURVE",
"1048 -41 OFFCURVE",
"1076 0 CURVE",
"1079 3 OFFCURVE",
"1080 6 OFFCURVE",
"1080 9 CURVE SMOOTH",
"1080 10 OFFCURVE",
"1079 12 OFFCURVE",
"1077 14 CURVE",
"1072 16 OFFCURVE",
"1066 13 OFFCURVE",
"1059 4 CURVE SMOOTH",
"1040 -20 OFFCURVE",
"1022 -32 OFFCURVE",
"1006 -32 CURVE SMOOTH",
"981 -32 OFFCURVE",
"967 2 OFFCURVE",
"970 41 CURVE SMOOTH",
"979 126 OFFCURVE",
"1010 231 OFFCURVE",
"1065 356 CURVE",
"1066 355 LINE",
"1091 413 OFFCURVE",
"1123 477 OFFCURVE",
"1161 547 CURVE SMOOTH"
);
},
{
closed = 1;
nodes = (
"724 422 OFFCURVE",
"724 427 OFFCURVE",
"721 432 CURVE SMOOTH",
"719 436 OFFCURVE",
"717 436 OFFCURVE",
"715 433 CURVE SMOOTH",
"688 393 OFFCURVE",
"664 359 OFFCURVE",
"643 330 CURVE SMOOTH",
"640 326 OFFCURVE",
"614 287 OFFCURVE",
"563 214 CURVE SMOOTH",
"513 141 OFFCURVE",
"458 78 OFFCURVE",
"398 25 CURVE SMOOTH",
"311 -51 OFFCURVE",
"233 -88 OFFCURVE",
"170 -88 CURVE SMOOTH",
"101 -88 OFFCURVE",
"59 -40 OFFCURVE",
"59 41 CURVE SMOOTH",
"59 106 OFFCURVE",
"84 183 OFFCURVE",
"133 274 CURVE SMOOTH",
"194 385 OFFCURVE",
"268 436 OFFCURVE",
"332 436 CURVE SMOOTH",
"385 436 OFFCURVE",
"424 398 OFFCURVE",
"424 345 CURVE SMOOTH",
"424 308 OFFCURVE",
"404 264 OFFCURVE",
"364 223 CURVE SMOOTH",
"359 218 OFFCURVE",
"356 213 OFFCURVE",
"356 209 CURVE SMOOTH",
"356 205 OFFCURVE",
"358 203 OFFCURVE",
"361 203 CURVE SMOOTH",
"364 203 OFFCURVE",
"368 205 OFFCURVE",
"371 208 CURVE SMOOTH",
"427 260 OFFCURVE",
"454 313 OFFCURVE",
"454 361 CURVE SMOOTH",
"454 425 OFFCURVE",
"404 471 OFFCURVE",
"336 471 CURVE SMOOTH",
"259 471 OFFCURVE",
"168 411 OFFCURVE",
"99 286 CURVE SMOOTH",
"48 194 OFFCURVE",
"23 113 OFFCURVE",
"23 44 CURVE SMOOTH",
"23 -57 OFFCURVE",
"79 -117 OFFCURVE",
"167 -117 CURVE SMOOTH",
"236 -117 OFFCURVE",
"322 -80 OFFCURVE",
"410 -5 CURVE SMOOTH",
"475 50 OFFCURVE",
"535 119 OFFCURVE",
"589 202 CURVE",
"588 202 LINE",
"606 231 LINE SMOOTH",
"652 310 OFFCURVE",
"691 373 OFFCURVE",
"722 419 CURVE SMOOTH"
);
}
);
width = 1075;
}
);
note = M;
unicode = 004D;
},
